<?xml version="1.0" encoding="utf-8"?>
<!-- Generator: Adobe Illustrator 16.1.1, SVG Export Plug-In . SVG Version: 6.00 Build 0)  -->
<!DOCTYPE svg PUBLIC "-//W3C//DTD SVG 1.0//EN" "http://www.w3.org/TR/2001/REC-SVG-20010904/DTD/svg10.dtd">
<svg version="1.0" id="Layer_2" xmlns="http://www.w3.org/2000/svg" xmlns:xlink="http://www.w3.org/1999/xlink" x="0px" y="0px"
	 width="1280px" height="799.994px" viewBox="0 0 1280 799.994" enable-background="new 0 0 1280 799.994" xml:space="preserve">
<circle fill="#FFFFFF" cx="86.785" cy="-17.491" r="9.471"/>
<path fill="#FFFFFF" d="M101.325-4.005c1.501,6.094-2.221,12.253-8.315,13.755c-6.097,1.502-12.255-2.222-13.756-8.316
	c-1.501-6.096,2.221-12.253,8.315-13.754C93.666-13.823,99.823-10.099,101.325-4.005z"/>
<circle fill="#FFFFFF" cx="31.454" cy="-4.705" r="10.315"/>
<circle fill="#FFFFFF" cx="1.962" cy="-11.581" r="5.106"/>
<circle fill="#FFFFFF" cx="13.715" cy="36.117" r="5.106"/>
<circle fill="#FFFFFF" cx="-26.671" cy="58.262" r="8.894"/>
<circle fill="#FFFFFF" cx="-24.748" cy="79.994" r="8.894"/>
<circle fill="#FFFFFF" cx="-4.25" cy="63.619" r="7.474"/>
<circle fill="#FFFFFF" cx="-45.669" cy="72.21" r="6.053"/>
<circle fill="#FFFFFF" cx="-43.895" cy="90.374" r="6.053"/>
<circle fill="#FFFFFF" cx="401.01" cy="-123.299" r="6.052"/>
<circle fill="#FFFFFF" cx="417.813" cy="-123.161" r="6.053"/>
<circle fill="#FFFFFF" cx="433.867" cy="-123.227" r="6.052"/>
<path fill="#FFFFFF" d="M422.237-51.284c2.12,2.584,1.746,6.397-0.838,8.519c-2.587,2.121-6.399,1.744-8.521-0.841
	c-2.121-2.583-1.745-6.397,0.839-8.518C416.302-54.246,420.116-53.869,422.237-51.284z"/>
<path fill="#FFFFFF" d="M437.459-58.404c2.122,2.584,1.746,6.397-0.838,8.52c-2.584,2.12-6.398,1.744-8.519-0.84
	c-2.121-2.584-1.746-6.398,0.838-8.519C431.527-61.365,435.34-60.987,437.459-58.404z"/>
<circle fill="#FFFFFF" cx="447.239" cy="-61.541" r="6.053"/>
<circle fill="#FFFFFF" cx="-168.118" cy="-38.45" r="8.507"/>
<path fill="#FFFFFF" d="M-64.594,62.304c0.802,3.246-1.182,6.525-4.427,7.326c-3.248,0.8-6.525-1.182-7.325-4.429
	c-0.8-3.246,1.182-6.525,4.429-7.325C-68.673,57.077-65.393,59.058-64.594,62.304z"/>
<circle fill="#FFFFFF" cx="-73.708" cy="73.397" r="4.633"/>
<circle fill="#FFFFFF" cx="-52.495" cy="35.607" r="7.474"/>
<circle fill="#FFFFFF" cx="-59.09" cy="50.4" r="9.841"/>
<circle fill="#FFFFFF" cx="-45.459" cy="20.617" r="11.878"/>
<path fill="#FFFFFF" d="M-172.223-54.288c3.37,3.272,3.451,8.656,0.181,12.029c-3.274,3.372-8.659,3.452-12.031,0.179
	c-3.372-3.272-3.454-8.657-0.18-12.029C-180.978-57.481-175.593-57.561-172.223-54.288z"/>
<circle fill="#FFFFFF" cx="11.663" cy="89.895" r="6.053"/>
<circle fill="#FFFFFF" cx="0.678" cy="92.071" r="6.052"/>
<circle fill="#FFFFFF" cx="-82.479" cy="79.824" r="8.774"/>
<path fill="#FFFFFF" d="M-84.113,92.271c1.424,5.323-1.658,10.774-6.888,12.175c-5.227,1.403-10.621-1.776-12.042-7.099
	c-1.424-5.321,1.659-10.773,6.888-12.174C-90.926,83.77-85.537,86.949-84.113,92.271z"/>
<path fill="#FFFFFF" d="M-90.267,107.878c1.747,7.09-2.482,14.229-9.446,15.946c-6.967,1.717-14.029-2.64-15.776-9.73
	s2.482-14.228,9.449-15.946C-99.075,96.431-92.014,100.787-90.267,107.878z"/>
<circle fill="#FFFFFF" cx="-113.275" cy="123.318" r="6.053"/>
<circle fill="#FFFFFF" cx="-118.468" cy="130.103" r="2.887"/>
<circle fill="#FFFFFF" cx="-117.19" cy="135.284" r="2.886"/>
<circle fill="#FFFFFF" cx="-70.153" cy="55.043" r="2.887"/>
<path fill="#FFFFFF" d="M-22.044,114.407c-0.77,4.887-5.353,8.224-10.24,7.455c-4.887-0.769-8.222-5.354-7.454-10.24
	c0.769-4.887,5.354-8.224,10.239-7.454C-24.611,104.936-21.275,109.522-22.044,114.407z"/>
<path fill="#FFFFFF" d="M-33.728,125.351c-0.697,4.425-4.848,7.447-9.271,6.75c-4.428-0.697-7.45-4.849-6.752-9.273
	c0.697-4.425,4.847-7.448,9.275-6.75C-36.052,116.775-33.031,120.926-33.728,125.351z"/>
<path fill="#FFFFFF" d="M-50.712,132.628c-1.132,3.613-4.979,5.623-8.593,4.489c-3.611-1.132-5.621-4.979-4.49-8.591
	c1.132-3.611,4.979-5.623,8.592-4.489C-51.592,125.17-49.581,129.015-50.712,132.628z"/>
<circle fill="#FFFFFF" cx="-123.502" cy="146.622" r="4.632"/>
<path fill="#FFFFFF" d="M-61.14,142.516c-1.766,5.51-7.666,8.545-13.179,6.78c-5.51-1.768-8.544-7.667-6.776-13.178
	c1.767-5.511,7.666-8.546,13.177-6.778C-62.407,131.106-59.372,137.006-61.14,142.516z"/>
<path fill="#FFFFFF" d="M-76.792,151.843c-0.889,5.651-6.191,9.511-11.842,8.62c-5.652-0.888-9.511-6.19-8.621-11.843
	c0.889-5.651,6.192-9.51,11.842-8.621C-79.76,140.888-75.902,146.192-76.792,151.843z"/>
<circle fill="#FFFFFF" cx="-101.6" cy="162.887" r="11.302"/>
<circle fill="#FFFFFF" cx="-115.114" cy="166.148" r="6.053"/>
<circle fill="#FFFFFF" cx="-48.922" cy="136.659" r="4.271"/>
<circle fill="#FFFFFF" cx="12.112" cy="80.658" r="2.886"/>
<circle fill="#FFFFFF" cx="1.466" cy="102.194" r="4.27"/>
<path fill="#FFFFFF" d="M120.711-20.919c-5.045-1.773-7.697-7.303-5.924-12.348c1.777-5.048,7.305-7.699,12.352-5.924
	c5.045,1.774,7.696,7.303,5.921,12.35C131.284-21.794,125.757-19.144,120.711-20.919z"/>
<circle fill="#FFFFFF" cx="116.429" cy="-45.046" r="6.053"/>
<path fill="#FFFFFF" d="M130.221-37.009c-1.586,0.134-2.984-1.044-3.119-2.634c-0.132-1.589,1.047-2.985,2.636-3.118
	c1.586-0.134,2.983,1.045,3.118,2.635C132.989-38.537,131.809-37.142,130.221-37.009z"/>
<circle fill="#FFFFFF" cx="107.139" cy="-46.177" r="4.271"/>
<circle fill="#FFFFFF" cx="-124.227" cy="138.243" r="4.632"/>
<circle fill="#FFFFFF" cx="-131.548" cy="153.359" r="7.474"/>
<circle fill="#FFFFFF" cx="-130.824" cy="163.134" r="4.632"/>
<circle fill="#FFFFFF" cx="-124.251" cy="167.089" r="4.631"/>
<circle fill="#FFFFFF" cx="4.538" cy="-1.126" r="6.526"/>
<circle fill="#FFFFFF" cx="5.885" cy="8.297" r="4.632"/>
<circle fill="#FFFFFF" cx="5.35" cy="18.182" r="5.105"/>
<circle fill="#FFFFFF" cx="10.955" cy="25.092" r="7.946"/>
<circle fill="#FFFFFF" cx="125.262" cy="12.144" r="5.107"/>
<path fill="#FFFFFF" d="M107.694,36.135c-2.377,1.517-5.533,0.82-7.052-1.559c-1.517-2.378-0.819-5.534,1.558-7.051
	c2.379-1.517,5.536-0.82,7.053,1.558C110.769,31.461,110.072,34.618,107.694,36.135z"/>
<circle fill="#FFFFFF" cx="83.666" cy="42.337" r="5.064"/>
<circle fill="#FFFFFF" cx="114.694" cy="20.399" r="9.72"/>
<circle fill="#FFFFFF" cx="111.961" cy="31.558" r="2.185"/>
<path fill="#FFFFFF" d="M99.139,30.775c-1.119,0.715-2.608,0.386-3.323-0.735c-0.715-1.122-0.386-2.61,0.735-3.325
	c1.121-0.715,2.609-0.386,3.324,0.734C100.593,28.57,100.262,30.059,99.139,30.775z"/>
<path fill="#FFFFFF" d="M96.644,44.937c-3.667,2.341-8.543,1.264-10.883-2.403c-2.342-3.671-1.265-8.545,2.405-10.886
	c3.668-2.341,8.543-1.265,10.885,2.406C101.39,37.723,100.313,42.596,96.644,44.937z"/>
<circle fill="#FFFFFF" cx="35.273" cy="12.946" r="12.379"/>
<circle fill="#FFFFFF" cx="75.662" cy="50.61" r="6.851"/>
<circle fill="#FFFFFF" cx="-12.614" cy="106.258" r="11.001"/>
<path fill="#FFFFFF" d="M67.857,62.168c-4.125,2.522-9.513,1.221-12.036-2.905c-2.521-4.127-1.221-9.517,2.905-12.038
	c4.127-2.521,9.515-1.222,12.04,2.906C73.285,54.257,71.985,59.647,67.857,62.168z"/>
<circle fill="#FFFFFF" cx="43.96" cy="60.794" r="11"/>
<path fill="#FFFFFF" d="M36.891,90.462c-6.89,4.143-15.837,1.917-19.978-4.973c-4.145-6.89-1.917-15.837,4.972-19.982
	c6.892-4.143,15.839-1.917,19.982,4.976C46.01,77.373,43.781,86.319,36.891,90.462z"/>
<circle fill="#FFFFFF" cx="-63.373" cy="-60.691" r="6.052"/>
<circle fill="#FFFFFF" cx="-53.15" cy="-56.12" r="6.052"/>
<path fill="#FFFFFF" d="M-21.699-61.223c3.452-3.544,9.122-3.621,12.665-0.169c3.546,3.452,3.618,9.122,0.167,12.666
	c-3.45,3.543-9.12,3.618-12.664,0.167C-25.076-52.01-25.15-57.679-21.699-61.223z"/>
<circle fill="#FFFFFF" cx="-0.03" cy="-57.747" r="7.017"/>
<circle fill="#FFFFFF" cx="16.382" cy="-54.078" r="6.854"/>
<circle fill="#FFFFFF" cx="32.746" cy="-53.202" r="10.478"/>
<circle fill="#FFFFFF" cx="94.426" cy="-48.733" r="10.358"/>
<circle fill="#FFFFFF" cx="71.927" cy="-52.063" r="14.351"/>
<path fill="#FFFFFF" d="M9.824-66.603c1.516-1.807,4.21-2.042,6.02-0.525c1.804,1.517,2.04,4.21,0.523,6.018
	c-1.515,1.808-4.21,2.044-6.019,0.525C8.543-62.102,8.307-64.797,9.824-66.603z"/>
<path fill="#FFFFFF" d="M5.797-53.418c0.83-0.99,2.312-1.121,3.301-0.289c0.992,0.833,1.119,2.311,0.289,3.303
	c-0.832,0.99-2.311,1.121-3.303,0.288C5.091-50.948,4.963-52.427,5.797-53.418z"/>
<circle fill="#FFFFFF" cx="-47.945" cy="-64.837" r="4.271"/>
<circle fill="#FFFFFF" cx="-150.455" cy="-75.472" r="4.271"/>
<circle fill="#FFFFFF" cx="-148.319" cy="-66.797" r="3.177"/>
<path fill="#FFFFFF" d="M-160.726-78.578c4.35,0.211,7.705,3.904,7.496,8.251c-0.211,4.349-3.903,7.705-8.252,7.496
	c-4.346-0.21-7.704-3.905-7.494-8.253C-168.767-75.431-165.072-78.786-160.726-78.578z"/>
<circle fill="#FFFFFF" cx="-139.782" cy="-68.901" r="6.851"/>
<path fill="#FFFFFF" d="M-33.285-70.992c6.061,0.454,10.606,5.733,10.154,11.791c-0.456,6.061-5.735,10.605-11.792,10.152
	c-6.059-0.454-10.604-5.73-10.151-11.792C-44.621-66.9-39.343-71.445-33.285-70.992z"/>
<circle fill="#FFFFFF" cx="-127.326" cy="-65.089" r="8.757"/>
<circle fill="#FFFFFF" cx="-109.552" cy="-60.448" r="11.001"/>
<path fill="#FFFFFF" d="M-83.638-75.73c8.019,0.6,14.035,7.585,13.435,15.601c-0.598,8.021-7.585,14.036-15.604,13.437
	c-8.019-0.6-14.032-7.586-13.434-15.606C-98.641-70.314-91.656-76.329-83.638-75.73z"/>
<circle fill="#FFFFFF" cx="229.98" cy="-31.278" r="8.678"/>
<circle fill="#FFFFFF" cx="261.352" cy="-37.555" r="5.107"/>
<path fill="#FFFFFF" d="M170.405-10.64c2.686-0.787,4.224-3.601,3.438-6.285c-0.787-2.685-3.602-4.223-6.285-3.436
	c-2.685,0.786-4.225,3.6-3.438,6.284C164.907-11.393,167.722-9.853,170.405-10.64z"/>
<circle fill="#FFFFFF" cx="246.33" cy="-37.731" r="9.719"/>
<circle fill="#FFFFFF" cx="256.533" cy="-32.452" r="2.184"/>
<circle fill="#FFFFFF" cx="263.699" cy="-44.935" r="2.407"/>
<circle fill="#FFFFFF" cx="474.183" cy="-98.489" r="5.107"/>
<circle fill="#FFFFFF" cx="439.962" cy="-72.667" r="2.185"/>
<circle fill="#FFFFFF" cx="476.531" cy="-105.868" r="2.407"/>
<circle fill="#FFFFFF" cx="155.678" cy="-17.398" r="7.882"/>
<circle fill="#FFFFFF" cx="180.477" cy="-16.088" r="6.85"/>
<circle fill="#FFFFFF" cx="43.711" cy="-51.7" r="5.064"/>
<circle fill="#FFFFFF" cx="52.548" cy="-57.712" r="6.851"/>
<path fill="#FFFFFF" d="M194.376-14.383c4.604-1.483,7.135-6.416,5.65-11.019c-1.482-4.604-6.415-7.134-11.018-5.652
	c-4.604,1.483-7.134,6.416-5.652,11.02C184.839-15.429,189.774-12.899,194.376-14.383z"/>
<circle fill="#FFFFFF" cx="204.875" cy="-25.133" r="6.267"/>
<path fill="#FFFFFF" d="M216.377-26.778c3.631-1.17,5.625-5.063,4.458-8.692c-1.167-3.63-5.062-5.626-8.692-4.457
	c-3.63,1.168-5.625,5.061-4.455,8.691C208.855-27.604,212.747-25.609,216.377-26.778z"/>
<path fill="#FFFFFF" d="M-60.844,14.818c-2.522-1.262-3.546-4.329-2.284-6.851c1.261-2.523,4.33-3.544,6.854-2.283
	c2.519,1.263,3.542,4.33,2.282,6.852C-55.256,15.058-58.323,16.08-60.844,14.818z"/>
<circle fill="#FFFFFF" cx="-80.689" cy="0.644" r="5.106"/>
<path fill="#FFFFFF" d="M-71.11,11.271c-3.224-1.612-4.531-5.533-2.917-8.755c1.609-3.225,5.532-4.53,8.756-2.917
	c3.223,1.612,4.53,5.533,2.919,8.756C-63.966,11.578-67.886,12.885-71.11,11.271z"/>
<path fill="#FFFFFF" d="M-79.241,12.117c-1.879-0.941-2.64-3.226-1.702-5.106c0.939-1.879,3.227-2.641,5.106-1.701
	c1.879,0.941,2.638,3.227,1.701,5.106C-75.078,12.297-77.364,13.057-79.241,12.117z"/>
<circle fill="#FFFFFF" cx="-81.686" cy="-7.033" r="2.407"/>
<path fill="#FFFFFF" d="M-102.664,3.904c-5.996-3.2-8.265-10.655-5.064-16.65c3.201-5.998,10.656-8.264,16.649-5.063
	c5.998,3.202,8.267,10.656,5.067,16.653C-89.215,4.839-96.67,7.106-102.664,3.904z"/>
<path fill="#FFFFFF" d="M-118.647-5.818c-4.29-2.292-5.91-7.626-3.623-11.917c2.292-4.29,7.626-5.912,11.916-3.624
	c4.294,2.292,5.913,7.626,3.625,11.919C-109.02-5.149-114.355-3.529-118.647-5.818z"/>
<path fill="#FFFFFF" d="M-129.996-18.736c-4.729-2.526-6.518-8.405-3.994-13.135c2.524-4.73,8.405-6.517,13.136-3.993
	c4.73,2.524,6.514,8.407,3.99,13.134C-119.386-17.999-125.268-16.212-129.996-18.736z"/>
<circle fill="#FFFFFF" cx="-145.809" cy="-29.787" r="15.106"/>
<path fill="#FFFFFF" d="M-188.251-54.583c-7.361-3.93-10.145-13.082-6.217-20.441c3.927-7.362,13.083-10.144,20.444-6.215
	c7.361,3.93,10.141,13.083,6.213,20.445C-171.739-53.436-180.89-50.655-188.251-54.583z"/>
<circle fill="#FFFFFF" cx="148.809" cy="-36.519" r="8.302"/>
<path fill="#FFFFFF" d="M358.728-92.766c8.648,5.73,11.016,17.387,5.287,26.033c-5.732,8.649-17.387,11.015-26.036,5.286
	s-11.013-17.385-5.283-26.034C338.424-96.129,350.079-98.495,358.728-92.766z"/>
<path fill="#FFFFFF" d="M145.635-18.571c7.013,4.645,8.93,14.094,4.286,21.104c-4.646,7.01-14.095,8.929-21.106,4.284
	c-7.01-4.645-8.929-14.094-4.283-21.104C129.177-21.299,138.625-23.217,145.635-18.571z"/>
<circle fill="#FFFFFF" cx="138.459" cy="-28.172" r="6.721"/>
<path fill="#FFFFFF" d="M324.238-67.374c-4.284,1.234-8.758-1.239-9.994-5.526c-1.233-4.286,1.24-8.76,5.528-9.996
	c4.283-1.23,8.76,1.243,9.994,5.529C330.998-73.08,328.525-68.606,324.238-67.374z"/>
<path fill="#FFFFFF" d="M288.201-54.85c-4.286,1.235-8.76-1.239-9.995-5.525c-1.233-4.288,1.242-8.761,5.525-9.994
	c4.288-1.234,8.76,1.24,9.997,5.526C294.961-60.556,292.487-56.082,288.201-54.85z"/>
<path fill="#FFFFFF" d="M245.928-50.89c-3.291,0.948-6.727-0.951-7.673-4.242c-0.951-3.291,0.952-6.728,4.243-7.675
	c3.29-0.948,6.727,0.952,7.673,4.243C251.12-55.273,249.219-51.837,245.928-50.89z"/>
<circle fill="#FFFFFF" cx="305.64" cy="-70.425" r="10.322"/>
<path fill="#FFFFFF" d="M297.68-56.555c-1.832,0.527-3.746-0.532-4.276-2.363c-0.526-1.835,0.533-3.751,2.366-4.279
	c1.835-0.526,3.749,0.533,4.277,2.366C300.574-58.998,299.515-57.082,297.68-56.555z"/>
<path fill="#FFFFFF" d="M277.634-66.816c-2.021,0.583-4.132-0.586-4.713-2.605c-0.581-2.022,0.584-4.132,2.607-4.713
	c2.018-0.583,4.127,0.586,4.711,2.604C280.822-69.508,279.654-67.398,277.634-66.816z"/>
<path fill="#FFFFFF" d="M267.495-46.456c-6.619,1.905-13.524-1.915-15.429-8.529c-1.904-6.618,1.913-13.524,8.53-15.43
	c6.615-1.904,13.525,1.914,15.429,8.533C277.932-55.27,274.111-48.36,267.495-46.456z"/>
<path fill="#FFFFFF" d="M234.047-41.797c-4.482,1.162-9.062-1.528-10.225-6.013c-1.165-4.484,1.529-9.062,6.013-10.223
	c4.485-1.165,9.062,1.528,10.226,6.012C241.224-47.536,238.532-42.959,234.047-41.797z"/>
<path fill="#FFFFFF" d="M218.693-39.036c-5.732,1.486-11.583-1.955-13.069-7.685c-1.487-5.732,1.952-11.584,7.684-13.069
	c5.732-1.487,11.583,1.954,13.071,7.685C227.865-46.374,224.422-40.52,218.693-39.036z"/>
<path fill="#FFFFFF" d="M202.712-35.839c-4.102,1.063-8.289-1.399-9.354-5.499c-1.064-4.101,1.398-8.289,5.5-9.354
	c4.104-1.063,8.291,1.4,9.354,5.5C209.277-41.089,206.815-36.904,202.712-35.839z"/>
<path fill="#FFFFFF" d="M187.814-37.422c-4.52,1.171-9.134-1.542-10.308-6.062c-1.171-4.521,1.542-9.136,6.063-10.311
	c4.522-1.172,9.136,1.545,10.31,6.065C195.051-43.21,192.336-38.594,187.814-37.422z"/>
<path fill="#FFFFFF" d="M174.465-22.436c-7.035,1.825-14.222-2.399-16.045-9.433c-1.826-7.038,2.402-14.222,9.436-16.045
	c7.036-1.825,14.22,2.4,16.047,9.436C185.725-31.442,181.499-24.26,174.465-22.436z"/>
<path fill="#FFFFFF" d="M322.51-51.691c-4.092-0.091-7.335-3.48-7.245-7.574c0.091-4.091,3.481-7.335,7.572-7.245
	c4.094,0.091,7.338,3.48,7.246,7.573C329.996-54.844,326.604-51.601,322.51-51.691z"/>
<circle fill="#FFFFFF" cx="334.649" cy="-56.896" r="5.679"/>
<circle fill="#FFFFFF" cx="192.801" cy="-32.656" r="3.456"/>
<path fill="#FFFFFF" d="M271.05-46.356c4.099-1.081,8.296,1.363,9.376,5.458c1.083,4.096-1.362,8.294-5.456,9.376
	c-4.101,1.083-8.296-1.364-9.378-5.459C264.51-41.076,266.953-45.273,271.05-46.356z"/>
<circle fill="#FFFFFF" cx="285.098" cy="-46.452" r="5.614"/>
<path fill="#FFFFFF" d="M299.939-64.128c7.027-1.856,14.229,2.336,16.085,9.361c1.856,7.029-2.337,14.232-9.364,16.089
	c-7.029,1.854-14.229-2.339-16.087-9.366C288.719-55.071,292.911-62.274,299.939-64.128z"/>
<path fill="#FFFFFF" d="M468.427-84.317c-3.287,1.103-6.842-0.668-7.944-3.953c-1.101-3.287,0.67-6.843,3.955-7.945
	c3.285-1.102,6.841,0.668,7.946,3.954C473.482-88.974,471.713-85.417,468.427-84.317z"/>
<circle fill="#FFFFFF" cx="456.418" cy="-101.175" r="3.577"/>
<circle fill="#FFFFFF" cx="442.193" cy="-80.852" r="6.06"/>
<circle fill="#FFFFFF" cx="455.72" cy="-93.052" r="2.183"/>
<circle fill="#FFFFFF" cx="465.013" cy="-102.01" r="4.629"/>
<path fill="#FFFFFF" d="M415.679-59.742c-1.557,0.523-3.242-0.315-3.762-1.873c-0.522-1.555,0.314-3.238,1.872-3.76
	c1.554-0.522,3.239,0.316,3.76,1.872C418.072-61.946,417.233-60.262,415.679-59.742z"/>
<path fill="#FFFFFF" d="M408.746-60.781c-1.865,0.625-3.882-0.379-4.508-2.242c-0.626-1.865,0.38-3.883,2.245-4.507
	c1.861-0.625,3.879,0.38,4.503,2.242C411.614-63.423,410.61-61.407,408.746-60.781z"/>
<circle fill="#FFFFFF" cx="456.669" cy="-85.651" r="5.094"/>
<path fill="#FFFFFF" d="M432.904-65.725c-4.331,1.326-8.913-1.109-10.236-5.438c-1.328-4.33,1.107-8.915,5.438-10.238
	c4.329-1.327,8.913,1.108,10.239,5.438C439.67-71.633,437.233-67.049,432.904-65.725z"/>
<path fill="#FFFFFF" d="M371.631-46.828c-5.516,1.689-11.354-1.414-13.042-6.929c-1.689-5.514,1.413-11.353,6.928-13.042
	c5.514-1.688,11.354,1.415,13.041,6.93C380.247-54.355,377.143-48.516,371.631-46.828z"/>
<path fill="#FFFFFF" d="M385.829-59.744c-3.707,1.137-7.631-0.949-8.764-4.656c-1.138-3.707,0.948-7.633,4.656-8.766
	c3.705-1.136,7.631,0.951,8.765,4.659C391.624-64.802,389.537-60.878,385.829-59.744z"/>
<path fill="#FFFFFF" d="M389.865-43.838c-4.768,1.46-9.814-1.22-11.272-5.987c-1.461-4.767,1.221-9.814,5.988-11.272
	c4.766-1.46,9.814,1.222,11.271,5.987C397.313-50.342,394.629-45.295,389.865-43.838z"/>
<circle fill="#FFFFFF" cx="417.791" cy="-70.244" r="5.732"/>
<circle fill="#FFFFFF" cx="399.176" cy="-59.677" r="7.882"/>
<circle fill="#FFFFFF" cx="483.438" cy="-114.639" r="2.185"/>
<circle fill="#FFFFFF" cx="430.426" cy="-107.805" r="2.185"/>
<circle fill="#FFFFFF" cx="435.629" cy="-101.106" r="6.061"/>
<path fill="#FFFFFF" d="M352.983-96.619c1.034,3.3,4.546,5.138,7.847,4.105c3.302-1.034,5.141-4.548,4.104-7.849
	c-1.034-3.301-4.548-5.138-7.845-4.104C353.786-103.435,351.949-99.922,352.983-96.619z"/>
<path fill="#FFFFFF" d="M381.491-109.491c0.82,2.609,3.594,4.062,6.2,3.247c2.614-0.818,4.065-3.595,3.245-6.204
	c-0.818-2.608-3.593-4.059-6.2-3.242C382.127-114.877,380.676-112.099,381.491-109.491z"/>
<path fill="#FFFFFF" d="M460.189-99.399c-1.632-0.178-3.097,1.001-3.272,2.632c-0.177,1.631,1.003,3.097,2.634,3.272
	c1.629,0.177,3.094-1.004,3.27-2.633C462.998-97.759,461.82-99.222,460.189-99.399z"/>
<path fill="#FFFFFF" d="M403.386-101.036c-1.631-0.177-3.096,1.001-3.272,2.631c-0.177,1.631,1.002,3.097,2.633,3.273
	c1.628,0.176,3.094-1.004,3.27-2.634C406.195-99.396,405.017-100.859,403.386-101.036z"/>
<path fill="#FFFFFF" d="M387.05-105.867c-1.631-0.178-3.096,1-3.272,2.631c-0.177,1.632,1.002,3.097,2.633,3.273
	c1.629,0.176,3.094-1.004,3.271-2.634C389.858-104.228,388.681-105.692,387.05-105.867z"/>
<path fill="#FFFFFF" d="M383.368-100.576c-1.631-0.177-3.096,1.001-3.272,2.632c-0.177,1.631,1.002,3.097,2.633,3.272
	c1.629,0.176,3.093-1.003,3.271-2.633C386.177-98.935,385-100.399,383.368-100.576z"/>
<path fill="#FFFFFF" d="M450.183-88.57c-2.009,0.142-3.523,1.885-3.38,3.893c0.143,2.009,1.887,3.523,3.897,3.38
	c2.005-0.143,3.518-1.886,3.376-3.894C453.933-87.201,452.192-88.712,450.183-88.57z"/>
<path fill="#FFFFFF" d="M446.422-109.42c-3.931,0.346-6.836,3.814-6.492,7.744c0.349,3.932,3.817,6.837,7.748,6.491
	c3.93-0.346,6.836-3.815,6.49-7.746C453.821-106.862,450.353-109.768,446.422-109.42z"/>
<path fill="#FFFFFF" d="M421.241-111.503c-4.507,0.439-7.803,4.448-7.36,8.955c0.438,4.507,4.447,7.804,8.953,7.363
	c4.506-0.439,7.804-4.45,7.363-8.954C429.757-108.647,425.748-111.943,421.241-111.503z"/>
<path fill="#FFFFFF" d="M369.979-116.26c-6.02,1.247-9.956,6.983-8.792,12.812c1.162,5.831,6.981,9.548,13,8.299
	c6.018-1.246,9.953-6.982,8.791-12.813C381.818-113.791,375.994-117.507,369.979-116.26z"/>
<circle fill="#FFFFFF" cx="395.801" cy="-103.237" r="6.789"/>
<circle fill="#FFFFFF" cx="408.804" cy="-103.597" r="5.732"/>
</svg>
