<?xml version="1.0" encoding="utf-8"?>
<!-- Generator: Adobe Illustrator 16.1.1, SVG Export Plug-In . SVG Version: 6.00 Build 0)  -->
<!DOCTYPE svg PUBLIC "-//W3C//DTD SVG 1.1//EN" "http://www.w3.org/Graphics/SVG/1.1/DTD/svg11.dtd">
<svg version="1.1" id="Guitar" xmlns="http://www.w3.org/2000/svg" xmlns:xlink="http://www.w3.org/1999/xlink" x="0px" y="0px"
	 width="1280px" height="799.994px" viewBox="0 0 1280 799.994" enable-background="new 0 0 1280 799.994" xml:space="preserve">
<circle fill="#FFFFFF" cx="-8.592" cy="10.07" r="7.632"/>
<circle fill="#FFFFFF" cx="-37.17" cy="16.968" r="6.212"/>
<circle fill="#FFFFFF" cx="-45.15" cy="-11.992" r="6.212"/>
<circle fill="#FFFFFF" cx="-5.891" cy="-11.412" r="6.566"/>
<circle fill="#FFFFFF" cx="-61.272" cy="-4.807" r="5.38"/>
<circle fill="#FFFFFF" cx="-61.521" cy="6.763" r="5.38"/>
<circle fill="#FFFFFF" cx="4.422" cy="-8.066" r="5.38"/>
<circle fill="#FFFFFF" cx="13.422" cy="9.228" r="5.38"/>
<circle fill="#FFFFFF" cx="-20.052" cy="12.737" r="5.38"/>
<circle fill="#FFFFFF" cx="38.706" cy="-10.188" r="5.38"/>
<circle fill="#FFFFFF" cx="61.137" cy="-9.305" r="5.372"/>
<circle fill="#FFFFFF" cx="64.008" cy="10.755" r="5.372"/>
<circle fill="#FFFFFF" cx="-23.319" cy="-26.511" r="5.142"/>
<circle fill="#FFFFFF" cx="-15.968" cy="-19.894" r="4.367"/>
<circle fill="#FFFFFF" cx="-18.326" cy="-13.939" r="5.505"/>
<circle fill="#FFFFFF" cx="-19.894" cy="23.251" r="4.973"/>
<circle fill="#FFFFFF" cx="23.131" cy="11.749" r="4.67"/>
<circle fill="#FFFFFF" cx="47.4" cy="-8.066" r="4.67"/>
<circle fill="#FFFFFF" cx="45.573" cy="10.07" r="4.67"/>
<circle fill="#FFFFFF" cx="31.356" cy="10.07" r="4.67"/>
<circle fill="#FFFFFF" cx="-33.132" cy="-18.118" r="4.67"/>
<circle fill="#FFFFFF" cx="-49.208" cy="9.962" r="4.93"/>
<circle fill="#FFFFFF" cx="-27.025" cy="19.729" r="4.676"/>
<circle fill="#FFFFFF" cx="-39.806" cy="-18.31" r="3.113"/>
<circle fill="#FFFFFF" cx="-15.665" cy="-28.043" r="3.113"/>
<circle fill="#FFFFFF" cx="-75.392" cy="0.931" r="3.787"/>
<circle fill="#FFFFFF" cx="-69.053" cy="-4.675" r="3.164"/>
<circle fill="#FFFFFF" cx="-52.726" cy="-7.343" r="3.164"/>
<circle fill="#FFFFFF" cx="-14.984" cy="-5.778" r="3.164"/>
<circle fill="#FFFFFF" cx="-32.059" cy="24.77" r="2.66"/>
<circle fill="#FFFFFF" cx="-26.175" cy="28.059" r="2.354"/>
<circle fill="#FFFFFF" cx="-45.738" cy="15.922" r="2.354"/>
<circle fill="#FFFFFF" cx="-55.232" cy="10.498" r="1.981"/>
<circle fill="#FFFFFF" cx="-54.984" cy="5.795" r="1.98"/>
<circle fill="#FFFFFF" cx="-54.479" cy="-11.412" r="1.981"/>
<circle fill="#FFFFFF" cx="6.119" cy="14.609" r="3.164"/>
<circle fill="#FFFFFF" cx="1.96" cy="9.573" r="3.164"/>
<circle fill="#FFFFFF" cx="11.724" cy="-13.614" r="3.112"/>
<circle fill="#FFFFFF" cx="15.938" cy="-8.943" r="3.112"/>
<circle fill="#FFFFFF" cx="54.466" cy="-7.28" r="2.766"/>
<circle fill="#FFFFFF" cx="67.729" cy="-6.698" r="2.766"/>
<circle fill="#FFFFFF" cx="78.108" cy="-4.18" r="2.766"/>
<circle fill="#FFFFFF" cx="86.021" cy="-7.032" r="2.765"/>
<circle fill="#FFFFFF" cx="88.141" cy="12.246" r="2.766"/>
<circle fill="#FFFFFF" cx="77.094" cy="11.5" r="2.766"/>
<circle fill="#FFFFFF" cx="57.357" cy="10.07" r="2.766"/>
<circle fill="#FFFFFF" cx="39.31" cy="11.836" r="3.763"/>
<circle fill="#FFFFFF" cx="-17.485" cy="32.281" r="3.18"/>
<circle fill="#FFFFFF" cx="-66.884" cy="0.077" r="1.472"/>
<circle fill="#FFFFFF" cx="-58.905" cy="13.165" r="1.472"/>
<circle fill="#FFFFFF" cx="-22.36" cy="30.571" r="1.472"/>
<circle fill="#FFFFFF" cx="-15.417" cy="18.678" r="1.472"/>
<circle fill="#FFFFFF" cx="-36.443" cy="-12.636" r="1.472"/>
<circle fill="#FFFFFF" cx="-23.265" cy="-19.943" r="1.472"/>
<circle fill="#FFFFFF" cx="-15.968" cy="-35.927" r="1.472"/>
<circle fill="#FFFFFF" cx="-0.711" cy="13.556" r="1.471"/>
<circle fill="#FFFFFF" cx="18.459" cy="-12.884" r="1.472"/>
<circle fill="#FFFFFF" cx="37.164" cy="6.849" r="2.027"/>
<circle fill="#FFFFFF" cx="10.639" cy="-6.698" r="2.027"/>
<circle fill="#FFFFFF" cx="-28.681" cy="-23.285" r="2.027"/>
<circle fill="#FFFFFF" cx="-27.122" cy="-18.721" r="2.028"/>
<circle fill="#FFFFFF" cx="6.904" cy="7.823" r="2.028"/>
<circle fill="#FFFFFF" cx="56.964" cy="15.056" r="1.052"/>
<circle fill="#FFFFFF" cx="82.175" cy="11.252" r="1.052"/>
<circle fill="#FFFFFF" cx="52.07" cy="11.444" r="3.763"/>
<circle fill="#FFFFFF" cx="71.492" cy="11.836" r="3.763"/>
<circle fill="#FFFFFF" cx="73.703" cy="-8.066" r="3.763"/>
<circle fill="#FFFFFF" cx="-69.053" cy="4.095" r="3.164"/>
<circle fill="#FFFFFF" cx="26.685" cy="-9.308" r="7.632"/>
</svg>
