<?xml version="1.0" encoding="utf-8"?>
<!-- Generator: Adobe Illustrator 16.1.1, SVG Export Plug-In . SVG Version: 6.00 Build 0)  -->
<!DOCTYPE svg PUBLIC "-//W3C//DTD SVG 1.1//EN" "http://www.w3.org/Graphics/SVG/1.1/DTD/svg11.dtd">
<svg version="1.1" id="Wave" xmlns="http://www.w3.org/2000/svg" xmlns:xlink="http://www.w3.org/1999/xlink" x="0px" y="0px"
	 width="1280px" height="800px" viewBox="0 0 1280 800" enable-background="new 0 0 1280 800" xml:space="preserve">
<path fill="#FFFFFF" d="M-222.926-134.357c1.832-7.327,9.261-11.78,16.592-9.941c7.327,1.837,11.779,9.265,9.943,16.597
	c-1.84,7.318-9.271,11.775-16.599,9.94C-220.316-119.6-224.767-127.03-222.926-134.357z"/>
<path fill="#FFFFFF" d="M-249.146-196.097c1.934-7.723,9.762-12.413,17.483-10.479c7.726,1.938,12.412,9.767,10.479,17.485
	c-1.938,7.723-9.766,12.41-17.488,10.479C-246.392-180.549-251.084-188.375-249.146-196.097z"/>
<path fill="#FFFFFF" d="M-243.992-163.245c2.474-9.873,12.479-15.869,22.348-13.395c9.873,2.472,15.866,12.48,13.395,22.353
	c-2.473,9.868-12.479,15.864-22.348,13.392C-240.469-143.369-246.467-153.375-243.992-163.245z"/>
<path fill="#FFFFFF" d="M-228.62-195.758c1.943-7.743,9.803-12.454,17.556-10.519c7.751,1.946,12.465,9.815,10.527,17.564
	c-1.954,7.75-9.813,12.459-17.565,10.516C-225.853-180.143-230.565-188-228.62-195.758z"/>
<path fill="#FFFFFF" d="M-226.084-222.324c1.148-4.589,5.804-7.374,10.385-6.229c4.588,1.154,7.378,5.805,6.226,10.392
	c-1.146,4.587-5.799,7.369-10.381,6.226C-224.449-213.083-227.232-217.741-226.084-222.324z"/>
<path fill="#FFFFFF" d="M-211.978-152.156c0.863-3.457,4.371-5.556,7.821-4.691c3.456,0.869,5.56,4.371,4.69,7.827
	c-0.863,3.456-4.37,5.552-7.82,4.689C-210.748-145.198-212.844-148.703-211.978-152.156z"/>
<path fill="#FFFFFF" d="M-194.507,3.266c0.467-7.217,6.694-12.687,13.913-12.217c7.217,0.472,12.686,6.701,12.217,13.92
	c-0.473,7.208-6.703,12.684-13.918,12.213C-189.51,16.71-194.978,10.483-194.507,3.266z"/>
<path fill="#FFFFFF" d="M-209.675-65.472c0.468-7.216,6.698-12.686,13.913-12.216c7.219,0.471,12.687,6.701,12.218,13.912
	c-0.471,7.221-6.699,12.687-13.917,12.221C-204.677-52.03-210.145-58.256-209.675-65.472z"/>
<path fill="#FFFFFF" d="M-199.706-36.957c0.598-9.229,8.561-16.218,17.781-15.617c9.227,0.6,16.215,8.564,15.617,17.789
	c-0.603,9.222-8.565,16.213-17.784,15.614C-193.319-19.773-200.31-27.737-199.706-36.957z"/>
<path fill="#FFFFFF" d="M-184.051-58.827c0.375-5.747,5.338-10.104,11.087-9.737c5.752,0.379,10.112,5.35,9.742,11.097
	c-0.379,5.75-5.348,10.106-11.098,9.734C-180.067-48.113-184.426-53.075-184.051-58.827z"/>
<path fill="#FFFFFF" d="M-185.695-77.999c0.222-3.401,3.161-5.98,6.561-5.761c3.403,0.224,5.986,3.162,5.762,6.563
	c-0.219,3.398-3.16,5.978-6.558,5.761C-183.339-71.658-185.915-74.6-185.695-77.999z"/>
<path fill="#FFFFFF" d="M-180.337-15.96c0.22-3.403,3.161-5.979,6.561-5.761c3.402,0.223,5.983,3.158,5.76,6.563
	c-0.218,3.4-3.158,5.978-6.557,5.761C-177.981-9.622-180.558-12.559-180.337-15.96z"/>
<path fill="#FFFFFF" d="M-220.21-99.063c0.771-11.854,11.001-20.835,22.853-20.062c11.851,0.771,20.831,11,20.062,22.852
	c-0.77,11.849-11.002,20.833-22.854,20.062C-211.996-76.978-220.981-87.214-220.21-99.063z"/>
<path fill="#FFFFFF" d="M20.148-279.401c-7.563-3.125-11.154-11.791-8.021-19.354c3.131-7.56,11.794-11.151,19.359-8.021
	c7.55,3.133,11.146,11.801,8.019,19.36C36.372-279.857,27.707-276.265,20.148-279.401z"/>
<path fill="#FFFFFF" d="M4.681-370.075c4.229-7.006,13.338-9.255,20.342-5.023c7.008,4.233,9.254,13.343,5.024,20.344
	c-4.232,7.005-13.338,9.251-20.346,5.023C2.699-353.967,0.449-363.073,4.681-370.075z"/>
<path fill="#FFFFFF" d="M-0.161-336.238c5.408-8.957,17.049-11.831,26-6.422c8.957,5.406,11.827,17.05,6.42,26.004
	c-5.406,8.952-17.049,11.826-26,6.42C-2.696-315.644-5.571-327.286-0.161-336.238z"/>
<path fill="#FFFFFF" d="M26.962-350.051c3.371-5.575,10.627-7.368,16.211-4.004c5.58,3.374,7.372,10.643,4.007,16.222
	c-3.38,5.578-10.638,7.368-16.22,3.998C25.38-337.21,23.586-344.467,26.962-350.051z"/>
<path fill="#FFFFFF" d="M35.298-370.166c1.995-3.307,6.293-4.362,9.591-2.373c3.305,1.998,4.365,6.294,2.367,9.595
	c-1.99,3.304-6.287,4.36-9.586,2.371C34.364-362.569,33.306-366.867,35.298-370.166z"/>
<path fill="#FFFFFF" d="M30.129-315.699c1.993-3.306,6.291-4.363,9.591-2.371c3.302,1.998,4.366,6.293,2.369,9.594
	c-1.992,3.307-6.289,4.36-9.589,2.372C29.193-308.103,28.136-312.4,30.129-315.699z"/>
<path fill="#FFFFFF" d="M4.966-225.208c2.776-7.322,10.967-11.006,18.287-8.228c7.326,2.781,11.008,10.973,8.23,18.289
	c-2.781,7.326-10.97,11.006-18.295,8.23C5.868-209.7,2.186-217.887,4.966-225.208z"/>
<path fill="#FFFFFF" d="M29.386-210.184c2.215-5.833,8.739-8.768,14.575-6.56c5.836,2.22,8.771,8.752,6.562,14.586
	c-2.221,5.834-8.748,8.767-14.584,6.554C30.106-197.823,27.171-204.347,29.386-210.184z"/>
<path fill="#FFFFFF" d="M33.78-230.56c1.31-3.45,5.173-5.188,8.623-3.88c3.451,1.313,5.192,5.177,3.879,8.628
	c-1.307,3.45-5.173,5.186-8.62,3.881C34.202-223.244,32.469-227.111,33.78-230.56z"/>
<path fill="#FFFFFF" d="M4.733-263.338c4.565-12.03,18.013-18.078,30.038-13.512c12.025,4.564,18.074,18.012,13.511,30.039
	c-4.563,12.023-18.014,18.075-30.042,13.507C6.218-237.862,0.168-251.316,4.733-263.338z"/>
<path fill="#FFFFFF" d="M-69.334,36.731c-3.414-7.438-0.146-16.231,7.295-19.641c7.439-3.406,16.231-0.142,19.644,7.301
	c3.398,7.435,0.134,16.232-7.304,19.642C-57.139,47.437-65.932,44.172-69.334,36.731z"/>
<path fill="#FFFFFF" d="M-106.153,27.746c-4.359-9.512-0.185-20.75,9.324-25.105c9.509-4.359,20.749-0.179,25.107,9.33
	c4.354,9.508,0.179,20.748-9.327,25.104C-90.558,41.432-101.8,37.255-106.153,27.746z"/>
<path fill="#FFFFFF" d="M-72.131,14.268c-1.609-3.508-0.064-7.654,3.439-9.262c3.509-1.604,7.656-0.065,9.263,3.442
	c1.611,3.507,0.063,7.65-3.438,9.26C-66.378,19.32-70.523,17.775-72.131,14.268z"/>
<path fill="#FFFFFF" d="M-48.834,63.892c-7.374-10.545-4.806-25.063,5.738-32.433c10.541-7.371,25.059-4.802,32.432,5.741
	c7.371,10.538,4.803,25.061-5.743,32.433C-26.939,77.004-41.466,74.432-48.834,63.892z"/>
<path fill="#FFFFFF" d="M-70.565-390.506c-3.572-6.655-11.866-9.151-18.522-5.571c-6.653,3.577-9.148,11.87-5.57,18.528
	c3.577,6.644,11.873,9.143,18.527,5.566C-69.477-375.563-66.983-383.855-70.565-390.506z"/>
<path fill="#FFFFFF" d="M-59.564-454.041c-3.575-6.656-11.869-9.149-18.523-5.572c-6.657,3.579-9.148,11.874-5.572,18.524
	c3.579,6.655,11.871,9.146,18.527,5.574C-58.48-439.098-55.983-447.389-59.564-454.041z"/>
<path fill="#FFFFFF" d="M-56.663-422.616c-4.571-8.509-15.174-11.696-23.676-7.124c-8.509,4.571-11.695,15.175-7.124,23.681
	c4.572,8.504,15.175,11.693,23.678,7.122C-55.279-403.51-52.089-414.113-56.663-422.616z"/>
<path fill="#FFFFFF" d="M-22.663-497.283c-4.571-8.509-15.174-11.696-23.676-7.124c-8.509,4.571-11.695,15.175-7.124,23.681
	c4.572,8.504,15.175,11.693,23.678,7.122C-21.279-478.177-18.089-488.78-22.663-497.283z"/>
<path fill="#FFFFFF" d="M-81.033-436.609c-2.851-5.297-9.459-7.285-14.764-4.438c-5.3,2.853-7.288,9.47-4.444,14.771
	c2.859,5.298,9.468,7.284,14.771,4.437C-80.17-424.694-78.178-431.303-81.033-436.609z"/>
<path fill="#FFFFFF" d="M-87.792-455.541c-1.685-3.14-5.6-4.313-8.731-2.63c-3.139,1.689-4.316,5.602-2.626,8.737
	c1.683,3.139,5.596,4.312,8.729,2.629C-87.279-448.492-86.105-452.407-87.792-455.541z"/>
<path fill="#FFFFFF" d="M-85.542-405.079c-1.687-3.14-5.601-4.314-8.732-2.631c-3.139,1.69-4.317,5.602-2.63,8.737
	c1.686,3.141,5.599,4.313,8.73,2.631C-85.03-398.031-83.857-401.945-85.542-405.079z"/>
<path fill="#FFFFFF" d="M-64.375-250.117c-2.223-6.882-9.601-10.659-16.483-8.433c-6.88,2.228-10.655,9.605-8.433,16.489
	c2.228,6.872,9.608,10.652,16.488,8.429C-65.922-235.86-62.148-243.238-64.375-250.117z"/>
<path fill="#FFFFFF" d="M-63.523-320.478c-2.223-6.879-9.604-10.653-16.482-8.432c-6.884,2.227-10.656,9.608-8.434,16.484
	c2.226,6.885,9.604,10.653,16.486,8.434C-65.072-306.218-61.299-313.597-63.523-320.478z"/>
<path fill="#FFFFFF" d="M-67.197-290.388c-2.842-8.802-12.273-13.623-21.066-10.78c-8.799,2.842-13.62,12.277-10.779,21.074
	c2.844,8.793,12.278,13.618,21.07,10.778C-69.177-272.162-64.349-281.597-67.197-290.388z"/>
<path fill="#FFFFFF" d="M-86.736-307.751c-1.772-5.479-7.652-8.488-13.136-6.723c-5.482,1.776-8.492,7.664-6.725,13.146
	c1.775,5.481,7.661,8.489,13.145,6.718C-87.971-296.389-84.962-302.268-86.736-307.751z"/>
<path fill="#FFFFFF" d="M-92.844-326.743c-1.047-3.243-4.53-5.022-7.771-3.978c-3.243,1.053-5.027,4.533-3.977,7.777
	c1.046,3.241,4.529,5.021,7.77,3.977C-93.573-320.017-91.796-323.5-92.844-326.743z"/>
<path fill="#FFFFFF" d="M-82.827-265.284c-1.049-3.246-4.529-5.021-7.771-3.977c-3.245,1.051-5.026,4.529-3.975,7.774
	c1.044,3.242,4.526,5.021,7.768,3.979C-83.556-258.562-81.778-262.041-82.827-265.284z"/>
<path fill="#FFFFFF" d="M-28.292-213.479c-2.223-6.882-9.601-10.659-16.483-8.433c-6.88,2.228-10.655,9.605-8.433,16.49
	c2.228,6.872,9.608,10.651,16.488,8.428C-29.839-199.221-26.065-206.599-28.292-213.479z"/>
<path fill="#FFFFFF" d="M-27.44-283.838c-2.223-6.879-9.604-10.654-16.482-8.433c-6.884,2.228-10.656,9.608-8.434,16.484
	c2.226,6.885,9.604,10.654,16.486,8.434C-28.989-269.58-25.216-276.958-27.44-283.838z"/>
<path fill="#FFFFFF" d="M-33.114-253.749c-2.842-8.802-12.273-13.624-21.066-10.781c-8.799,2.842-13.62,12.278-10.779,21.074
	c2.844,8.793,12.278,13.619,21.07,10.778C-35.094-235.524-30.266-244.958-33.114-253.749z"/>
<path fill="#FFFFFF" d="M-53.653-271.114c-1.772-5.479-7.652-8.488-13.136-6.722c-5.482,1.775-8.492,7.664-6.725,13.145
	c1.775,5.482,7.661,8.489,13.145,6.718C-54.888-259.749-51.879-265.628-53.653-271.114z"/>
<path fill="#FFFFFF" d="M-53.76-290.105c-1.047-3.243-4.53-5.021-7.771-3.977c-3.243,1.052-5.027,4.533-3.977,7.777
	c1.046,3.24,4.529,5.02,7.77,3.976C-54.49-283.377-52.713-286.863-53.76-290.105z"/>
<path fill="#FFFFFF" d="M-45.625-516.148c-2.222-6.879-9.604-10.653-16.481-8.432c-6.885,2.227-10.656,9.607-8.435,16.483
	c2.227,6.886,9.604,10.654,16.487,8.435C-47.173-501.889-43.4-509.267-45.625-516.148z"/>
<path fill="#FFFFFF" d="M-68.837-503.421c-1.772-5.479-7.653-8.488-13.136-6.723c-5.483,1.776-8.492,7.664-6.726,13.146
	c1.776,5.481,7.661,8.489,13.146,6.718C-70.074-492.059-67.063-497.938-68.837-503.421z"/>
<path fill="#FFFFFF" d="M-70.807-519.215c-1.047-3.243-4.53-5.022-7.771-3.978c-3.244,1.052-5.027,4.533-3.977,7.777
	c1.046,3.241,4.529,5.02,7.77,3.976C-71.537-512.49-69.76-515.974-70.807-519.215z"/>
<path fill="#FFFFFF" d="M-49.542-466.02c-1.047-3.243-4.53-5.021-7.771-3.977c-3.244,1.052-5.028,4.533-3.978,7.777
	c1.046,3.24,4.529,5.02,7.771,3.976C-50.27-459.292-48.495-462.778-49.542-466.02z"/>
<path fill="#FFFFFF" d="M-46.744-228.646c-1.049-3.246-4.529-5.021-7.771-3.977c-3.245,1.051-5.026,4.53-3.975,7.774
	c1.044,3.242,4.526,5.021,7.768,3.979C-47.473-221.922-45.695-225.403-46.744-228.646z"/>
<path fill="#FFFFFF" d="M-39.958-310.145c-2.223-6.882-9.601-10.658-16.483-8.433c-6.88,2.228-10.655,9.605-8.433,16.49
	c2.228,6.872,9.608,10.651,16.488,8.428C-41.505-295.886-37.731-303.265-39.958-310.145z"/>
<path fill="#FFFFFF" d="M-29.106-393.838c-2.223-6.879-9.604-10.654-16.482-8.433c-6.884,2.228-10.656,9.608-8.434,16.484
	c2.226,6.885,9.604,10.654,16.486,8.434C-30.655-379.58-26.882-386.958-29.106-393.838z"/>
<path fill="#FFFFFF" d="M-31.78-363.749c-2.842-8.802-12.273-13.624-21.066-10.781c-8.799,2.842-13.62,12.278-10.779,21.074
	c2.844,8.793,12.278,13.619,21.07,10.779C-33.76-345.524-28.932-354.958-31.78-363.749z"/>
<path fill="#FFFFFF" d="M-52.319-381.114c-1.772-5.479-7.652-8.488-13.136-6.722c-5.482,1.775-8.492,7.664-6.725,13.145
	c1.775,5.482,7.661,8.489,13.145,6.718C-53.554-369.749-50.545-375.628-52.319-381.114z"/>
<path fill="#FFFFFF" d="M-40.642-452.03c-1.773-5.479-7.653-8.488-13.137-6.722c-5.482,1.775-8.491,7.664-6.725,13.145
	c1.776,5.482,7.661,8.489,13.146,6.718C-41.879-440.666-38.87-446.544-40.642-452.03z"/>
<path fill="#FFFFFF" d="M-55.427-400.105c-1.047-3.243-4.53-5.021-7.771-3.977c-3.243,1.052-5.027,4.533-3.977,7.776
	c1.046,3.241,4.529,5.021,7.77,3.977C-56.156-393.377-54.379-396.863-55.427-400.105z"/>
<path fill="#FFFFFF" d="M-52.875-337.353c-1.049-3.246-4.53-5.021-7.771-3.977c-3.245,1.051-5.026,4.53-3.975,7.774
	c1.044,3.242,4.526,5.021,7.768,3.979C-53.605-330.629-51.827-334.11-52.875-337.353z"/>
<path fill="#FFFFFF" d="M-64.545-355.624c-3.655-11.307-15.772-17.502-27.073-13.848c-11.3,3.651-17.497,15.771-13.847,27.072
	c3.651,11.298,15.775,17.499,27.077,13.845C-67.094-332.2-60.892-344.327-64.545-355.624z"/>
<path fill="#FFFFFF" d="M-198.596-142.163c0.391-4.885,4.669-8.53,9.555-8.137c4.891,0.389,8.531,4.669,8.142,9.553
	c-0.394,4.889-4.671,8.529-9.559,8.141C-195.345-133.001-198.989-137.279-198.596-142.163z"/>
<path fill="#FFFFFF" d="M-169.546-145.487c-1.084-3.75,1.075-7.672,4.824-8.764c3.754-1.084,7.681,1.08,8.77,4.828
	c1.081,3.752-1.08,7.674-4.831,8.762S-168.459-141.733-169.546-145.487z"/>
<path fill="#FFFFFF" d="M-199.801-201.9c-1.439-4.978,1.428-10.185,6.404-11.634c4.983-1.439,10.196,1.434,11.643,6.409
	c1.435,4.98-1.435,10.188-6.413,11.632C-193.148-194.047-198.357-196.915-199.801-201.9z"/>
<path fill="#FFFFFF" d="M-178.788-147.124c-0.646-2.222,0.635-4.543,2.854-5.187c2.222-0.643,4.543,0.633,5.185,2.855
	c0.646,2.217-0.636,4.537-2.852,5.182C-175.825-143.625-178.145-144.907-178.788-147.124z"/>
<path fill="#FFFFFF" d="M-201.559-166.472c-2.974-10.268,2.934-20.997,13.198-23.974c10.266-2.973,20.996,2.938,23.974,13.199
	c2.972,10.264-2.936,21.001-13.202,23.975C-187.849-150.294-198.588-156.207-201.559-166.472z"/>
<path fill="#FFFFFF" d="M-76.151-204.513c-4.628-1.616-7.065-6.68-5.445-11.307c1.617-4.631,6.683-7.066,11.307-5.448
	c4.629,1.62,7.064,6.683,5.447,11.312C-66.465-205.33-71.525-202.893-76.151-204.513z"/>
<path fill="#FFFFFF" d="M-105.585-262.824c-4.627-1.617-7.064-6.68-5.445-11.307c1.617-4.632,6.684-7.066,11.308-5.448
	c4.629,1.62,7.063,6.682,5.447,11.311C-95.898-263.642-100.959-261.204-105.585-262.824z"/>
<path fill="#FFFFFF" d="M-67.153-220.035c-3.683-1.292-5.626-5.325-4.341-9.013c1.294-3.688,5.334-5.632,9.021-4.345
	c3.684,1.296,5.624,5.331,4.335,9.019C-59.427-220.688-63.464-218.743-67.153-220.035z"/>
<path fill="#FFFFFF" d="M63.747-318.024c-3.684-1.292-5.626-5.325-4.341-9.013c1.294-3.688,5.334-5.631,9.02-4.344
	c3.685,1.296,5.624,5.331,4.335,9.018C71.472-318.675,67.435-316.732,63.747-318.024z"/>
<path fill="#FFFFFF" d="M-100.582-233.438c-4.389-1.54-6.704-6.347-5.173-10.741c1.542-4.393,6.356-6.71,10.749-5.176
	c4.39,1.544,6.702,6.354,5.166,10.746C-91.376-234.215-96.185-231.898-100.582-233.438z"/>
<path fill="#FFFFFF" d="M-79.969-222.451c-2.185-0.763-3.332-3.152-2.569-5.331c0.766-2.183,3.149-3.334,5.333-2.568
	c2.181,0.762,3.328,3.15,2.567,5.329C-75.399-222.835-77.791-221.689-79.969-222.451z"/>
<path fill="#FFFFFF" d="M-100.005-203.744c-7.6-2.661-11.603-10.974-8.944-18.573c2.661-7.597,10.976-11.6,18.573-8.942
	c7.596,2.659,11.604,10.976,8.942,18.574C-84.089-205.088-92.407-201.083-100.005-203.744z"/>
<path fill="#FFFFFF" d="M-93.628-464.085c-1.86-4.534,0.31-9.721,4.846-11.578c4.537-1.862,9.721,0.31,11.579,4.843
	c1.859,4.538-0.311,9.719-4.846,11.581C-86.588-457.383-91.769-459.551-93.628-464.085z"/>
<path fill="#FFFFFF" d="M-45.101-463.621c-0.646-2.221,0.635-4.543,2.853-5.187c2.222-0.643,4.543,0.634,5.186,2.855
	c0.645,2.217-0.637,4.537-2.853,5.182C-42.138-460.123-44.46-461.405-45.101-463.621z"/>
<path fill="#FFFFFF" d="M-48.101-334.954c-0.646-2.221,0.635-4.543,2.853-5.187c2.222-0.643,4.543,0.634,5.186,2.855
	c0.645,2.217-0.637,4.537-2.853,5.182C-45.138-331.456-47.46-332.738-48.101-334.954z"/>
<path fill="#FFFFFF" d="M-43.481-511.76c-1.04-3.581,1.023-7.325,4.601-8.361c3.582-1.036,7.325,1.021,8.359,4.604
	c1.04,3.574-1.024,7.316-4.599,8.355C-38.704-506.12-42.447-508.186-43.481-511.76z"/>
<path fill="#FFFFFF" d="M39.583-527.89c-1.04-3.581,1.023-7.324,4.601-8.36c3.582-1.036,7.325,1.021,8.359,4.604
	c1.04,3.574-1.024,7.316-4.598,8.355C44.362-522.249,40.618-524.315,39.583-527.89z"/>
<path fill="#FFFFFF" d="M-81.365-477.558c-2.238-7.733,2.21-15.815,9.942-18.059c7.732-2.238,15.815,2.213,18.058,9.943
	c2.239,7.729-2.211,15.817-9.943,18.059C-71.038-465.372-79.125-469.825-81.365-477.558z"/>
<path fill="#FFFFFF" d="M76.144-499.066c-2.108-5.617,0.733-11.876,6.348-13.979c5.614-2.11,11.876,0.73,13.982,6.347
	c2.107,5.616-0.734,11.874-6.348,13.982C84.511-490.607,78.25-493.45,76.144-499.066z"/>
<path fill="#FFFFFF" d="M71.861-515.906c-1.666-3.344-0.308-7.408,3.034-9.078c3.349-1.67,7.417-0.307,9.086,3.035
	c1.666,3.35,0.307,7.414-3.04,9.084C77.594-511.198,73.531-512.558,71.861-515.906z"/>
<path fill="#FFFFFF" d="M183.824-153.889c-2.68-5.368-0.497-11.889,4.868-14.561c5.366-2.68,11.888-0.5,14.563,4.867
	s0.496,11.887-4.869,14.564C193.02-146.339,186.499-148.522,183.824-153.889z"/>
<path fill="#FFFFFF" d="M185.456-171.264c-1.666-3.344-0.308-7.407,3.035-9.077c3.348-1.671,7.417-0.308,9.086,3.034
	c1.666,3.351,0.306,7.414-3.04,9.084C191.19-166.557,187.126-167.916,185.456-171.264z"/>
<path fill="#FFFFFF" d="M203.78-148.206c-1.666-3.344-0.308-7.408,3.034-9.078c3.349-1.67,7.417-0.307,9.086,3.035
	c1.666,3.35,0.307,7.414-3.039,9.084C209.513-143.499,205.449-144.859,203.78-148.206z"/>
<path fill="#FFFFFF" d="M203.066-162.255c-0.987-1.979-0.181-4.386,1.797-5.373c1.979-0.986,4.387-0.185,5.373,1.799
	c0.987,1.977,0.182,4.381-1.793,5.369C206.459-159.471,204.053-160.276,203.066-162.255z"/>
<path fill="#FFFFFF" d="M194.287-137.469c-0.988-1.979-0.182-4.386,1.796-5.373c1.979-0.986,4.387-0.185,5.373,1.799
	c0.988,1.977,0.182,4.381-1.793,5.369C197.679-134.684,195.274-135.49,194.287-137.469z"/>
<path fill="#FFFFFF" d="M170.063-128.897c-4.483-5.448-3.702-13.493,1.74-17.975c5.445-4.48,13.49-3.703,17.974,1.74
	c4.48,5.442,3.704,13.492-1.74,17.977C182.594-122.673,174.545-123.451,170.063-128.897z"/>
<path fill="#FFFFFF" d="M33.531,126.643c4.664,0.499,8.038,4.688,7.539,9.353c-0.501,4.667-4.694,8.041-9.355,7.54
	c-4.667-0.503-8.039-4.689-7.541-9.354C24.678,129.515,28.865,126.141,33.531,126.643z"/>
<path fill="#FFFFFF" d="M14.773,132.327c5.967,0.64,10.279,5.993,9.636,11.952c-0.64,5.965-5.991,10.278-11.954,9.639
	c-5.964-0.642-10.277-5.993-9.639-11.955C3.456,136,8.811,131.684,14.773,132.327z"/>
<path fill="#FFFFFF" d="M28.524,143.072c3.715,0.399,6.403,3.736,6.008,7.451c-0.399,3.72-3.743,6.41-7.457,6.014
	c-3.72-0.404-6.407-3.741-6.01-7.459C21.467,145.362,24.804,142.672,28.524,143.072z"/>
<path fill="#FFFFFF" d="M40.996,142.53c2.2,0.234,3.791,2.211,3.557,4.409c-0.238,2.2-2.212,3.793-4.411,3.555
	c-2.199-0.232-3.79-2.212-3.557-4.408C36.821,143.883,38.798,142.293,40.996,142.53z"/>
<path fill="#FFFFFF" d="M11.44,153.042c2.199,0.235,3.789,2.212,3.556,4.41c-0.237,2.199-2.211,3.792-4.412,3.554
	c-2.197-0.234-3.788-2.209-3.555-4.405C7.264,154.396,9.24,152.804,11.44,153.042z"/>
<path fill="#FFFFFF" d="M-10.982,135.908c7.009-0.837,13.359,4.16,14.196,11.16c0.836,7.002-4.158,13.354-11.159,14.194
	c-7.002,0.837-13.358-4.158-14.198-11.161C-22.981,143.102-17.984,136.746-10.982,135.908z"/>
<path fill="#FFFFFF" d="M77.843-438.866c3.328-3.6,8.94-3.819,12.542-0.489c3.597,3.327,3.818,8.942,0.487,12.542
	c-3.324,3.596-8.943,3.817-12.539,0.489C74.736-429.655,74.513-435.27,77.843-438.866z"/>
<path fill="#FFFFFF" d="M74.328-461.293c4.254-4.604,11.433-4.884,16.031-0.629c4.603,4.254,4.881,11.432,0.626,16.031
	c-4.252,4.601-11.433,4.883-16.029,0.628C70.353-449.517,70.072-456.696,74.328-461.293z"/>
<path fill="#FFFFFF" d="M89.62-445.584c1.566-1.698,4.219-1.802,5.913-0.232c1.696,1.568,1.803,4.218,0.23,5.912
	c-1.566,1.699-4.215,1.8-5.911,0.234C88.153-441.241,88.052-443.892,89.62-445.584z"/>
<path fill="#FFFFFF" d="M99.303-510.448c1.567-1.698,4.219-1.802,5.913-0.232c1.697,1.568,1.803,4.219,0.231,5.912
	c-1.567,1.699-4.216,1.801-5.911,0.234C97.836-506.105,97.737-508.754,99.303-510.448z"/>
<path fill="#FFFFFF" d="M94.28-518.676c-1.375-4.705,1.323-9.632,6.032-11.008c4.703-1.372,9.634,1.326,11.007,6.035
	c1.371,4.7-1.327,9.633-6.032,11.004C100.579-511.272,95.652-513.969,94.28-518.676z"/>
<path fill="#FFFFFF" d="M77.392-531.383c-0.247-6.264,4.631-11.537,10.892-11.78c6.263-0.246,11.535,4.632,11.778,10.894
	c0.246,6.26-4.631,11.536-10.89,11.778C82.91-520.245,77.633-525.122,77.392-531.383z"/>
<path fill="#FFFFFF" d="M101.842-537.937c-0.093-2.309,1.709-4.257,4.018-4.346c2.31-0.091,4.258,1.708,4.345,4.018
	c0.093,2.311-1.708,4.254-4.016,4.346C103.876-533.827,101.931-535.63,101.842-537.937z"/>
<path fill="#FFFFFF" d="M63.929-395.531c2.514-3.962,7.762-5.133,11.725-2.619c3.963,2.517,5.132,7.77,2.617,11.728
	c-2.518,3.962-7.764,5.131-11.728,2.619C62.584-386.322,61.414-391.57,63.929-395.531z"/>
<path fill="#FFFFFF" d="M60.718-376.197c3.216-5.064,9.926-6.563,14.984-3.347c5.064,3.214,6.563,9.924,3.35,14.985
	c-3.216,5.063-9.925,6.563-14.988,3.35C59.001-364.422,57.503-371.134,60.718-376.197z"/>
<path fill="#FFFFFF" d="M76.443-383.768c2.004-3.152,6.187-4.087,9.342-2.087c3.158,2.006,4.092,6.194,2.091,9.35
	c-2.009,3.155-6.192,4.089-9.35,2.086C75.371-376.426,74.437-380.61,76.443-383.768z"/>
<path fill="#FFFFFF" d="M81.479-395.191c1.188-1.869,3.662-2.42,5.528-1.235c1.868,1.188,2.423,3.663,1.235,5.529
	c-1.185,1.868-3.662,2.418-5.528,1.237C80.843-390.847,80.294-393.325,81.479-395.191z"/>
<path fill="#FFFFFF" d="M77.819-364.035c1.185-1.867,3.661-2.418,5.527-1.235c1.867,1.188,2.422,3.662,1.233,5.53
	c-1.184,1.867-3.658,2.417-5.524,1.236C77.183-359.692,76.631-362.166,77.819-364.035z"/>
<path fill="#FFFFFF" d="M68.396-417.931c4.134-6.507,12.752-8.432,19.257-4.303c6.504,4.133,8.43,12.753,4.302,19.256
	c-4.132,6.506-12.755,8.434-19.26,4.302C66.19-402.8,64.265-411.427,68.396-417.931z"/>
<path fill="#FFFFFF" d="M33.781-442.077c-3.328,3.6-8.94,3.819-12.542,0.489c-3.598-3.327-3.818-8.942-0.487-12.542
	c3.324-3.596,8.943-3.817,12.539-0.489C36.889-451.289,37.112-445.673,33.781-442.077z"/>
<path fill="#FFFFFF" d="M37.296-419.65c-4.254,4.604-11.433,4.884-16.031,0.629c-4.603-4.254-4.881-11.432-0.626-16.031
	c4.252-4.601,11.433-4.883,16.029-0.629C41.271-431.426,41.553-424.248,37.296-419.65z"/>
<path fill="#FFFFFF" d="M22.004-435.359c-1.567,1.698-4.219,1.802-5.913,0.232c-1.697-1.568-1.803-4.218-0.23-5.912
	c1.566-1.699,4.215-1.8,5.91-0.234C23.472-439.702,23.573-437.051,22.004-435.359z"/>
<path fill="#FFFFFF" d="M60.774-460.159c-2.513,3.962-7.762,5.133-11.724,2.619c-3.963-2.517-5.132-7.77-2.618-11.728
	c2.519-3.962,7.765-5.131,11.729-2.618C62.12-469.368,63.29-464.12,60.774-460.159z"/>
<path fill="#FFFFFF" d="M50.906-504.747c-3.217,5.064-9.927,6.563-14.984,3.347c-5.065-3.214-6.563-9.924-3.35-14.985
	c3.216-5.063,9.925-6.563,14.987-3.35C52.624-516.521,54.122-509.809,50.906-504.747z"/>
<path fill="#FFFFFF" d="M35.182-497.175c-2.004,3.152-6.187,4.087-9.342,2.087c-3.158-2.006-4.092-6.194-2.091-9.35
	c2.009-3.155,6.191-4.089,9.35-2.086C36.254-504.517,37.187-500.333,35.182-497.175z"/>
<path fill="#FFFFFF" d="M46.472-485.079c-2.004,3.153-6.187,4.087-9.342,2.087c-3.158-2.006-4.092-6.194-2.091-9.349
	c2.009-3.156,6.191-4.09,9.35-2.086C47.544-492.419,48.477-488.238,46.472-485.079z"/>
<path fill="#FFFFFF" d="M30.145-485.752c-1.187,1.869-3.661,2.42-5.527,1.235c-1.868-1.188-2.423-3.664-1.235-5.529
	c1.184-1.868,3.662-2.418,5.528-1.237C30.781-490.097,31.331-487.618,30.145-485.752z"/>
<path fill="#FFFFFF" d="M43.228-463.013c-4.133,6.508-12.752,8.433-19.256,4.304c-6.504-4.133-8.43-12.753-4.302-19.256
	c4.132-6.507,12.755-8.434,19.26-4.302C45.434-478.143,47.36-469.516,43.228-463.013z"/>
<path fill="#FFFFFF" d="M52.527-351.518c2.353-6.652,9.646-10.138,16.293-7.788c6.647,2.353,10.136,9.644,7.786,16.291
	c-2.349,6.648-9.643,10.14-16.295,7.789C53.666-337.573,50.175-344.868,52.527-351.518z"/>
<path fill="#FFFFFF" d="M52.854-540.74c2.354-6.653,9.646-10.138,16.293-7.788c6.648,2.353,10.137,9.644,7.787,16.291
	c-2.349,6.648-9.643,10.139-16.295,7.789C53.994-526.793,50.504-534.089,52.854-540.74z"/>
<path fill="#FFFFFF" d="M-24.123-67.523c0.76-8.147,7.981-14.137,16.129-13.374C0.157-80.133,6.144-72.91,5.382-64.766
	c-0.764,8.147-7.983,14.133-16.133,13.377C-18.899-52.157-24.887-59.375-24.123-67.523z"/>
<path fill="#FFFFFF" d="M-13.76-34.948c0.973-10.418,10.203-18.07,20.616-17.096c10.416,0.971,18.066,10.205,17.095,20.62
	C22.978-21.011,13.746-13.359,3.335-14.331C-7.081-15.303-14.736-24.535-13.76-34.948z"/>
<path fill="#FFFFFF" d="M4.65-59.189c0.608-6.485,6.361-11.258,12.854-10.656c6.492,0.608,11.268,6.374,10.666,12.86
	c-0.616,6.493-6.372,11.264-12.864,10.657C8.814-46.938,4.04-52.692,4.65-59.189z"/>
<path fill="#FFFFFF" d="M-82.348-142.427c0.608-6.486,6.361-11.259,12.854-10.657c6.492,0.608,11.269,6.374,10.666,12.861
	c-0.616,6.492-6.372,11.263-12.863,10.656C-78.184-130.177-82.958-135.93-82.348-142.427z"/>
<path fill="#FFFFFF" d="M3.405-80.925c0.356-3.845,3.768-6.666,7.603-6.311c3.844,0.361,6.669,3.769,6.307,7.608
	c-0.354,3.841-3.764,6.661-7.6,6.306C5.867-73.678,3.046-77.088,3.405-80.925z"/>
<path fill="#FFFFFF" d="M-21.05-91.044c0.357-3.845,3.768-6.666,7.603-6.31c3.845,0.36,6.669,3.768,6.308,7.607
	c-0.354,3.841-3.765,6.661-7.601,6.306C-18.587-83.797-21.409-87.208-21.05-91.044z"/>
<path fill="#FFFFFF" d="M9.934-129.6c0.667-5.776,5.893-9.912,11.667-9.244c5.777,0.67,9.914,5.899,9.244,11.673
	c-0.673,5.776-5.896,9.909-11.673,9.245C13.396-118.6,9.261-123.825,9.934-129.6z"/>
<path fill="#FFFFFF" d="M16.775-106.298c0.857-7.386,7.535-12.674,14.913-11.813c7.386,0.854,12.676,7.533,11.818,14.915
	c-0.858,7.384-7.535,12.671-14.917,11.816C21.207-92.238,15.916-98.918,16.775-106.298z"/>
<path fill="#FFFFFF" d="M20.94-74.348c-0.962-8.691,5.297-16.512,13.979-17.474c8.686-0.962,16.507,5.293,17.472,13.978
	c0.964,8.684-5.292,16.511-13.979,17.477C29.73-59.405,21.905-65.663,20.94-74.348z"/>
<path fill="#FFFFFF" d="M49.508-99.891c4.233-4.252,11.108-4.267,15.354-0.035c4.253,4.23,4.269,11.105,0.037,15.355
	c-4.231,4.251-11.106,4.267-15.357,0.036S45.278-95.642,49.508-99.891z"/>
<path fill="#FFFFFF" d="M-77.57,62.068c-1.364-4.709,1.345-9.629,6.056-10.994c4.707-1.363,9.631,1.346,10.994,6.057
	c1.361,4.703-1.349,9.631-6.056,10.992C-71.285,69.486-76.208,66.777-77.57,62.068z"/>
<path fill="#FFFFFF" d="M-98.593,53.501c-1.746-6.021,1.719-12.313,7.736-14.055c6.02-1.746,12.311,1.721,14.055,7.739
	c1.744,6.017-1.721,12.312-7.736,14.054C-90.557,62.986-96.851,59.521-98.593,53.501z"/>
<path fill="#FFFFFF" d="M-77.246,48.512c-0.645-2.219,0.635-4.543,2.854-5.184c2.22-0.646,4.543,0.633,5.184,2.854
	c0.646,2.22-0.635,4.539-2.852,5.185C-74.283,52.012-76.603,50.73-77.246,48.512z"/>
<path fill="#FFFFFF" d="M32.971,125.551c-1.685-5.813,1.658-11.885,7.475-13.57c5.81-1.683,11.887,1.661,13.568,7.477
	c1.683,5.805-1.663,11.887-7.474,13.567C40.729,134.707,34.653,131.363,32.971,125.551z"/>
<path fill="#FFFFFF" d="M7.024,114.976c-2.155-7.43,2.121-15.195,9.549-17.347c7.43-2.155,15.193,2.124,17.347,9.554
	c2.153,7.426-2.124,15.194-9.549,17.346C16.94,126.683,9.171,122.407,7.024,114.976z"/>
<path fill="#FFFFFF" d="M33.372,108.821c-0.796-2.738,0.783-5.607,3.521-6.398c2.74-0.795,5.607,0.781,6.398,3.522
	c0.797,2.737-0.784,5.603-3.521,6.396C37.03,113.139,34.164,111.556,33.372,108.821z"/>
<path fill="#FFFFFF" d="M-47.636,96.355c-2.096-4.197-0.39-9.298,3.809-11.394c4.2-2.096,9.304-0.385,11.396,3.812
	c2.094,4.2,0.387,9.299-3.812,11.396C-40.444,102.26-45.543,100.553-47.636,96.355z"/>
<path fill="#FFFFFF" d="M-32.735,109.085c-2.679-5.369-0.496-11.889,4.868-14.561c5.367-2.681,11.889-0.5,14.564,4.866
	c2.676,5.367,0.496,11.888-4.869,14.564C-23.538,116.634-30.059,114.453-32.735,109.085z"/>
<path fill="#FFFFFF" d="M-31.102,91.71c-1.666-3.344-0.308-7.408,3.035-9.078c3.348-1.67,7.417-0.307,9.086,3.035
	c1.666,3.35,0.306,7.414-3.04,9.084C-25.369,96.417-29.432,95.057-31.102,91.71z"/>
<path fill="#FFFFFF" d="M56.8,137.677c-1.666-3.344-0.307-7.408,3.035-9.078c3.348-1.67,7.417-0.307,9.086,3.035
	c1.666,3.351,0.306,7.414-3.04,9.084C62.535,142.385,58.47,141.026,56.8,137.677z"/>
<path fill="#FFFFFF" d="M-86.792,120.672c-2.096-4.197-0.39-9.297,3.81-11.393c4.199-2.097,9.303-0.386,11.396,3.811
	c2.094,4.201,0.387,9.299-3.811,11.396C-79.598,126.579-84.699,124.872-86.792,120.672z"/>
<path fill="#FFFFFF" d="M-71.889,133.403c-2.68-5.369-0.497-11.89,4.868-14.562c5.366-2.68,11.888-0.5,14.563,4.867
	s0.496,11.887-4.869,14.564C-62.694,140.952-69.215,138.769-71.889,133.403z"/>
<path fill="#FFFFFF" d="M-63.711,100.235c-1.666-3.345-0.307-7.408,3.035-9.078c3.348-1.67,7.417-0.308,9.086,3.035
	c1.666,3.35,0.306,7.413-3.04,9.084C-57.976,104.942-62.041,103.583-63.711,100.235z"/>
<path fill="#FFFFFF" d="M-38.287,81.5c-0.987-1.98-0.182-4.385,1.795-5.373c1.982-0.986,4.39-0.184,5.374,1.797
	c0.989,1.979,0.182,4.385-1.794,5.373C-34.893,84.287-37.3,83.477-38.287,81.5z"/>
<path fill="#FFFFFF" d="M-13.493,100.718c-0.987-1.979-0.181-4.385,1.796-5.373c1.98-0.985,4.388-0.184,5.373,1.8
	c0.988,1.977,0.183,4.381-1.793,5.368C-10.099,103.503-12.505,102.699-13.493,100.718z"/>
<path fill="#FFFFFF" d="M-64.515,80.966c-3.439-6.897-0.64-15.272,6.255-18.713c6.896-3.438,15.272-0.637,18.713,6.256
	c3.438,6.896,0.638,15.277-6.259,18.715C-52.697,90.666-61.079,87.861-64.515,80.966z"/>
<path fill="#FFFFFF" d="M-55.151,120.299c-3.439-6.897-0.64-15.272,6.255-18.713c6.896-3.438,15.272-0.637,18.713,6.256
	c3.438,6.896,0.638,15.277-6.259,18.715C-43.332,129.999-51.714,127.194-55.151,120.299z"/>
<path fill="#FFFFFF" d="M-91.474,141.276c-2.097-4.197-0.391-9.298,3.809-11.394c4.2-2.096,9.303-0.385,11.396,3.812
	c2.094,4.2,0.387,9.299-3.812,11.396C-84.282,147.181-89.381,145.474-91.474,141.276z"/>
<path fill="#FFFFFF" d="M-97.108,122.673c-0.988-1.979-0.183-4.385,1.795-5.373c1.981-0.985,4.389-0.184,5.374,1.797
	c0.988,1.979,0.181,4.386-1.794,5.373C-93.716,125.46-96.122,124.652-97.108,122.673z"/>
<path fill="#FFFFFF" d="M-123.338,122.139c-3.438-6.897-0.639-15.272,6.255-18.713c6.896-3.438,15.273-0.637,18.713,6.256
	c3.438,6.896,0.639,15.277-6.259,18.716C-111.518,131.839-119.9,129.035-123.338,122.139z"/>
<path fill="#FFFFFF" d="M-15.828,128.841c-4.483-5.449-3.703-13.494,1.74-17.975c5.445-4.48,13.49-3.703,17.973,1.74
	c4.481,5.442,3.705,13.491-1.739,17.977C-3.296,135.064-11.345,134.287-15.828,128.841z"/>
<path fill="#FFFFFF" d="M-50.667,154.812c-5.694-6.919-4.703-17.135,2.209-22.823c6.915-5.689,17.131-4.702,22.822,2.21
	c5.689,6.912,4.705,17.132-2.21,22.827C-34.755,162.715-44.976,161.727-50.667,154.812z"/>
<path fill="#FFFFFF" d="M-159.335,87.449c-2.679-5.369-0.497-11.89,4.868-14.562c5.367-2.68,11.888-0.5,14.563,4.867
	c2.677,5.367,0.496,11.887-4.868,14.564C-150.138,94.998-156.661,92.816-159.335,87.449z"/>
<path fill="#FFFFFF" d="M-157.704,70.074c-1.666-3.344-0.307-7.408,3.035-9.078c3.348-1.67,7.417-0.307,9.086,3.035
	c1.666,3.35,0.307,7.414-3.04,9.084C-151.969,74.781-156.034,73.421-157.704,70.074z"/>
<path fill="#FFFFFF" d="M-140.093,79.082c-0.988-1.979-0.181-4.385,1.796-5.373c1.98-0.986,4.387-0.184,5.373,1.799
	c0.988,1.978,0.182,4.381-1.793,5.369C-136.701,81.867-139.105,81.062-140.093,79.082z"/>
<path fill="#FFFFFF" d="M-142.427,107.205c-4.484-5.449-3.703-13.494,1.74-17.975c5.444-4.48,13.489-3.703,17.973,1.739
	c4.481,5.443,3.705,13.492-1.74,17.978C-129.896,113.427-137.947,112.65-142.427,107.205z"/>
<path fill="#FFFFFF" d="M-115.673,64.998c-1.528-5.339,1.563-10.902,6.901-12.427c5.338-1.532,10.902,1.562,12.429,6.899
	c1.528,5.337-1.563,10.904-6.902,12.431C-108.584,73.428-114.146,70.336-115.673,64.998z"/>
<path fill="#FFFFFF" d="M-124.673,92.998c-1.528-5.339,1.563-10.902,6.901-12.427c5.338-1.532,10.902,1.562,12.429,6.899
	c1.528,5.337-1.563,10.904-6.902,12.431C-117.584,101.428-123.146,98.336-124.673,92.998z"/>
<path fill="#FFFFFF" d="M-148.021,56.603c-1.529-5.339,1.562-10.903,6.898-12.429c5.338-1.534,10.903,1.563,12.429,6.899
	c1.527,5.338-1.561,10.906-6.901,12.431C-140.934,65.032-146.498,61.941-148.021,56.603z"/>
<path fill="#FFFFFF" d="M-120.913,76.603c-0.938-3.278,0.964-6.694,4.236-7.634c3.28-0.936,6.7,0.962,7.635,4.24
	c0.94,3.277-0.962,6.693-4.235,7.632C-116.559,81.781-119.975,79.88-120.913,76.603z"/>
<path fill="#FFFFFF" d="M-128.681,61.959c-0.94-3.279,0.961-6.698,4.234-7.635c3.28-0.936,6.699,0.959,7.635,4.238
	c0.939,3.277-0.962,6.691-4.233,7.631C-124.329,67.135-127.745,65.234-128.681,61.959z"/>
<path fill="#FFFFFF" d="M-134.684,73.246c-0.94-3.279,0.961-6.698,4.234-7.635c3.28-0.936,6.699,0.959,7.635,4.238
	c0.939,3.277-0.963,6.691-4.233,7.631C-130.331,78.421-133.747,76.519-134.684,73.246z"/>
<path fill="#FFFFFF" d="M-61.359,10.411c-3.439-6.898-0.64-15.273,6.255-18.713c6.896-3.438,15.272-0.638,18.713,6.256
	c3.438,6.896,0.638,15.276-6.259,18.715C-49.54,20.11-57.922,17.304-61.359,10.411z"/>
<path fill="#FFFFFF" d="M-97.356-24.281c-2.68-5.369-0.497-11.889,4.867-14.561c5.367-2.68,11.889-0.5,14.564,4.867
	c2.676,5.366,0.496,11.887-4.869,14.563C-88.161-16.733-94.681-18.914-97.356-24.281z"/>
<path fill="#FFFFFF" d="M-178.001-87.991c-2.679-5.369-0.497-11.889,4.868-14.561c5.367-2.681,11.888-0.5,14.563,4.867
	c2.677,5.366,0.496,11.887-4.868,14.563C-168.804-80.443-175.327-82.624-178.001-87.991z"/>
<path fill="#FFFFFF" d="M-106.344-40.842c-1.666-3.344-0.307-7.408,3.035-9.078c3.348-1.67,7.417-0.307,9.086,3.035
	c1.666,3.35,0.306,7.414-3.04,9.084C-100.609-36.135-104.674-37.495-106.344-40.842z"/>
<path fill="#FFFFFF" d="M-78.115-32.649c-0.987-1.979-0.181-4.385,1.796-5.373c1.98-0.985,4.388-0.184,5.373,1.8
	c0.988,1.977,0.183,4.381-1.793,5.369C-74.721-29.864-77.127-30.667-78.115-32.649z"/>
<path fill="#FFFFFF" d="M-145.141-117.763c-0.988-1.979-0.182-4.386,1.796-5.373c1.979-0.986,4.387-0.185,5.373,1.799
	c0.988,1.977,0.182,4.381-1.793,5.369C-141.749-114.978-144.155-115.783-145.141-117.763z"/>
<path fill="#FFFFFF" d="M-225.787-72.602c-0.987-1.979-0.181-4.386,1.796-5.373c1.98-0.986,4.388-0.185,5.373,1.799
	c0.988,1.977,0.183,4.381-1.793,5.369C-222.393-69.818-224.799-70.622-225.787-72.602z"/>
<path fill="#FFFFFF" d="M-80.45-4.526c-4.483-5.448-3.703-13.494,1.74-17.975c5.445-4.48,13.49-3.703,17.973,1.74
	c4.481,5.442,3.705,13.492-1.739,17.977C-67.918,1.698-75.968,0.92-80.45-4.526z"/>
<path fill="#FFFFFF" d="M-62.695-18.733c-1.527-5.339,1.563-10.901,6.901-12.427c5.338-1.532,10.903,1.563,12.429,6.9
	c1.528,5.337-1.562,10.903-6.901,12.43C-55.605-10.3-61.168-13.393-62.695-18.733z"/>
<path fill="#FFFFFF" d="M-58.934-35.125c-0.938-3.279,0.964-6.695,4.235-7.634c3.28-0.937,6.7,0.962,7.636,4.24
	c0.939,3.276-0.962,6.692-4.235,7.632C-54.581-29.949-57.997-31.849-58.934-35.125z"/>
<path fill="#FFFFFF" d="M-71.019-33.424c-0.94-3.279,0.961-6.698,4.234-7.635c3.28-0.936,6.699,0.959,7.635,4.238
	c0.939,3.277-0.963,6.691-4.233,7.63C-66.666-28.249-70.082-30.151-71.019-33.424z"/>
<path fill="#FFFFFF" d="M-155.698-97.134c-0.939-3.279,0.961-6.698,4.235-7.635c3.28-0.936,6.699,0.959,7.634,4.238
	c0.94,3.277-0.962,6.691-4.232,7.63C-151.344-91.958-154.76-93.861-155.698-97.134z"/>
<path fill="#FFFFFF" d="M-184.948,25.425c-0.938-3.278,0.962-6.699,4.236-7.635c3.279-0.935,6.699,0.96,7.634,4.239
	c0.94,3.275-0.962,6.691-4.233,7.634C-180.594,30.6-184.01,28.699-184.948,25.425z"/>
<path fill="#FFFFFF" d="M-106.27,91.215c-3.267-11.419,3.344-23.321,14.762-26.583c11.418-3.265,23.319,3.343,26.586,14.76
	c3.262,11.414-3.345,23.323-14.766,26.589C-91.099,109.248-103.007,102.633-106.27,91.215z"/>
<path fill="#FFFFFF" d="M22.777,3.884c-1.365-4.709,1.344-9.629,6.055-10.994c4.707-1.362,9.631,1.347,10.994,6.058
	c1.361,4.703-1.349,9.631-6.056,10.992C29.061,11.302,24.137,8.593,22.777,3.884z"/>
<path fill="#FFFFFF" d="M115.242-95.306c-1.365-4.709,1.344-9.629,6.055-10.994c4.707-1.363,9.631,1.346,10.994,6.057
	c1.362,4.703-1.348,9.631-6.055,10.992C121.528-87.888,116.603-90.597,115.242-95.306z"/>
<path fill="#FFFFFF" d="M-2.463-1.732c-1.746-6.02,1.719-12.313,7.736-14.055c6.02-1.746,12.311,1.721,14.055,7.74
	c1.744,6.016-1.722,12.311-7.736,14.053C5.573,7.753-0.721,4.289-2.463-1.732z"/>
<path fill="#FFFFFF" d="M23.1-9.67c-0.645-2.219,0.636-4.543,2.854-5.184c2.22-0.646,4.543,0.633,5.184,2.854
	c0.646,2.219-0.635,4.539-2.852,5.184C26.063-6.17,23.742-7.454,23.1-9.67z"/>
<path fill="#FFFFFF" d="M52.709,38.171c-2.096-4.197-0.39-9.297,3.809-11.393c4.2-2.097,9.304-0.386,11.396,3.811
	c2.094,4.201,0.387,9.299-3.812,11.396C59.903,44.078,54.802,42.371,52.709,38.171z"/>
<path fill="#FFFFFF" d="M36.634,42.051c-1.666-3.344-0.307-7.408,3.035-9.078c3.348-1.67,7.417-0.307,9.086,3.035
	c1.666,3.35,0.306,7.414-3.04,9.084C42.369,46.758,38.304,45.399,36.634,42.051z"/>
<path fill="#FFFFFF" d="M35.83,22.783c-3.439-6.898-0.64-15.273,6.255-18.713c6.896-3.438,15.273-0.638,18.713,6.256
	c3.438,6.896,0.638,15.276-6.259,18.715C47.649,32.482,39.267,29.677,35.83,22.783z"/>
<path fill="#FFFFFF" d="M-1.375,32.815C-4.435,22.112,1.76,10.955,12.462,7.898c10.702-3.062,21.857,3.133,24.92,13.835
	c3.057,10.697-3.135,21.86-13.841,24.921C12.845,49.717,1.685,43.516-1.375,32.815z"/>
<path fill="#FFFFFF" d="M51.968,0.503c-3.061-10.703,3.135-21.86,13.837-24.917c10.702-3.061,21.857,3.133,24.92,13.835
	c3.058,10.698-3.135,21.861-13.841,24.921C66.189,17.406,55.029,11.206,51.968,0.503z"/>
<path fill="#FFFFFF" d="M24.549-387.401c-3.061-10.703,3.135-21.859,13.837-24.917c10.702-3.061,21.857,3.133,24.92,13.835
	c3.058,10.698-3.135,21.861-13.841,24.921C38.77-370.498,27.61-376.698,24.549-387.401z"/>
<path fill="#FFFFFF" d="M12.087-152.187c-5.2-18.18,5.322-37.128,23.499-42.319c18.178-5.198,37.124,5.321,42.326,23.497
	c5.191,18.172-5.326,37.132-23.507,42.328C36.24-123.478,17.282-134.008,12.087-152.187z"/>
<path fill="#FFFFFF" d="M-156.119,0.797c-5.2-18.18,5.322-37.128,23.499-42.32c18.179-5.197,37.124,5.322,42.326,23.497
	c5.192,18.173-5.326,37.133-23.507,42.328C-131.967,29.505-150.924,18.974-156.119,0.797z"/>
<path fill="#FFFFFF" d="M109.82-162.4c-5.542-19.376,5.673-39.571,25.045-45.104c19.374-5.54,39.566,5.673,45.11,25.043
	c5.534,19.368-5.677,39.575-25.054,45.113C135.559-131.802,115.355-143.027,109.82-162.4z"/>
<path fill="#FFFFFF" d="M43.582-496.167c-2.734-9.563,2.8-19.528,12.36-22.259c9.563-2.734,19.526,2.799,22.264,12.357
	c2.729,9.56-2.802,19.531-12.365,22.264C56.285-481.068,46.314-486.607,43.582-496.167z"/>
<path fill="#FFFFFF" d="M-15.07,80.009c-4.163-14.559,4.263-29.731,18.817-33.89c14.558-4.163,29.729,4.262,33.896,18.815
	C41.8,79.487,33.377,94.669,18.82,98.831C4.271,102.999-10.911,94.566-15.07,80.009z"/>
<path fill="#FFFFFF" d="M-115.134-170.41c-4.164-14.559,4.262-29.732,18.817-33.89c14.558-4.163,29.729,4.262,33.896,18.815
	c4.157,14.552-4.266,29.734-18.824,33.896C-95.794-147.42-110.974-155.854-115.134-170.41z"/>
<path fill="#FFFFFF" d="M67.124-213.958c-4.164-14.56,4.262-29.732,18.816-33.891c14.559-4.163,29.729,4.263,33.896,18.816
	c4.157,14.552-4.266,29.734-18.824,33.896C86.463-190.97,71.283-199.403,67.124-213.958z"/>
<path fill="#FFFFFF" d="M71.962-48.636c-4.164-14.56,4.262-29.732,18.817-33.891c14.558-4.163,29.729,4.263,33.896,18.816
	c4.157,14.552-4.266,29.734-18.824,33.896C91.302-25.648,76.122-34.08,71.962-48.636z"/>
<path fill="#FFFFFF" d="M-20.375-138.117c-2.223-6.882-9.601-10.659-16.483-8.433c-6.88,2.228-10.655,9.605-8.433,16.49
	c2.228,6.871,9.608,10.651,16.488,8.428C-21.922-123.86-18.148-131.238-20.375-138.117z"/>
<path fill="#FFFFFF" d="M-78.439-121.988c-2.224-6.882-9.602-10.659-16.484-8.433c-6.879,2.228-10.655,9.605-8.432,16.49
	c2.227,6.872,9.607,10.651,16.487,8.428C-79.987-107.729-76.213-115.108-78.439-121.988z"/>
<path fill="#FFFFFF" d="M-25.197-178.388c-2.842-8.802-12.273-13.624-21.066-10.78c-8.799,2.842-13.62,12.277-10.779,21.073
	c2.844,8.794,12.278,13.619,21.07,10.779C-27.177-160.162-22.349-169.597-25.197-178.388z"/>
<path fill="#FFFFFF" d="M-45.736-195.751c-1.772-5.479-7.652-8.488-13.136-6.723c-5.482,1.776-8.492,7.664-6.725,13.146
	c1.775,5.481,7.661,8.489,13.145,6.718C-46.971-184.389-43.962-190.268-45.736-195.751z"/>
<path fill="#FFFFFF" d="M-38.827-153.284c-1.049-3.246-4.529-5.021-7.771-3.977c-3.245,1.051-5.026,4.529-3.975,7.774
	c1.044,3.242,4.526,5.021,7.768,3.979C-39.556-146.561-37.778-150.041-38.827-153.284z"/>
<path fill="#FFFFFF" d="M-81.65-141.612c-1.05-3.246-4.53-5.021-7.772-3.977c-3.245,1.051-5.026,4.53-3.974,7.774
	c1.044,3.242,4.525,5.021,7.767,3.979C-82.381-134.888-80.601-138.368-81.65-141.612z"/>
<path fill="#FFFFFF" d="M15.708-101.478c-2.223-6.883-9.601-10.659-16.483-8.434c-6.88,2.229-10.655,9.606-8.433,16.49
	c2.228,6.872,9.608,10.652,16.488,8.428C14.161-87.22,17.934-94.598,15.708-101.478z"/>
<path fill="#FFFFFF" d="M13.559-171.838c-2.222-6.879-9.604-10.654-16.481-8.433c-6.884,2.228-10.656,9.608-8.434,16.484
	c2.226,6.885,9.604,10.654,16.486,8.434C12.011-157.58,15.784-164.958,13.559-171.838z"/>
<path fill="#FFFFFF" d="M67.462-311.585c-2.222-6.879-9.604-10.654-16.482-8.433c-6.884,2.228-10.655,9.608-8.434,16.484
	c2.226,6.885,9.604,10.654,16.487,8.434C65.914-297.327,69.686-304.705,67.462-311.585z"/>
<path fill="#FFFFFF" d="M10.886-141.749c-2.842-8.802-12.273-13.624-21.066-10.781c-8.799,2.842-13.62,12.278-10.779,21.074
	c2.844,8.793,12.278,13.619,21.07,10.779C8.906-123.524,13.734-132.958,10.886-141.749z"/>
<path fill="#FFFFFF" d="M-9.653-159.114c-1.772-5.479-7.652-8.488-13.136-6.722c-5.482,1.775-8.492,7.664-6.725,13.145
	c1.775,5.482,7.661,8.489,13.145,6.719C-10.888-147.749-7.879-153.628-9.653-159.114z"/>
<path fill="#FFFFFF" d="M-12.76-178.105c-1.047-3.243-4.53-5.021-7.771-3.977c-3.243,1.052-5.027,4.533-3.977,7.776
	c1.046,3.241,4.529,5.021,7.77,3.977C-13.49-171.377-11.713-174.863-12.76-178.105z"/>
<path fill="#FFFFFF" d="M68.962-274.506c-1.305-4.043-5.646-6.262-9.688-4.957c-4.045,1.312-6.269,5.65-4.956,9.694
	c1.304,4.04,5.646,6.257,9.685,4.955C68.055-266.122,70.269-270.464,68.962-274.506z"/>
<path fill="#FFFFFF" d="M59.381-221.194c-1.047-3.243-4.53-5.021-7.771-3.977c-3.244,1.052-5.028,4.532-3.978,7.776
	c1.046,3.241,4.529,5.021,7.771,3.977C58.654-214.466,60.429-217.951,59.381-221.194z"/>
<path fill="#FFFFFF" d="M-2.744-116.645c-1.049-3.246-4.529-5.021-7.771-3.978c-3.245,1.051-5.026,4.53-3.975,7.775
	c1.044,3.241,4.526,5.021,7.768,3.978C-3.473-109.922-1.695-113.403-2.744-116.645z"/>
<path fill="#FFFFFF" d="M1.042-198.145c-2.223-6.882-9.601-10.659-16.483-8.433c-6.88,2.228-10.655,9.605-8.433,16.49
	c2.228,6.872,9.608,10.651,16.488,8.428C-0.505-183.887,3.269-191.265,1.042-198.145z"/>
<path fill="#FFFFFF" d="M-32.152-92.512c-4.627-1.617-7.064-6.681-5.444-11.308c1.617-4.631,6.683-7.065,11.307-5.447
	c4.629,1.619,7.064,6.682,5.447,11.311C-22.465-93.33-27.525-90.892-32.152-92.512z"/>
<path fill="#FFFFFF" d="M-77.552-84.561c-4.627-1.617-7.065-6.681-5.445-11.308c1.617-4.631,6.684-7.065,11.308-5.448
	c4.629,1.62,7.063,6.683,5.446,11.312C-67.866-85.378-72.926-82.942-77.552-84.561z"/>
<path fill="#FFFFFF" d="M-129.165-99.883c-4.627-1.617-7.064-6.681-5.444-11.308c1.616-4.631,6.683-7.065,11.307-5.447
	c4.629,1.62,7.063,6.682,5.447,11.311C-119.478-100.701-124.539-98.263-129.165-99.883z"/>
<path fill="#FFFFFF" d="M-23.153-108.035c-3.683-1.292-5.626-5.325-4.341-9.013c1.294-3.688,5.334-5.631,9.021-4.344
	c3.684,1.296,5.624,5.331,4.335,9.018C-15.427-108.687-19.464-106.743-23.153-108.035z"/>
<path fill="#FFFFFF" d="M-62.442-151.583c-3.684-1.292-5.627-5.325-4.342-9.014c1.294-3.687,5.334-5.631,9.021-4.344
	c3.684,1.296,5.624,5.331,4.335,9.019C-54.718-152.236-58.754-150.291-62.442-151.583z"/>
<path fill="#FFFFFF" d="M-118.088-112.068c-3.683-1.292-5.626-5.324-4.341-9.013c1.294-3.687,5.334-5.631,9.02-4.344
	c3.685,1.296,5.624,5.331,4.335,9.018C-110.363-112.719-114.399-110.776-118.088-112.068z"/>
<path fill="#FFFFFF" d="M8.32-179.077c-4.627-1.617-7.065-6.68-5.445-11.307c1.617-4.632,6.684-7.066,11.307-5.448
	c4.629,1.62,7.064,6.682,5.447,11.311C18.005-179.895,12.946-177.457,8.32-179.077z"/>
<path fill="#FFFFFF" d="M93.878-179.52c-4.627-1.617-7.065-6.68-5.445-11.307c1.617-4.631,6.684-7.066,11.308-5.448
	c4.629,1.62,7.063,6.683,5.446,11.312C103.564-180.336,98.504-177.9,93.878-179.52z"/>
<path fill="#FFFFFF" d="M17.319-194.6c-3.684-1.292-5.626-5.324-4.342-9.013c1.294-3.687,5.334-5.631,9.021-4.344
	c3.684,1.296,5.624,5.331,4.335,9.018C25.043-195.251,21.006-193.308,17.319-194.6z"/>
<path fill="#FFFFFF" d="M-56.582-121.438c-4.389-1.539-6.704-6.347-5.173-10.74c1.542-4.394,6.356-6.71,10.749-5.176
	c4.39,1.544,6.702,6.353,5.166,10.745C-47.376-122.215-52.185-119.898-56.582-121.438z"/>
<path fill="#FFFFFF" d="M-35.969-110.451c-2.185-0.763-3.332-3.152-2.569-5.331c0.766-2.183,3.149-3.334,5.333-2.567
	c2.181,0.761,3.328,3.149,2.567,5.328C-31.399-110.835-33.791-109.689-35.969-110.451z"/>
<path fill="#FFFFFF" d="M-16.153-99.068c-2.184-0.763-3.331-3.151-2.568-5.331c0.765-2.183,3.148-3.334,5.333-2.567
	c2.18,0.761,3.328,3.149,2.566,5.329C-11.583-99.452-13.974-98.304-16.153-99.068z"/>
<path fill="#FFFFFF" d="M8.722-111.294c-2.184-0.763-3.331-3.152-2.568-5.331c0.765-2.183,3.148-3.334,5.333-2.568
	c2.18,0.762,3.327,3.15,2.566,5.329C13.292-111.679,10.901-110.532,8.722-111.294z"/>
<path fill="#FFFFFF" d="M39.241-29.91c0.356-3.845,3.768-6.666,7.603-6.31c3.844,0.36,6.669,3.768,6.308,7.607
	c-0.354,3.841-3.765,6.661-7.601,6.307C41.704-22.663,38.882-26.073,39.241-29.91z"/>
<path fill="#FFFFFF" d="M75.999-40.343c-2.223-6.882-9.602-10.659-16.484-8.434c-6.879,2.229-10.654,9.606-8.432,16.49
	c2.227,6.872,9.607,10.652,16.488,8.428C74.452-26.085,78.225-33.463,75.999-40.343z"/>
<path fill="#FFFFFF" d="M57.547-55.51c-1.049-3.246-4.53-5.021-7.772-3.978c-3.244,1.052-5.025,4.53-3.974,7.775
	c1.044,3.242,4.526,5.021,7.768,3.978C56.818-48.788,58.596-52.267,57.547-55.51z"/>
<path fill="#FFFFFF" d="M48.098-123.76c-1.049-3.246-4.529-5.021-7.771-3.978c-3.245,1.052-5.026,4.53-3.975,7.775
	c1.044,3.242,4.526,5.021,7.768,3.978C47.368-117.038,49.147-120.517,48.098-123.76z"/>
<path fill="#FFFFFF" d="M-63.192-120.535c-1.05-3.246-4.53-5.021-7.772-3.977c-3.245,1.051-5.026,4.529-3.974,7.774
	c1.044,3.242,4.525,5.021,7.767,3.979C-63.923-113.813-62.143-117.291-63.192-120.535z"/>
<path fill="#FFFFFF" d="M28.139-31.377c-4.627-1.617-7.064-6.68-5.444-11.307c1.616-4.632,6.683-7.066,11.307-5.448
	c4.629,1.62,7.063,6.682,5.447,11.311C37.826-32.196,32.765-29.757,28.139-31.377z"/>
<path fill="#FFFFFF" d="M140.949-76.861c1.787,4.564-0.465,9.713-5.031,11.497c-4.566,1.79-9.714-0.467-11.499-5.028
	c-1.786-4.567,0.468-9.712,5.033-11.501C134.019-83.676,139.165-81.424,140.949-76.861z"/>
<path fill="#FFFFFF" d="M37.138-46.901c-3.683-1.292-5.626-5.324-4.341-9.013c1.294-3.687,5.334-5.631,9.021-4.344
	c3.684,1.296,5.623,5.331,4.335,9.018C44.864-47.552,40.827-45.609,37.138-46.901z"/>
<path fill="#FFFFFF" d="M44.138-37.932c-2.184-0.764-3.332-3.152-2.568-5.331c0.765-2.184,3.148-3.334,5.333-2.568
	c2.18,0.761,3.327,3.15,2.566,5.329C48.708-38.318,46.316-37.169,44.138-37.932z"/>
<path fill="#FFFFFF" d="M59.481-67.213c-2.184-0.763-3.332-3.152-2.568-5.331c0.765-2.183,3.148-3.334,5.333-2.568
	c2.18,0.762,3.328,3.15,2.566,5.329C64.05-67.598,61.659-66.451,59.481-67.213z"/>
<path fill="#FFFFFF" d="M-57.241-435.854c3.358-1.903,7.623-0.72,9.522,2.631c1.901,3.36,0.722,7.625-2.637,9.523
	c-3.354,1.905-7.617,0.72-9.52-2.631C-61.779-429.691-60.594-433.954-57.241-435.854z"/>
<path fill="#FFFFFF" d="M-27.667-411.658c4.376-5.758,3.258-13.971-2.505-18.346c-5.76-4.371-13.973-3.252-18.35,2.508
	c-4.366,5.756-3.248,13.974,2.511,18.347C-40.25-404.778-32.039-405.899-27.667-411.658z"/>
<path fill="#FFFFFF" d="M-27.129-445.118c2.064-2.716,1.53-6.588-1.181-8.65c-2.718-2.063-6.59-1.533-8.65,1.186
	c-2.063,2.71-1.532,6.584,1.176,8.646C-33.062-441.874-29.19-442.404-27.129-445.118z"/>
<path fill="#FFFFFF" d="M-43.796-321.118c2.064-2.716,1.53-6.588-1.181-8.65c-2.718-2.063-6.59-1.533-8.65,1.186
	c-2.063,2.71-1.532,6.584,1.176,8.646C-49.729-317.874-45.857-318.404-43.796-321.118z"/>
<path fill="#FFFFFF" d="M-36.287-462.857c-1.045-3.761,1.153-7.66,4.913-8.714c3.766-1.046,7.67,1.157,8.721,4.917
	c1.042,3.764-1.158,7.662-4.921,8.712C-31.336-456.892-35.238-459.091-36.287-462.857z"/>
<path fill="#FFFFFF" d="M-46.56-436.421c-0.623-2.229,0.682-4.535,2.904-5.155c2.229-0.62,4.536,0.679,5.156,2.907
	c0.621,2.224-0.683,4.531-2.905,5.152C-43.633-432.893-45.941-434.198-46.56-436.421z"/>
<path fill="#FFFFFF" d="M-31.448-436.329c-0.623-2.229,0.683-4.535,2.905-5.155c2.229-0.62,4.536,0.679,5.156,2.907
	c0.621,2.224-0.684,4.532-2.905,5.153C-28.519-432.799-30.829-434.106-31.448-436.329z"/>
<path fill="#FFFFFF" d="M46.747-104.418c-2.185-0.763-3.332-3.152-2.569-5.331c0.766-2.183,3.149-3.334,5.333-2.568
	c2.18,0.762,3.328,3.15,2.567,5.329C51.316-104.803,48.924-103.656,46.747-104.418z"/>
<path fill="#FFFFFF" d="M-56.005-91.744c-7.6-2.661-11.603-10.974-8.944-18.573c2.661-7.597,10.976-11.6,18.573-8.942
	c7.596,2.66,11.604,10.976,8.942,18.575C-40.089-93.088-48.407-89.083-56.005-91.744z"/>
<path fill="#FFFFFF" d="M-114.07-126.421c-7.6-2.661-11.603-10.974-8.943-18.573c2.661-7.597,10.975-11.601,18.573-8.943
	c7.596,2.66,11.604,10.977,8.941,18.575C-98.154-127.766-106.47-123.76-114.07-126.421z"/>
<path fill="#FFFFFF" d="M-13.967-23.042c-6.439-3.291-14.326-0.741-17.615,5.703C-34.868-10.9-32.316-3.012-25.875,0.28
	c6.436,3.28,14.326,0.73,17.615-5.708C-4.972-11.871-7.525-19.754-13.967-23.042z"/>
<path fill="#FFFFFF" d="M-34.654-24.906c-3.037-1.552-6.755-0.344-8.307,2.688c-1.551,3.038-0.348,6.758,2.692,8.307
	c3.03,1.553,6.751,0.346,8.303-2.684C-30.414-19.636-31.619-23.354-34.654-24.906z"/>
<path fill="#FFFFFF" d="M-21.755-43.036c-5.129-2.618-11.414-0.585-14.039,4.543c-2.618,5.135-0.579,11.424,4.547,14.047
	c5.134,2.618,11.42,0.58,14.043-4.551C-14.589-34.129-16.621-40.414-21.755-43.036z"/>
<path fill="#FFFFFF" d="M31.915-16.259c-3.518,1.69-7.743,0.216-9.444-3.299c-1.692-3.521-0.213-7.755,3.302-9.451
	c3.521-1.69,7.746-0.211,9.443,3.307C36.913-22.184,35.435-17.957,31.915-16.259z"/>
<path fill="#FFFFFF" d="M-27.756,14.362c-4.191,2.016-9.229,0.257-11.255-3.934c-2.019-4.194-0.255-9.238,3.936-11.263
	c4.194-2.014,9.23-0.251,11.253,3.94C-21.799,7.299-23.558,12.339-27.756,14.362z"/>
<path fill="#FFFFFF" d="M-5.415,7.543C-7.498,8.549-10,7.672-11.002,5.593c-1.004-2.084-0.133-4.585,1.952-5.588
	C-6.971-1-4.469-0.123-3.466,1.955C-2.458,4.039-3.336,6.542-5.415,7.543z"/>
<path fill="#FFFFFF" d="M-6.342,34.939c-7.253,3.495-15.963,0.452-19.461-6.8c-3.493-7.252-0.449-15.962,6.8-19.461
	c7.251-3.493,15.966-0.451,19.462,6.802C3.956,22.728,0.912,31.444-6.342,34.939z"/>
<path fill="#FFFFFF" d="M7.625-255.117c-2.223-6.882-9.601-10.659-16.483-8.433c-6.88,2.228-10.655,9.605-8.433,16.489
	c2.228,6.872,9.608,10.652,16.488,8.429C6.078-240.86,9.852-248.238,7.625-255.117z"/>
<path fill="#FFFFFF" d="M-10.827-270.284c-1.049-3.246-4.529-5.021-7.771-3.977c-3.245,1.051-5.026,4.529-3.975,7.774
	c1.044,3.242,4.526,5.021,7.768,3.979C-11.556-263.562-9.778-267.041-10.827-270.284z"/>
<path fill="#FFFFFF" d="M9.369-302.448c-1.049-3.246-4.53-5.021-7.772-3.977c-3.244,1.051-5.025,4.529-3.974,7.774
	c1.044,3.242,4.526,5.021,7.767,3.979C8.638-295.726,10.418-299.205,9.369-302.448z"/>
<path fill="#FFFFFF" d="M53.398-287.018c-1.049-3.246-4.529-5.021-7.771-3.977c-3.245,1.051-5.026,4.53-3.974,7.775
	c1.044,3.241,4.525,5.021,7.767,3.978C52.668-280.294,54.448-283.775,53.398-287.018z"/>
<path fill="#FFFFFF" d="M61.626-259.341c-1.049-3.246-4.53-5.021-7.772-3.978c-3.244,1.051-5.025,4.53-3.974,7.775
	c1.044,3.242,4.526,5.021,7.767,3.978C60.895-252.619,62.674-256.099,61.626-259.341z"/>
<path fill="#FFFFFF" d="M-22.876-263.354c-1.049-3.246-4.53-5.021-7.771-3.977c-3.245,1.051-5.026,4.53-3.975,7.774
	c1.044,3.242,4.526,5.021,7.768,3.979C-23.606-256.63-21.828-260.111-22.876-263.354z"/>
<path fill="#FFFFFF" d="M-4.152-209.513c-4.627-1.616-7.064-6.68-5.444-11.307c1.617-4.631,6.683-7.066,11.307-5.448
	c4.629,1.62,7.064,6.683,5.447,11.312C5.535-210.33,0.475-207.893-4.152-209.513z"/>
<path fill="#FFFFFF" d="M60.301-196.705c-4.627-1.617-7.064-6.68-5.445-11.308c1.617-4.631,6.684-7.065,11.308-5.447
	c4.629,1.62,7.063,6.682,5.447,11.311C69.989-197.523,64.927-195.084,60.301-196.705z"/>
<path fill="#FFFFFF" d="M129.117-212.413c-4.627-1.617-7.065-6.68-5.445-11.308c1.617-4.631,6.683-7.065,11.307-5.447
	c4.63,1.62,7.064,6.682,5.447,11.311C138.803-213.231,133.743-210.792,129.117-212.413z"/>
<path fill="#FFFFFF" d="M54.318-224.381c-4.628-1.617-7.065-6.681-5.445-11.308c1.617-4.631,6.683-7.065,11.307-5.448
	c4.629,1.62,7.064,6.683,5.447,11.312C64.004-225.199,58.944-222.762,54.318-224.381z"/>
<path fill="#FFFFFF" d="M-0.412-267.858c-4.627-1.617-7.064-6.68-5.444-11.307c1.616-4.631,6.683-7.066,11.307-5.448
	c4.629,1.62,7.063,6.682,5.447,11.312C9.276-268.674,4.214-266.238-0.412-267.858z"/>
<path fill="#FFFFFF" d="M-28.582-238.438c-4.389-1.54-6.704-6.347-5.173-10.741c1.542-4.393,6.356-6.71,10.749-5.176
	c4.39,1.544,6.702,6.354,5.166,10.746C-19.376-239.215-24.185-236.898-28.582-238.438z"/>
<path fill="#FFFFFF" d="M47.729-322.041c-4.389-1.54-6.704-6.348-5.173-10.741c1.542-4.393,6.356-6.71,10.749-5.176
	c4.391,1.544,6.702,6.353,5.166,10.746C56.935-322.82,52.126-320.5,47.729-322.041z"/>
<path fill="#FFFFFF" d="M-7.969-227.451c-2.185-0.763-3.332-3.152-2.569-5.331c0.766-2.183,3.149-3.334,5.333-2.568
	c2.181,0.762,3.328,3.15,2.567,5.329C-3.399-227.835-5.791-226.689-7.969-227.451z"/>
<path fill="#FFFFFF" d="M57.476-282.455c-2.184-0.763-3.332-3.152-2.568-5.331c0.765-2.183,3.148-3.334,5.333-2.568
	c2.18,0.762,3.328,3.15,2.566,5.329C62.046-282.839,59.655-281.693,57.476-282.455z"/>
<path fill="#FFFFFF" d="M74.309-187.897c-2.184-0.763-3.332-3.151-2.568-5.331c0.765-2.183,3.148-3.334,5.333-2.567
	c2.18,0.761,3.328,3.149,2.566,5.329C78.879-188.281,76.488-187.133,74.309-187.897z"/>
<path fill="#FFFFFF" d="M26.134-403.253c-1.305-4.043-5.646-6.262-9.688-4.957c-4.044,1.312-6.269,5.65-4.956,9.694
	c1.304,4.04,5.646,6.258,9.685,4.955C25.227-394.869,27.441-399.211,26.134-403.253z"/>
<path fill="#FFFFFF" d="M18.797-388.088c-1.049-3.246-4.53-5.021-7.771-3.978c-3.245,1.051-5.026,4.53-3.975,7.775
	c1.044,3.242,4.526,5.021,7.768,3.978C18.068-381.366,19.846-384.846,18.797-388.088z"/>
<path fill="#FFFFFF" d="M14.648-411.202c-2.184-0.763-3.331-3.152-2.568-5.331c0.765-2.183,3.148-3.334,5.333-2.568
	c2.18,0.762,3.328,3.15,2.566,5.329C19.217-411.586,16.826-410.44,14.648-411.202z"/>
<path fill="#FFFFFF" d="M111.63-484.249c-1.305-4.043-5.646-6.261-9.688-4.957c-4.045,1.312-6.269,5.65-4.956,9.695
	c1.304,4.039,5.646,6.257,9.685,4.954C110.723-475.865,112.937-480.208,111.63-484.249z"/>
<path fill="#FFFFFF" d="M102.794-469.084c-1.049-3.246-4.53-5.021-7.772-3.978c-3.244,1.052-5.025,4.53-3.974,7.775
	c1.044,3.242,4.526,5.021,7.767,3.978C102.063-462.363,103.842-465.841,102.794-469.084z"/>
<path fill="#FFFFFF" d="M98.644-492.198c-2.184-0.763-3.332-3.152-2.568-5.331c0.765-2.183,3.148-3.334,5.333-2.568
	c2.18,0.762,3.328,3.15,2.566,5.329C103.213-492.583,100.823-491.436,98.644-492.198z"/>
<path fill="#FFFFFF" d="M53.623-242.273c-2.185-0.763-3.332-3.151-2.569-5.331c0.766-2.183,3.149-3.334,5.333-2.567
	c2.181,0.761,3.328,3.149,2.567,5.329C58.193-242.657,55.8-241.509,53.623-242.273z"/>
<path fill="#FFFFFF" d="M46.891-267.704c-2.184-0.763-3.332-3.152-2.568-5.331c0.765-2.183,3.148-3.334,5.333-2.568
	c2.18,0.762,3.328,3.15,2.566,5.329C51.461-268.088,49.07-266.942,46.891-267.704z"/>
<path fill="#FFFFFF" d="M-28.005-208.744c-7.6-2.661-11.603-10.974-8.944-18.573c2.661-7.597,10.976-11.6,18.573-8.942
	c7.596,2.659,11.604,10.976,8.942,18.574C-12.089-210.088-20.407-206.083-28.005-208.744z"/>
<path fill="#FFFFFF" d="M106.846-110.159c6.438,3.295,14.325,0.748,17.618-5.692c3.289-6.439,0.742-14.328-5.698-17.623
	c-6.434-3.284-14.325-0.737-17.618,5.699C97.859-121.334,100.407-113.449,106.846-110.159z"/>
<path fill="#FFFFFF" d="M58.425-102.55c6.438,3.295,14.325,0.748,17.618-5.694c3.289-6.438,0.741-14.326-5.698-17.622
	c-6.434-3.284-14.326-0.737-17.618,5.7C49.437-113.725,51.987-105.84,58.425-102.55z"/>
<path fill="#FFFFFF" d="M87.309-85.486c8.233,4.216,18.313,0.954,22.521-7.272c4.212-8.231,0.949-18.313-7.279-22.523
	c-8.229-4.207-18.312-0.948-22.521,7.277C75.823-99.773,79.08-89.689,87.309-85.486z"/>
<path fill="#FFFFFF" d="M79.197-112.874c3.037,1.555,6.754,0.348,8.308-2.684c1.552-3.038,0.352-6.759-2.688-8.309
	c-3.031-1.555-6.751-0.35-8.306,2.679C74.959-118.143,76.162-114.424,79.197-112.874z"/>
<path fill="#FFFFFF" d="M80.926-148.734c4.415-2.128,9.719-0.271,11.845,4.146c2.132,4.418,0.271,9.723-4.143,11.848
	c-4.418,2.128-9.719,0.271-11.849-4.146C74.656-141.305,76.509-146.608,80.926-148.734z"/>
<path fill="#FFFFFF" d="M87.539-133.393c3.518-1.69,7.744-0.214,9.441,3.303c1.692,3.521,0.21,7.754-3.306,9.449
	c-3.521,1.688-7.747,0.208-9.441-3.312C82.539-127.469,84.017-131.699,87.539-133.393z"/>
<path fill="#FFFFFF" d="M120.655-147.555c4.19-2.016,9.228-0.254,11.252,3.937c2.016,4.196,0.25,9.239-3.94,11.261
	c-4.195,2.014-9.229,0.248-11.251-3.944C114.695-140.495,116.456-145.536,120.655-147.555z"/>
<path fill="#FFFFFF" d="M98.25-141.454c2.083-1.005,4.585-0.127,5.586,1.952c1.003,2.084,0.131,4.585-1.955,5.588
	c-2.079,1.003-4.581,0.125-5.584-1.953C95.291-137.951,96.17-140.453,98.25-141.454z"/>
<path fill="#FFFFFF" d="M69.433-135.223c2.083-1.006,4.585-0.127,5.586,1.951c1.003,2.084,0.132,4.586-1.955,5.589
	c-2.078,1.003-4.58,0.125-5.584-1.953C66.474-131.72,67.353-134.222,69.433-135.223z"/>
<path fill="#FFFFFF" d="M95.836-175.484c7.994-0.959,15.249,4.74,16.211,12.732c0.958,7.992-4.742,15.249-12.734,16.212
	c-7.989,0.958-15.252-4.741-16.21-12.736C82.139-167.265,87.841-174.525,95.836-175.484z"/>
<path fill="#FFFFFF" d="M-115.375-91.117c-2.223-6.882-9.601-10.659-16.483-8.433c-6.88,2.228-10.655,9.605-8.433,16.49
	c2.228,6.871,9.608,10.651,16.488,8.428C-116.922-76.86-113.148-84.238-115.375-91.117z"/>
<path fill="#FFFFFF" d="M-84.114-94.749c-2.842-8.802-12.273-13.624-21.066-10.781c-8.799,2.842-13.62,12.278-10.779,21.074
	c2.844,8.793,12.278,13.619,21.07,10.779C-86.094-76.524-81.266-85.958-84.114-94.749z"/>
<path fill="#FFFFFF" d="M-127.151-45.512c-4.628-1.617-7.065-6.681-5.445-11.308c1.617-4.631,6.683-7.065,11.307-5.447
	c4.629,1.619,7.064,6.682,5.447,11.311C-117.465-46.33-122.525-43.892-127.151-45.512z"/>
<path fill="#FFFFFF" d="M-118.153-61.035c-3.683-1.292-5.626-5.325-4.341-9.013c1.294-3.688,5.334-5.631,9.021-4.344
	c3.684,1.296,5.624,5.331,4.335,9.018C-110.427-61.687-114.464-59.743-118.153-61.035z"/>
<path fill="#FFFFFF" d="M-151.582-74.438c-4.389-1.539-6.704-6.347-5.173-10.74c1.542-4.394,6.356-6.71,10.749-5.176
	c4.39,1.544,6.702,6.353,5.166,10.745C-142.376-75.215-147.185-72.898-151.582-74.438z"/>
<path fill="#FFFFFF" d="M-161.26-26.858c-4.389-1.539-6.704-6.347-5.173-10.74c1.542-4.394,6.355-6.71,10.749-5.177
	c4.39,1.544,6.702,6.354,5.166,10.746C-152.053-27.635-156.864-25.318-161.26-26.858z"/>
<path fill="#FFFFFF" d="M-130.969-63.451c-2.185-0.763-3.332-3.152-2.569-5.331c0.766-2.183,3.149-3.334,5.333-2.567
	c2.181,0.761,3.328,3.149,2.567,5.328C-126.399-63.835-128.791-62.689-130.969-63.451z"/>
<path fill="#FFFFFF" d="M-151.005-44.744c-7.6-2.661-11.603-10.974-8.944-18.573c2.661-7.597,10.976-11.6,18.573-8.942
	c7.596,2.66,11.604,10.976,8.942,18.575C-135.089-46.088-143.407-42.083-151.005-44.744z"/>
<path fill="#FFFFFF" d="M-71.134-58.41c-4.164-14.559,4.262-29.731,18.817-33.89c14.558-4.163,29.729,4.262,33.896,18.815
	c4.157,14.553-4.266,29.734-18.824,33.896C-51.794-35.42-66.974-43.854-71.134-58.41z"/>
<path fill="#FFFFFF" d="M-129.996,45.499c-1.869-7.269,2.504-14.687,9.779-16.557c7.271-1.878,14.688,2.504,16.56,9.776
	c1.873,7.276-2.506,14.688-9.777,16.563C-120.708,57.155-128.124,52.775-129.996,45.499z"/>
<path fill="#FFFFFF" d="M-178.306,48.451c-2.392-9.299,3.202-18.773,12.499-21.164c9.299-2.397,18.773,3.195,21.166,12.493
	c2.395,9.3-3.202,18.774-12.498,21.17C-166.435,63.344-175.915,57.744-178.306,48.451z"/>
<path fill="#FFFFFF" d="M-172.22,19.955c-1.463-5.691,1.965-11.492,7.654-12.962c5.691-1.46,11.495,1.962,12.963,7.657
	c1.464,5.69-1.964,11.492-7.655,12.96C-164.95,29.076-170.752,25.646-172.22,19.955z"/>
<path fill="#FFFFFF" d="M153.413-360.025c-1.537-7.396-8.782-12.143-16.182-10.598c-7.395,1.542-12.141,8.786-10.599,16.187
	c1.545,7.386,8.791,12.137,16.188,10.596C150.215-345.385,154.96-352.628,153.413-360.025z"/>
<path fill="#FFFFFF" d="M181.99-417.826c-1.54-7.396-8.785-12.141-16.182-10.599c-7.398,1.543-12.143,8.79-10.6,16.182
	c1.543,7.397,8.787,12.14,16.184,10.604C178.789-403.19,183.535-410.431,181.99-417.826z"/>
<path fill="#FFFFFF" d="M84.699-480.174c-1.54-7.396-8.785-12.142-16.182-10.6c-7.398,1.543-12.143,8.79-10.6,16.183
	c1.543,7.397,8.787,12.14,16.184,10.604C81.499-465.538,86.245-472.78,84.699-480.174z"/>
<path fill="#FFFFFF" d="M175.854-386.869c-1.97-9.456-11.23-15.521-20.681-13.549c-9.457,1.969-15.521,11.231-13.551,20.686
	c1.971,9.452,11.232,15.52,20.684,13.548C171.761-368.156,177.828-377.416,175.854-386.869z"/>
<path fill="#FFFFFF" d="M229.643-448.821c-1.97-9.456-11.23-15.521-20.682-13.549c-9.456,1.969-15.521,11.231-13.55,20.686
	c1.971,9.452,11.231,15.52,20.684,13.549C225.55-430.108,231.617-439.368,229.643-448.821z"/>
<path fill="#FFFFFF" d="M156.457-407.201c-1.23-5.888-7.003-9.669-12.896-8.446c-5.892,1.232-9.676,7.014-8.452,12.904
	c1.237,5.891,7.011,9.67,12.904,8.444C153.904-395.531,157.688-401.305,156.457-407.201z"/>
<path fill="#FFFFFF" d="M155.347-427.275c-0.725-3.486-4.146-5.725-7.627-5c-3.488,0.731-5.729,4.146-4.998,7.635
	c0.725,3.486,4.144,5.722,7.626,4.998C153.839-420.368,156.075-423.79,155.347-427.275z"/>
<path fill="#FFFFFF" d="M143.186-378.247c-0.727-3.489-4.146-5.728-7.628-5.001c-3.487,0.73-5.729,4.146-5,7.634
	c0.726,3.488,4.146,5.723,7.625,4.998C141.678-371.343,143.912-374.763,143.186-378.247z"/>
<path fill="#FFFFFF" d="M137.419-291.727c-0.179-7.227-6.188-12.939-13.413-12.762c-7.231,0.182-12.944,6.19-12.764,13.414
	c0.18,7.233,6.186,12.941,13.416,12.765C131.888-278.493,137.599-284.497,137.419-291.727z"/>
<path fill="#FFFFFF" d="M126.318-263.631c-0.229-9.246-7.903-16.547-17.143-16.315c-9.244,0.229-16.545,7.909-16.315,17.149
	c0.231,9.237,7.908,16.543,17.146,16.313C119.247-246.716,126.552-254.394,126.318-263.631z"/>
<path fill="#FFFFFF" d="M156.962-120.889c-0.228-9.246-7.903-16.547-17.142-16.315c-9.244,0.229-16.546,7.909-16.316,17.149
	c0.232,9.237,7.909,16.543,17.146,16.313C149.892-103.974,157.198-111.652,156.962-120.889z"/>
<path fill="#FFFFFF" d="M-69.65-60.406c-0.229-9.246-7.903-16.547-17.143-16.314c-9.244,0.229-16.545,7.908-16.315,17.148
	c0.231,9.238,7.908,16.543,17.146,16.314C-76.72-43.491-69.415-51.167-69.65-60.406z"/>
<path fill="#FFFFFF" d="M-155.472-125.613c-0.229-9.246-7.903-16.547-17.143-16.314c-9.243,0.229-16.545,7.909-16.315,17.148
	c0.231,9.238,7.909,16.543,17.146,16.314C-162.543-108.698-155.238-116.374-155.472-125.613z"/>
<path fill="#FFFFFF" d="M111.549-286.111c-0.146-5.757-4.931-10.311-10.688-10.172c-5.763,0.147-10.318,4.939-10.179,10.696
	c0.147,5.761,4.938,10.313,10.698,10.171C107.14-275.565,111.695-280.348,111.549-286.111z"/>
<path fill="#FFFFFF" d="M113.958-305.202c-0.084-3.407-2.919-6.103-6.324-6.02c-3.409,0.089-6.106,2.921-6.02,6.329
	c0.083,3.405,2.919,6.1,6.321,6.018C111.35-298.958,114.043-301.795,113.958-305.202z"/>
<path fill="#FFFFFF" d="M161.623-246.356c-0.179-7.227-6.188-12.939-13.413-12.762c-7.232,0.182-12.944,6.19-12.765,13.414
	c0.181,7.232,6.186,12.94,13.417,12.765C156.092-233.122,161.803-239.125,161.623-246.356z"/>
<path fill="#FFFFFF" d="M135.754-240.74c-0.146-5.757-4.93-10.311-10.688-10.172c-5.763,0.146-10.316,4.938-10.178,10.696
	c0.147,5.761,4.938,10.313,10.698,10.171C131.343-230.194,135.898-234.977,135.754-240.74z"/>
<path fill="#FFFFFF" d="M138.162-259.831c-0.084-3.407-2.919-6.103-6.324-6.02c-3.409,0.088-6.107,2.92-6.02,6.329
	c0.083,3.405,2.919,6.1,6.321,6.018C135.554-253.587,138.247-256.424,138.162-259.831z"/>
<path fill="#FFFFFF" d="M212.977-473.424c-0.179-7.228-6.186-12.941-13.412-12.763c-7.232,0.183-12.943,6.19-12.765,13.414
	c0.181,7.233,6.187,12.941,13.417,12.767C207.448-460.191,213.158-466.196,212.977-473.424z"/>
<path fill="#FFFFFF" d="M187.11-467.808c-0.146-5.758-4.932-10.312-10.689-10.173c-5.762,0.147-10.317,4.939-10.178,10.696
	c0.147,5.761,4.938,10.313,10.698,10.171C182.699-457.263,187.254-462.045,187.11-467.808z"/>
<path fill="#FFFFFF" d="M189.701-483.511c-0.084-3.407-2.92-6.103-6.324-6.02c-3.409,0.088-6.107,2.92-6.021,6.329
	c0.083,3.405,2.92,6.099,6.322,6.017C187.093-477.269,189.785-480.107,189.701-483.511z"/>
<path fill="#FFFFFF" d="M194.998-426.467c-0.083-3.407-2.919-6.103-6.323-6.02c-3.409,0.088-6.107,2.92-6.021,6.329
	c0.084,3.405,2.92,6.099,6.321,6.017C192.39-420.225,195.083-423.062,194.998-426.467z"/>
<path fill="#FFFFFF" d="M157.084-275.131c-0.179-7.229-6.182-12.945-13.415-12.764c-7.229,0.185-12.942,6.188-12.764,13.42
	c0.186,7.223,6.189,12.94,13.419,12.761C151.554-261.899,157.266-267.903,157.084-275.131z"/>
<path fill="#FFFFFF" d="M194.114-351.456c-0.18-7.228-6.187-12.941-13.412-12.762c-7.232,0.182-12.945,6.189-12.766,13.413
	c0.182,7.233,6.187,12.941,13.417,12.767C188.583-338.222,194.294-344.227,194.114-351.456z"/>
<path fill="#FFFFFF" d="M183.012-323.362c-0.228-9.246-7.903-16.547-17.143-16.314c-9.243,0.229-16.544,7.908-16.315,17.148
	c0.231,9.238,7.909,16.543,17.146,16.315C175.943-306.447,183.248-314.124,183.012-323.362z"/>
<path fill="#FFFFFF" d="M168.244-345.838c-0.146-5.759-4.931-10.313-10.688-10.173c-5.762,0.146-10.316,4.938-10.178,10.695
	c0.146,5.761,4.938,10.314,10.698,10.171C163.835-335.293,168.388-340.077,168.244-345.838z"/>
<path fill="#FFFFFF" d="M199.562-410.529c-0.146-5.757-4.93-10.311-10.688-10.172c-5.763,0.147-10.317,4.939-10.179,10.696
	c0.147,5.761,4.938,10.313,10.698,10.171C195.153-399.983,199.707-404.766,199.562-410.529z"/>
<path fill="#FFFFFF" d="M170.653-364.932c-0.083-3.406-2.919-6.102-6.323-6.019c-3.409,0.088-6.108,2.92-6.021,6.329
	c0.084,3.405,2.92,6.099,6.322,6.017C168.046-358.689,170.738-361.526,170.653-364.932z"/>
<path fill="#FFFFFF" d="M155.294-304.035c-0.085-3.41-2.919-6.101-6.324-6.02c-3.41,0.088-6.104,2.919-6.017,6.328
	c0.081,3.405,2.916,6.1,6.317,6.02C152.686-297.795,155.379-300.627,155.294-304.035z"/>
<path fill="#FFFFFF" d="M149.288-324.867c-0.297-11.878-10.159-21.258-22.031-20.959c-11.872,0.295-21.253,10.158-20.959,22.03
	c0.295,11.87,10.161,21.256,22.036,20.959C140.198-303.128,149.585-312.998,149.288-324.867z"/>
<path fill="#FFFFFF" d="M75.792-435.863c-0.297-11.878-10.159-21.258-22.031-20.959c-11.872,0.295-21.253,10.158-20.959,22.03
	c0.295,11.87,10.161,21.256,22.036,20.959C66.702-414.124,76.088-423.993,75.792-435.863z"/>
<path fill="#FFFFFF" d="M152.175-437.123c-0.497-4.876,3.054-9.232,7.932-9.729c4.88-0.498,9.232,3.056,9.729,7.931
	c0.495,4.879-3.056,9.229-7.933,9.729C157.024-428.699,152.671-432.248,152.175-437.123z"/>
<path fill="#FFFFFF" d="M198.576-422.908c0.011-2.313,1.896-4.177,4.206-4.163c2.313,0.014,4.177,1.896,4.161,4.209
	c-0.012,2.31-1.896,4.17-4.204,4.16C200.424-418.713,198.562-420.601,198.576-422.908z"/>
<path fill="#FFFFFF" d="M159.191-300.38c0.012-2.313,1.897-4.177,4.206-4.163c2.313,0.015,4.178,1.896,4.161,4.209
	c-0.011,2.309-1.896,4.171-4.204,4.16C161.039-296.186,159.176-298.073,159.191-300.38z"/>
<path fill="#FFFFFF" d="M213.789-468.611c0.019-3.729,3.061-6.731,6.783-6.712c3.729,0.022,6.733,3.058,6.71,6.787
	c-0.018,3.723-3.06,6.726-6.78,6.708C216.769-461.844,213.766-464.888,213.789-468.611z"/>
<path fill="#FFFFFF" d="M167.757-446.562c0.047-8.052,6.607-14.539,14.658-14.495c8.049,0.049,14.537,6.609,14.494,14.658
	c-0.047,8.048-6.609,14.541-14.66,14.495C174.203-431.947,167.711-438.511,167.757-446.562z"/>
<path fill="#FFFFFF" d="M179.056-399.727c3.763-0.873,7.516,1.474,8.385,5.226c0.87,3.762-1.471,7.517-5.229,8.384
	c-3.757,0.875-7.508-1.471-8.381-5.223C172.957-395.105,175.302-398.857,179.056-399.727z"/>
<path fill="#FFFFFF" d="M200.549-368.133c5.83-4.28,7.088-12.474,2.804-18.304c-4.282-5.826-12.476-7.083-18.307-2.802
	c-5.82,4.28-7.08,12.479-2.799,18.305C186.531-365.107,194.722-363.852,200.549-368.133z"/>
<path fill="#FFFFFF" d="M210.559-400.067c2.751-2.019,3.337-5.883,1.322-8.63c-2.02-2.748-5.884-3.341-8.631-1.318
	c-2.747,2.014-3.337,5.88-1.325,8.624C203.95-398.64,207.812-398.047,210.559-400.067z"/>
<path fill="#FFFFFF" d="M159.393-285.892c2.75-2.019,3.337-5.883,1.322-8.63c-2.02-2.749-5.884-3.341-8.631-1.317
	c-2.747,2.013-3.337,5.878-1.325,8.623C152.783-284.465,156.646-283.874,159.393-285.892z"/>
<path fill="#FFFFFF" d="M206.812-419.673c0.064-3.902,3.279-7.02,7.185-6.962c3.906,0.064,7.024,3.285,6.967,7.188
	c-0.068,3.904-3.285,7.02-7.19,6.958C209.867-412.549,206.75-415.767,206.812-419.673z"/>
<path fill="#FFFFFF" d="M189.459-397.241c0.035-2.313,1.94-4.155,4.249-4.119c2.312,0.037,4.157,1.938,4.119,4.251
	c-0.035,2.31-1.94,4.152-4.248,4.117C191.265-393.027,189.421-394.933,189.459-397.241z"/>
<path fill="#FFFFFF" d="M247.694-282.896c6.159-3.568,14.045-1.464,17.61,4.703c3.563,6.163,1.458,14.048-4.707,17.614
	c-6.158,3.558-14.048,1.453-17.612-4.709C239.421-271.45,241.527-279.335,247.694-282.896z"/>
<path fill="#FFFFFF" d="M270.329-339.289c6.162-3.567,14.048-1.46,17.611,4.703c3.565,6.166,1.456,14.051-4.703,17.611
	c-6.165,3.566-14.049,1.459-17.617-4.701C262.061-327.842,264.162-335.728,270.329-339.289z"/>
<path fill="#FFFFFF" d="M252.444-315.527c7.879-4.56,17.958-1.867,22.512,6.01c4.56,7.877,1.864,17.959-6.012,22.517
	c-7.878,4.555-17.958,1.861-22.514-6.014C241.873-300.892,244.565-310.973,252.444-315.527z"/>
<path fill="#FFFFFF" d="M262.148-392.234c7.88-4.56,17.959-1.867,22.513,6.01c4.561,7.877,1.864,17.958-6.014,22.517
	c-7.876,4.555-17.956,1.863-22.511-6.014C251.58-377.6,254.269-387.681,262.148-392.234z"/>
<path fill="#FFFFFF" d="M278.912-314.681c4.907-2.837,11.19-1.158,14.036,3.749c2.838,4.911,1.154,11.202-3.751,14.047
	c-4.915,2.833-11.195,1.153-14.04-3.758C272.322-305.553,273.997-311.84,278.912-314.681z"/>
<path fill="#FFFFFF" d="M293.707-326.517c2.905-1.684,6.625-0.686,8.304,2.217c1.68,2.907,0.688,6.628-2.221,8.307
	c-2.902,1.683-6.621,0.686-8.302-2.215C289.804-321.118,290.8-324.837,293.707-326.517z"/>
<path fill="#FFFFFF" d="M266.917-287.166c2.907-1.684,6.627-0.687,8.305,2.215c1.681,2.909,0.689,6.629-2.218,8.308
	c-2.905,1.686-6.622,0.687-8.303-2.213C263.015-281.77,264.014-285.486,266.917-287.166z"/>
<path fill="#FFFFFF" d="M198.513-233.857c6.428-5.47,16.076-4.691,21.545,1.734c5.472,6.434,4.691,16.078-1.733,21.546
	c-6.434,5.474-16.071,4.693-21.55-1.734C191.307-218.744,192.086-228.385,198.513-233.857z"/>
<path fill="#FFFFFF" d="M197.024-203.291c6.637-5.65,16.59-4.848,22.229,1.787c5.648,6.635,4.844,16.589-1.789,22.233
	c-6.635,5.645-16.59,4.842-22.232-1.789C189.587-187.697,190.388-197.654,197.024-203.291z"/>
<path fill="#FFFFFF" d="M222.09-207.046c4.136-3.517,10.34-3.018,13.862,1.113c3.518,4.142,3.013,10.353-1.117,13.87
	c-4.139,3.518-10.346,3.016-13.867-1.121C217.456-197.323,217.954-203.527,222.09-207.046z"/>
<path fill="#FFFFFF" d="M233.987-220.735c2.445-2.083,6.119-1.784,8.2,0.658c2.08,2.449,1.787,6.124-0.663,8.205
	c-2.442,2.081-6.116,1.782-8.196-0.659C231.24-214.982,231.541-218.656,233.987-220.735z"/>
<path fill="#FFFFFF" d="M162.704-217.23c5.188-4.415,12.976-3.788,17.392,1.4c4.418,5.191,3.787,12.98-1.397,17.395
	c-5.194,4.418-12.978,3.787-17.396-1.4C156.884-205.03,157.513-212.814,162.704-217.23z"/>
<path fill="#FFFFFF" d="M175.016-195.532c4.136-3.516,10.34-3.017,13.861,1.113c3.517,4.14,3.015,10.352-1.116,13.87
	c-4.14,3.517-10.347,3.014-13.866-1.121C170.381-185.808,170.879-192.013,175.016-195.532z"/>
<path fill="#FFFFFF" d="M186.911-209.222c2.444-2.082,6.12-1.784,8.201,0.659c2.08,2.45,1.786,6.125-0.662,8.206
	c-2.443,2.08-6.117,1.781-8.198-0.659C184.165-203.467,184.466-207.141,186.911-209.222z"/>
<path fill="#FFFFFF" d="M289.902-395.992c5.187-4.416,12.976-3.788,17.392,1.4c4.417,5.191,3.787,12.98-1.399,17.394
	c-5.192,4.419-12.976,3.788-17.396-1.401C284.082-383.791,284.711-391.576,289.902-395.992z"/>
<path fill="#FFFFFF" d="M302.212-374.294c4.137-3.517,10.34-3.019,13.862,1.112c3.517,4.141,3.015,10.352-1.116,13.869
	c-4.139,3.519-10.348,3.016-13.867-1.12C297.578-364.572,298.075-370.775,302.212-374.294z"/>
<path fill="#FFFFFF" d="M311.614-385.985c2.444-2.081,6.118-1.784,8.199,0.66c2.082,2.448,1.788,6.124-0.66,8.205
	c-2.444,2.081-6.117,1.782-8.199-0.659C308.867-380.23,309.167-383.904,311.614-385.985z"/>
<path fill="#FFFFFF" d="M268.223-353.856c2.444-2.083,6.118-1.785,8.2,0.658c2.08,2.448,1.787,6.124-0.662,8.205
	c-2.443,2.082-6.118,1.783-8.198-0.659C265.476-348.103,265.778-351.775,268.223-353.856z"/>
<path fill="#FFFFFF" d="M175.294-239.606c5.19-4.418,12.977-3.794,17.395,1.399c4.412,5.192,3.788,12.979-1.403,17.396
	c-5.188,4.409-12.979,3.785-17.394-1.404C169.475-227.407,170.102-235.193,175.294-239.606z"/>
<path fill="#FFFFFF" d="M216.098-306.095c5.188-4.415,12.977-3.788,17.393,1.399c4.416,5.193,3.787,12.981-1.401,17.395
	c-5.192,4.419-12.976,3.789-17.396-1.399C210.279-293.895,210.907-301.68,216.098-306.095z"/>
<path fill="#FFFFFF" d="M203.343-280.645c6.636-5.649,16.587-4.847,22.23,1.787c5.648,6.636,4.842,16.588-1.79,22.235
	c-6.636,5.643-16.589,4.842-22.233-1.789C195.906-265.048,196.707-275.003,203.343-280.645z"/>
<path fill="#FFFFFF" d="M228.411-284.399c4.134-3.516,10.34-3.019,13.859,1.114c3.518,4.14,3.017,10.35-1.115,13.869
	c-4.14,3.517-10.348,3.015-13.866-1.121C223.777-274.674,224.273-280.878,228.411-284.399z"/>
<path fill="#FFFFFF" d="M254.159-347.043c4.136-3.517,10.34-3.019,13.86,1.112c3.52,4.141,3.016,10.351-1.114,13.87
	c-4.141,3.518-10.347,3.016-13.866-1.122C249.525-337.321,250.021-343.525,254.159-347.043z"/>
<path fill="#FFFFFF" d="M240.305-298.087c2.445-2.081,6.119-1.783,8.2,0.659c2.081,2.448,1.787,6.125-0.662,8.205
	c-2.442,2.08-6.116,1.782-8.198-0.658C237.559-292.333,237.859-296.007,240.305-298.087z"/>
<path fill="#FFFFFF" d="M207.189-249.032c2.447-2.084,6.119-1.783,8.201,0.659c2.082,2.449,1.787,6.121-0.663,8.202
	c-2.441,2.084-6.115,1.784-8.196-0.655C204.448-243.28,204.742-246.951,207.189-249.032z"/>
<path fill="#FFFFFF" d="M151.465-218.49c2.447-2.084,6.119-1.783,8.201,0.659c2.082,2.449,1.787,6.121-0.663,8.202
	c-2.442,2.084-6.116,1.784-8.197-0.655C148.723-212.738,149.018-216.409,151.465-218.49z"/>
<path fill="#FFFFFF" d="M225.593-257.906c8.528-7.257,21.314-6.226,28.564,2.302c7.254,8.522,6.222,21.31-2.302,28.563
	c-8.521,7.251-21.313,6.222-28.565-2.306C216.041-237.861,217.073-250.656,225.593-257.906z"/>
<path fill="#FFFFFF" d="M302.616-330.478c3.736-2.716,4.564-7.947,1.848-11.685c-2.717-3.739-7.948-4.563-11.683-1.851
	c-3.738,2.72-4.563,7.947-1.851,11.688C293.654-328.589,298.88-327.763,302.616-330.478z"/>
<path fill="#FFFFFF" d="M263.472-354.131c1.618-1.46,1.742-3.957,0.282-5.57c-1.464-1.615-3.956-1.742-5.571-0.276
	c-1.613,1.458-1.736,3.951-0.277,5.566C259.367-352.793,261.863-352.671,263.472-354.131z"/>
<path fill="#FFFFFF" d="M197.3-250.392c2.261-2.041,2.434-5.531,0.393-7.788c-2.046-2.258-5.53-2.435-7.79-0.389
	c-2.256,2.04-2.429,5.528-0.39,7.785C191.556-248.519,195.046-248.349,197.3-250.392z"/>
<path fill="#FFFFFF" d="M126.463-204.402c1.617-1.46,1.74-3.957,0.28-5.57c-1.463-1.614-3.955-1.74-5.571-0.277
	c-1.613,1.459-1.736,3.954-0.278,5.567C122.355-203.063,124.851-202.941,126.463-204.402z"/>
<path fill="#FFFFFF" d="M143.668-211.133c1.617-1.46,1.74-3.957,0.28-5.57c-1.463-1.615-3.955-1.741-5.571-0.278
	c-1.613,1.459-1.736,3.954-0.278,5.568C139.559-209.794,142.055-209.672,143.668-211.133z"/>
<path fill="#FFFFFF" d="M286.009-393.535c2.608-2.357,2.807-6.382,0.451-8.982c-2.359-2.604-6.378-2.809-8.982-0.447
	c-2.604,2.353-2.801,6.375-0.45,8.978C279.385-391.377,283.41-391.181,286.009-393.535z"/>
<path fill="#FFFFFF" d="M299.452-347.354c5.625-5.093,6.06-13.775,0.97-19.401c-5.092-5.623-13.777-6.057-19.402-0.969
	c-5.623,5.092-6.06,13.779-0.968,19.404C285.137-342.695,293.829-342.26,299.452-347.354z"/>
<path fill="#FFFFFF" d="M259.46-325.856c-1.751-3.189-5.757-4.353-8.938-2.604c-3.188,1.754-4.354,5.757-2.6,8.94
	c1.746,3.19,5.751,4.35,8.935,2.604C260.047-318.666,261.209-322.67,259.46-325.856z"/>
<path fill="#FFFFFF" d="M223.766-321.097c-0.659-6.782,4.307-12.814,11.093-13.47c6.782-0.652,12.813,4.31,13.472,11.096
	c0.651,6.776-4.313,12.813-11.099,13.469C230.449-309.349,224.42-314.313,223.766-321.097z"/>
<path fill="#FFFFFF" d="M239.902-348.194c-0.312-3.2,2.034-6.04,5.229-6.354c3.201-0.309,6.043,2.033,6.352,5.233
	c0.313,3.194-2.031,6.038-5.224,6.35C243.054-342.656,240.211-344.996,239.902-348.194z"/>
<path fill="#FFFFFF" d="M191.872-240.509c-0.313-3.2,2.034-6.04,5.229-6.353c3.199-0.31,6.044,2.033,6.351,5.232
	c0.313,3.194-2.031,6.038-5.225,6.351C195.023-234.971,192.18-237.312,191.872-240.509z"/>
<path fill="#FFFFFF" d="M144.21-226.961c-0.313-3.2,2.034-6.04,5.229-6.353c3.199-0.31,6.045,2.033,6.351,5.232
	c0.313,3.195-2.031,6.038-5.225,6.351C147.362-221.422,144.518-223.764,144.21-226.961z"/>
<path fill="#FFFFFF" d="M256.028-357.882c2.698-2.499,2.866-6.715,0.375-9.42c-2.503-2.702-6.725-2.87-9.429-0.375
	c-2.698,2.501-2.864,6.718-0.367,9.422C249.103-355.552,253.323-355.383,256.028-357.882z"/>
<path fill="#FFFFFF" d="M251.177-331.6c1.604-1.478,1.698-3.974,0.223-5.57c-1.479-1.602-3.973-1.703-5.572-0.223
	c-1.601,1.477-1.697,3.973-0.224,5.57C247.082-330.217,249.58-330.122,251.177-331.6z"/>
<path fill="#FFFFFF" d="M135.25,6.546c-0.312,7.547,5.561,13.915,13.112,14.219c7.548,0.307,13.915-5.564,14.222-13.116
	c0.3-7.54-5.57-13.911-13.118-14.22C141.916-6.874,135.55-1.003,135.25,6.546z"/>
<path fill="#FFFFFF" d="M93.458,55.648c-0.309,7.55,5.563,13.914,13.112,14.221c7.553,0.306,13.917-5.568,14.222-13.113
	c0.305-7.552-5.567-13.915-13.115-14.226C100.127,42.231,93.758,48.098,93.458,55.648z"/>
<path fill="#FFFFFF" d="M106.947,27.118c-0.393,9.65,7.112,17.789,16.759,18.178c9.65,0.394,17.789-7.115,18.181-16.764
	c0.391-9.646-7.116-17.787-16.762-18.177C115.473,9.964,107.335,17.469,106.947,27.118z"/>
<circle fill="#FFFFFF" cx="57.159" cy="74.811" r="17.484"/>
<path fill="#FFFFFF" d="M120.808,51.56c-0.239,6.012,4.438,11.084,10.452,11.333c6.015,0.24,11.092-4.444,11.341-10.456
	c0.233-6.017-4.444-11.088-10.461-11.334C126.128,40.864,121.05,45.542,120.808,51.56z"/>
<path fill="#FFFFFF" d="M116.996,71.3c-0.146,3.561,2.627,6.563,6.18,6.706c3.563,0.143,6.566-2.626,6.707-6.187
	c0.147-3.559-2.625-6.559-6.18-6.705C120.14,64.969,117.138,67.744,116.996,71.3z"/>
<path fill="#FFFFFF" d="M140.73,26.71c-0.145,3.562,2.627,6.563,6.182,6.708c3.562,0.141,6.565-2.626,6.709-6.186
	c0.146-3.561-2.626-6.561-6.179-6.705C143.875,20.382,140.875,23.155,140.73,26.71z"/>
<path fill="#FFFFFF" d="M163.476-65.323c-1.587,7.054,2.849,14.059,9.9,15.645c7.059,1.585,14.063-2.852,15.646-9.901
	c1.588-7.06-2.848-14.058-9.903-15.648C172.062-76.811,165.061-72.378,163.476-65.323z"/>
<path fill="#FFFFFF" d="M181.705-86.193c-1.261,5.619,2.271,11.201,7.89,12.471c5.624,1.26,11.21-2.278,12.478-7.896
	c1.26-5.623-2.277-11.205-7.899-12.47C188.55-95.346,182.968-91.817,181.705-86.193z"/>
<path fill="#FFFFFF" d="M182.948-46.539c-0.748,3.324,1.346,6.628,4.668,7.377c3.328,0.745,6.636-1.345,7.38-4.673
	c0.749-3.322-1.347-6.626-4.666-7.375C186.998-51.959,183.696-49.865,182.948-46.539z"/>
<path fill="#FFFFFF" d="M151.049-115.223c-1.587,7.053,2.849,14.059,9.901,15.645c7.059,1.585,14.063-2.851,15.646-9.901
	c1.586-7.06-2.848-14.058-9.903-15.647C159.636-126.711,152.634-122.279,151.049-115.223z"/>
<path fill="#FFFFFF" d="M196.508-117.66c-1.429-2.26-3.72-3.974-6.534-4.605c-5.622-1.259-11.204,2.271-12.467,7.896
	c-1.261,5.619,2.271,11.201,7.89,12.469c5.624,1.262,11.21-2.276,12.477-7.896C198.502-112.606,197.934-115.405,196.508-117.66"/>
<path fill="#FFFFFF" d="M170.522-96.439c-0.749,3.324,1.346,6.629,4.668,7.378c3.328,0.743,6.636-1.347,7.381-4.674
	c0.748-3.322-1.347-6.626-4.666-7.376C174.573-101.86,171.269-99.763,170.522-96.439z"/>
<path fill="#FFFFFF" d="M49.863,102.026c-1.588,7.053,2.848,14.059,9.899,15.645c7.061,1.585,14.063-2.852,15.646-9.901
	c1.587-7.06-2.849-14.059-9.903-15.647C58.448,90.538,51.448,94.969,49.863,102.026z"/>
<path fill="#FFFFFF" d="M76.32,102.878c-1.262,5.62,2.271,11.201,7.89,12.47c5.625,1.261,11.21-2.277,12.477-7.896
	c1.261-5.624-2.276-11.206-7.898-12.472C83.165,93.724,77.583,97.254,76.32,102.878z"/>
<path fill="#FFFFFF" d="M69.981,117.478c-0.749,3.324,1.346,6.629,4.668,7.378c3.328,0.743,6.636-1.346,7.381-4.674
	c0.748-3.321-1.347-6.626-4.666-7.376C74.031,112.057,70.728,114.155,69.981,117.478z"/>
<path fill="#FFFFFF" d="M78.736,60.862c-0.749,3.325,1.346,6.629,4.668,7.377c3.327,0.745,6.635-1.345,7.38-4.672
	c0.748-3.323-1.347-6.626-4.666-7.376C82.785,55.442,79.482,57.538,78.736,60.862z"/>
<path fill="#FFFFFF" d="M148.445-86.208c-1.588,7.056,2.843,14.062,9.901,15.646c7.057,1.581,14.062-2.85,15.647-9.907
	c1.579-7.049-2.854-14.06-9.907-15.645C157.03-97.697,150.028-93.263,148.445-86.208z"/>
<path fill="#FFFFFF" d="M97.862-11.676c-1.587,7.053,2.849,14.058,9.9,15.644c7.061,1.585,14.063-2.851,15.646-9.9
	c1.587-7.061-2.849-14.059-9.903-15.647C106.448-23.165,99.448-18.733,97.862-11.676z"/>
<path fill="#FFFFFF" d="M115.47-36.222c-2.031,9.022,3.637,17.974,12.652,20c9.021,2.028,17.973-3.644,20.002-12.66
	c2.023-9.018-3.644-17.972-12.657-19.999C126.448-50.906,117.492-45.24,115.47-36.222z"/>
<path fill="#FFFFFF" d="M124.32-10.824c-1.262,5.619,2.271,11.201,7.89,12.469c5.625,1.262,11.21-2.276,12.477-7.895
	c1.261-5.624-2.276-11.207-7.898-12.471C131.165-19.979,125.583-16.448,124.32-10.824z"/>
<path fill="#FFFFFF" d="M78.191,44.29c-1.262,5.62,2.271,11.202,7.89,12.47c5.625,1.261,11.21-2.277,12.477-7.896
	c1.261-5.623-2.276-11.206-7.898-12.472C85.036,35.135,79.454,38.667,78.191,44.29z"/>
<path fill="#FFFFFF" d="M117.334,7.108c-0.748,3.323,1.346,6.628,4.668,7.377c3.328,0.743,6.635-1.346,7.38-4.673
	c0.749-3.322-1.346-6.627-4.666-7.375C121.383,1.687,118.082,3.784,117.334,7.108z"/>
<path fill="#FFFFFF" d="M147.06-48.215c-0.748,3.328,1.347,6.628,4.669,7.378c3.328,0.746,6.633-1.344,7.376-4.673
	c0.751-3.323-1.342-6.625-4.661-7.376C151.11-53.631,147.807-51.541,147.06-48.215z"/>
<path fill="#FFFFFF" d="M147.812-26.548c-2.604,11.593,4.678,23.092,16.265,25.692c11.586,2.605,23.088-4.677,25.692-16.263
	c2.604-11.584-4.679-23.091-16.268-25.694C161.923-45.417,150.415-38.132,147.812-26.548z"/>
<path fill="#FFFFFF" d="M117.673,81.626c-0.705,4.85-5.21,8.211-10.062,7.502c-4.854-0.705-8.212-5.211-7.506-10.06
	c0.707-4.854,5.212-8.209,10.063-7.506C115.022,72.274,118.38,76.776,117.673,81.626z"/>
<path fill="#FFFFFF" d="M76.132,56.539c-0.574,2.24-2.857,3.588-5.094,3.013c-2.24-0.577-3.59-2.854-3.011-5.096
	c0.571-2.236,2.854-3.583,5.091-3.01C75.362,52.018,76.708,54.302,76.132,56.539z"/>
<path fill="#FFFFFF" d="M144.171-52.708c-0.574,2.24-2.858,3.588-5.094,3.013c-2.24-0.577-3.59-2.854-3.013-5.096
	c0.573-2.236,2.855-3.583,5.093-3.011C143.4-57.229,144.747-54.945,144.171-52.708z"/>
<path fill="#FFFFFF" d="M151.205-97.542c-0.574,2.24-2.858,3.588-5.094,3.013c-2.24-0.577-3.591-2.854-3.013-5.096
	c0.573-2.236,2.855-3.583,5.092-3.011C150.433-102.063,151.781-99.779,151.205-97.542z"/>
<path fill="#FFFFFF" d="M50.248,97.159c-0.926,3.612-4.608,5.785-8.214,4.857c-3.611-0.931-5.788-4.604-4.854-8.217
	c0.923-3.605,4.604-5.778,8.209-4.854C49.004,89.872,51.175,93.553,50.248,97.159z"/>
<path fill="#FFFFFF" d="M100.262,86.985c-2.007,7.797-9.949,12.491-17.747,10.487c-7.795-2.006-12.49-9.949-10.486-17.746
	c2.005-7.795,9.949-12.493,17.748-10.487C97.571,71.24,102.268,79.187,100.262,86.985z"/>
<path fill="#FFFFFF" d="M100.709,38.806c-3.859-0.067-6.929-3.258-6.859-7.108c0.072-3.859,3.259-6.933,7.115-6.857
	c3.856,0.066,6.924,3.256,6.855,7.107C107.752,35.809,104.562,38.878,100.709,38.806z"/>
<path fill="#FFFFFF" d="M87.557,2.931c-6.695,2.731-9.912,10.371-7.177,17.069c2.735,6.693,10.375,9.907,17.074,7.176
	c6.687-2.733,9.904-10.378,7.172-17.073C101.89,3.41,94.252,0.198,87.557,2.931z"/>
<path fill="#FFFFFF" d="M70.073,31.465c-3.159,1.288-4.669,4.895-3.385,8.048c1.289,3.158,4.894,4.674,8.051,3.381
	c3.154-1.282,4.668-4.889,3.386-8.041C76.83,31.692,73.228,30.177,70.073,31.465z"/>
<path fill="#FFFFFF" d="M147.503-66.811c-3.159,1.287-4.669,4.894-3.384,8.048c1.289,3.157,4.893,4.674,8.05,3.381
	c3.155-1.283,4.669-4.89,3.386-8.041C154.261-66.584,150.659-68.099,147.503-66.811z"/>
<path fill="#FFFFFF" d="M136.212-95.843c-3.159,1.288-4.669,4.894-3.384,8.048c1.289,3.158,4.893,4.674,8.05,3.381
	c3.155-1.283,4.669-4.889,3.386-8.041C142.971-95.617,139.369-97.131,136.212-95.843z"/>
<path fill="#FFFFFF" d="M69.278-91.811c-3.159,1.287-4.669,4.894-3.385,8.048c1.289,3.157,4.894,4.674,8.051,3.381
	c3.154-1.283,4.669-4.89,3.386-8.041C76.036-91.584,72.433-93.099,69.278-91.811z"/>
<path fill="#FFFFFF" d="M68.932,51.394c-1.014,3.771-4.89,6.01-8.663,5.004c-3.772-1.016-6.015-4.898-5.007-8.671
	c1.019-3.771,4.896-6.007,8.669-4.997C67.704,43.741,69.945,47.621,68.932,51.394z"/>
<path fill="#FFFFFF" d="M211.437-118.725c-1.014,3.77-4.89,6.009-8.662,5.003c-3.773-1.016-6.016-4.898-5.008-8.67
	c1.019-3.771,4.896-6.008,8.669-4.997C210.209-126.379,212.449-122.499,211.437-118.725z"/>
<path fill="#FFFFFF" d="M91.225,33.864c-0.597,2.233-2.894,3.558-5.124,2.961c-2.231-0.601-3.56-2.894-2.96-5.127
	c0.598-2.23,2.895-3.556,5.123-2.958C90.5,29.336,91.824,31.634,91.225,33.864z"/>
</svg>
