<?xml version="1.0" encoding="utf-8"?>
<!-- Generator: Adobe Illustrator 16.1.1, SVG Export Plug-In . SVG Version: 6.00 Build 0)  -->
<!DOCTYPE svg PUBLIC "-//W3C//DTD SVG 1.1//EN" "http://www.w3.org/Graphics/SVG/1.1/DTD/svg11.dtd">
<svg version="1.1" id="Guitar" xmlns="http://www.w3.org/2000/svg" xmlns:xlink="http://www.w3.org/1999/xlink" x="0px" y="0px"
	 width="1280px" height="799.994px" viewBox="0 0 1280 799.994" enable-background="new 0 0 1280 799.994" xml:space="preserve">
<circle fill="#FFFFFF" cx="32.267" cy="29.877" r="11.486"/>
<circle fill="#FFFFFF" cx="18.216" cy="61.418" r="9.476"/>
<circle fill="#FFFFFF" cx="43.297" cy="-4.038" r="10.199"/>
<circle fill="#FFFFFF" cx="48.941" cy="-50.68" r="9.5"/>
<circle fill="#FFFFFF" cx="-18.541" cy="-78.111" r="10.199"/>
<circle fill="#FFFFFF" cx="-35.42" cy="-75.646" r="6.632"/>
<circle fill="#FFFFFF" cx="-43.378" cy="-62.271" r="6.089"/>
<circle fill="#FFFFFF" cx="-29.983" cy="-59.074" r="5.564"/>
<circle fill="#FFFFFF" cx="-5.369" cy="-79.975" r="3.643"/>
<circle fill="#FFFFFF" cx="-47.056" cy="-36.042" r="4.911"/>
<circle fill="#FFFFFF" cx="-51.6" cy="-13.041" r="4.911"/>
<circle fill="#FFFFFF" cx="-16.428" cy="-23.043" r="5.347"/>
<circle fill="#FFFFFF" cx="-16.061" cy="-48.122" r="5.347"/>
<circle fill="#FFFFFF" cx="6.65" cy="-55.016" r="5.347"/>
<circle fill="#FFFFFF" cx="24.616" cy="-32.177" r="5.347"/>
<circle fill="#FFFFFF" cx="6.65" cy="-15.1" r="5.347"/>
<circle fill="#FFFFFF" cx="-46.906" cy="-49.669" r="8.76"/>
<circle fill="#FFFFFF" cx="-40.712" cy="-5.733" r="8.76"/>
<circle fill="#FFFFFF" cx="-32.521" cy="8.109" r="6.709"/>
<circle fill="#FFFFFF" cx="-44.735" cy="-22.325" r="6.353"/>
<circle fill="#FFFFFF" cx="-39.849" cy="17.286" r="4.796"/>
<circle fill="#FFFFFF" cx="-33.217" cy="24.676" r="4.796"/>
<circle fill="#FFFFFF" cx="20.482" cy="-80.524" r="9.48"/>
<circle fill="#FFFFFF" cx="3.073" cy="-76.577" r="5.868"/>
<circle fill="#FFFFFF" cx="32.345" cy="-76.577" r="5.868"/>
<circle fill="#FFFFFF" cx="32.762" cy="-63.599" r="6.488"/>
<circle fill="#FFFFFF" cx="2.904" cy="-76.59" r="5.905"/>
<circle fill="#FFFFFF" cx="52.439" cy="-29.181" r="6.488"/>
<circle fill="#FFFFFF" cx="-15.858" cy="33.043" r="8.447"/>
<circle fill="#FFFFFF" cx="-30.052" cy="35.789" r="6.161"/>
<circle fill="#FFFFFF" cx="-19.545" cy="51.79" r="5.089"/>
<circle fill="#FFFFFF" cx="-9.583" cy="63.696" r="4.73"/>
<circle fill="#FFFFFF" cx="5.695" cy="75.227" r="4.906"/>
<circle fill="#FFFFFF" cx="19.834" cy="40.905" r="5.664"/>
<circle fill="#FFFFFF" cx="33.734" cy="45.156" r="5.664"/>
<circle fill="#FFFFFF" cx="46.04" cy="15.265" r="6.385"/>
<circle fill="#FFFFFF" cx="53.498" cy="-15.571" r="6.385"/>
<circle fill="#FFFFFF" cx="15.829" cy="76.559" r="5.006"/>
<circle fill="#FFFFFF" cx="8.717" cy="91.869" r="4.138"/>
<circle fill="#FFFFFF" cx="0.754" cy="60.592" r="4.196"/>
<circle fill="#FFFFFF" cx="3.043" cy="68.085" r="3.113"/>
<circle fill="#FFFFFF" cx="-1.937" cy="75.737" r="1.871"/>
<circle fill="#FFFFFF" cx="-6.164" cy="51.836" r="7.658"/>
<circle fill="#FFFFFF" cx="-2.636" cy="69.882" r="3.527"/>
<circle fill="#FFFFFF" cx="-13.823" cy="44.177" r="3.527"/>
<circle fill="#FFFFFF" cx="-24.307" cy="23.207" r="3.527"/>
<circle fill="#FFFFFF" cx="-25.214" cy="14.861" r="3.527"/>
<circle fill="#FFFFFF" cx="-44.368" cy="7.268" r="3.527"/>
<circle fill="#FFFFFF" cx="-40.584" cy="-30.358" r="3.527"/>
<circle fill="#FFFFFF" cx="-21.776" cy="-31.196" r="3.528"/>
<circle fill="#FFFFFF" cx="-10.713" cy="-16.92" r="3.527"/>
<circle fill="#FFFFFF" cx="14.013" cy="-17.585" r="3.527"/>
<circle fill="#FFFFFF" cx="19.087" cy="-39.247" r="3.527"/>
<circle fill="#FFFFFF" cx="14.013" cy="-52.653" r="3.527"/>
<circle fill="#FFFFFF" cx="-10.228" cy="-53.47" r="3.527"/>
<circle fill="#FFFFFF" cx="-15.171" cy="-35.404" r="2.867"/>
<circle fill="#FFFFFF" cx="-21.776" cy="-37.526" r="2.867"/>
<circle fill="#FFFFFF" cx="-5.871" cy="-11.627" r="2.868"/>
<circle fill="#FFFFFF" cx="18.353" cy="-24.432" r="2.868"/>
<circle fill="#FFFFFF" cx="26.476" cy="-42.775" r="2.867"/>
<circle fill="#FFFFFF" cx="18.72" cy="-46.257" r="2.867"/>
<circle fill="#FFFFFF" cx="20.849" cy="-52.286" r="2.868"/>
<circle fill="#FFFFFF" cx="-5.052" cy="-59.165" r="2.867"/>
<circle fill="#FFFFFF" cx="-1.82" cy="-54.524" r="3.061"/>
<circle fill="#FFFFFF" cx="-2.918" cy="-16.57" r="3.061"/>
<circle fill="#FFFFFF" cx="-39.488" cy="-38.756" r="2.761"/>
<circle fill="#FFFFFF" cx="-54.361" cy="-24.4" r="2.761"/>
<circle fill="#FFFFFF" cx="-59.802" cy="-37.055" r="1.669"/>
<circle fill="#FFFFFF" cx="-54.728" cy="-40.539" r="1.669"/>
<circle fill="#FFFFFF" cx="-1.852" cy="-84.838" r="1.913"/>
<circle fill="#FFFFFF" cx="41.977" cy="-76.38" r="1.669"/>
<circle fill="#FFFFFF" cx="18.72" cy="-68.277" r="1.669"/>
<circle fill="#FFFFFF" cx="42.344" cy="-36.435" r="1.669"/>
<circle fill="#FFFFFF" cx="60.25" cy="-45.68" r="1.669"/>
<circle fill="#FFFFFF" cx="37.389" cy="-24.962" r="1.208"/>
<circle fill="#FFFFFF" cx="43.674" cy="38.228" r="1.692"/>
<circle fill="#FFFFFF" cx="30.079" cy="54.558" r="1.691"/>
<circle fill="#FFFFFF" cx="8.515" cy="53.893" r="2.183"/>
<circle fill="#FFFFFF" cx="-6.164" cy="41.492" r="1.691"/>
<circle fill="#FFFFFF" cx="-29.767" cy="45.8" r="2.056"/>
<circle fill="#FFFFFF" cx="-24.767" cy="44.917" r="3.308"/>
<circle fill="#FFFFFF" cx="-16.949" cy="59.78" r="1.62"/>
<circle fill="#FFFFFF" cx="11.164" cy="47.498" r="1.189"/>
<circle fill="#FFFFFF" cx="-59.932" cy="-37.133" r="1.94"/>
<circle fill="#FFFFFF" cx="-36.582" cy="-43.756" r="1.189"/>
<circle fill="#FFFFFF" cx="0.392" cy="-90.742" r="1.399"/>
<circle fill="#FFFFFF" cx="-10.713" cy="-69.379" r="1.399"/>
<circle fill="#FFFFFF" cx="-23.683" cy="-43.389" r="1.399"/>
<circle fill="#FFFFFF" cx="-16.061" cy="-55.016" r="1.399"/>
<circle fill="#FFFFFF" cx="-4.789" cy="-50.681" r="1.399"/>
<circle fill="#FFFFFF" cx="13.397" cy="-58.34" r="1.399"/>
<circle fill="#FFFFFF" cx="18.792" cy="-68.59" r="1.888"/>
<circle fill="#FFFFFF" cx="10.852" cy="-73.39" r="1.888"/>
<circle fill="#FFFFFF" cx="13.562" cy="-88.801" r="2.289"/>
<circle fill="#FFFFFF" cx="-5.665" cy="-74.711" r="1.821"/>
<circle fill="#FFFFFF" cx="-34.761" cy="-66.702" r="1.821"/>
<circle fill="#FFFFFF" cx="-36.215" cy="-61.904" r="1.821"/>
<circle fill="#FFFFFF" cx="23.718" cy="-71.042" r="1.888"/>
<circle fill="#FFFFFF" cx="37.363" cy="-54.524" r="1.888"/>
<circle fill="#FFFFFF" cx="38.215" cy="-45.643" r="1.888"/>
<circle fill="#FFFFFF" cx="14.013" cy="-45.643" r="1.399"/>
<circle fill="#FFFFFF" cx="24.959" cy="-47.992" r="1.923"/>
<circle fill="#FFFFFF" cx="1.242" cy="-59.075" r="1.924"/>
<circle fill="#FFFFFF" cx="23.975" cy="-24.401" r="1.924"/>
<circle fill="#FFFFFF" cx="20.651" cy="-18.34" r="2.607"/>
<circle fill="#FFFFFF" cx="-16.433" cy="-15.957" r="1.175"/>
<circle fill="#FFFFFF" cx="-15.172" cy="-29.654" r="1.175"/>
<circle fill="#FFFFFF" cx="26.06" cy="-38.389" r="1.175"/>
<circle fill="#FFFFFF" cx="13.278" cy="-11.994" r="1.175"/>
<circle fill="#FFFFFF" cx="14.013" cy="-24.432" r="1.175"/>
<circle fill="#FFFFFF" cx="0.479" cy="-12.161" r="1.816"/>
<circle fill="#FFFFFF" cx="-6.143" cy="-20.19" r="1.354"/>
<circle fill="#FFFFFF" cx="-14.974" cy="-40.865" r="1.836"/>
<circle fill="#FFFFFF" cx="-37.288" cy="-54.524" r="1.669"/>
<circle fill="#FFFFFF" cx="-52.508" cy="-30.828" r="3.527"/>
<circle fill="#FFFFFF" cx="-9.193" cy="-88.284" r="3.527"/>
<circle fill="#FFFFFF" cx="51.327" cy="-64.382" r="3.527"/>
<ellipse transform="matrix(-0.4709 0.8822 -0.8822 -0.4709 63.1878 -22.6253)" fill="#FFFFFF" cx="38.379" cy="7.636" rx="3.995" ry="3.845"/>
<ellipse transform="matrix(-0.471 0.8821 -0.8821 -0.471 44.4939 -61.8528)" fill="#FFFFFF" cx="40.793" cy="-17.585" rx="4.457" ry="4.291"/>
<ellipse transform="matrix(-0.4708 0.8822 -0.8822 -0.4708 87.1473 -3.0824)" fill="#FFFFFF" cx="44.498" cy="24.594" rx="3.995" ry="3.845"/>
<ellipse transform="matrix(-0.4709 0.8822 -0.8822 -0.4709 57.6927 -11.405)" fill="#FFFFFF" cx="32.267" cy="11.599" rx="3.994" ry="3.846"/>
<ellipse transform="matrix(-0.4708 0.8822 -0.8822 -0.4708 54.4449 2.6499)" fill="#FFFFFF" cx="26.428" cy="17.653" rx="1.035" ry="0.996"/>
<ellipse transform="matrix(-0.4708 0.8822 -0.8822 -0.4708 61.5894 -0.901)" fill="#FFFFFF" cx="31.065" cy="18.021" rx="1.035" ry="0.996"/>
<ellipse transform="matrix(-0.4709 0.8822 -0.8822 -0.4709 44.1195 -76.8987)" fill="#FFFFFF" cx="45.121" cy="-25.218" rx="3.994" ry="3.844"/>
<ellipse transform="matrix(-0.471 0.8822 -0.8822 -0.471 49.8783 -106.5513)" fill="#FFFFFF" cx="56.889" cy="-38.319" rx="3.995" ry="3.845"/>
<ellipse transform="matrix(-0.471 0.8821 -0.8821 -0.471 4.5692 -138.6732)" fill="#FFFFFF" cx="43.866" cy="-67.967" rx="4.659" ry="4.484"/>
<ellipse transform="matrix(-0.4709 0.8822 -0.8822 -0.4709 -67.7835 -131.7576)" fill="#FFFFFF" cx="5.621" cy="-86.207" rx="4.659" ry="4.484"/>
<ellipse transform="matrix(-0.471 0.8821 -0.8821 -0.471 37.3627 -95.7612)" fill="#FFFFFF" cx="47.395" cy="-36.677" rx="3.375" ry="3.248"/>
<ellipse transform="matrix(-0.4709 0.8822 -0.8822 -0.4709 63.5285 -94.9942)" fill="#FFFFFF" cx="60.251" cy="-28.446" rx="3.374" ry="3.248"/>
<ellipse transform="matrix(-0.4709 0.8822 -0.8822 -0.4709 80.3002 51.6653)" fill="#FFFFFF" cx="24.657" cy="49.913" rx="3.995" ry="3.845"/>
<ellipse transform="matrix(-0.471 0.8822 -0.8822 -0.471 92.3752 113.782)" fill="#FFFFFF" cx="12.07" cy="84.59" rx="2.642" ry="2.544"/>
<ellipse transform="matrix(0.4708 -0.8822 0.8822 0.4708 -70.2966 47.4795)" fill="#FFFFFF" cx="4.429" cy="82.336" rx="2.636" ry="2.545"/>
</svg>
