<?xml version="1.0" encoding="utf-8"?>
<!-- Generator: Adobe Illustrator 16.1.1, SVG Export Plug-In . SVG Version: 6.00 Build 0)  -->
<!DOCTYPE svg PUBLIC "-//W3C//DTD SVG 1.0//EN" "http://www.w3.org/TR/2001/REC-SVG-20010904/DTD/svg10.dtd">
<svg version="1.0" id="Wave" xmlns="http://www.w3.org/2000/svg" xmlns:xlink="http://www.w3.org/1999/xlink" x="0px" y="0px"
	 width="1280px" height="800px" viewBox="0 0 1280 800" enable-background="new 0 0 1280 800" xml:space="preserve">
<path fill="#FFFFFF" d="M10.595,41.764c-18.89,1.885-35.728-11.905-37.605-30.795C-28.889-7.929-15.09-24.761,3.783-26.642
	C22.682-28.513,39.51-14.725,41.397,4.165C43.27,23.057,29.486,39.891,10.595,41.764z"/>
<path fill="#FFFFFF" d="M70.377,7.298C55.427,8.84,42.069-2.027,40.533-16.966c-1.539-14.944,9.33-28.301,24.273-29.843
	c14.939-1.536,28.3,9.331,29.838,24.268C96.18-7.595,85.315,5.766,70.377,7.298z"/>
<path fill="#FFFFFF" d="M109.051-7.944c-8.048,1.842-16.071-3.191-17.926-11.238c-1.84-8.06,3.201-16.09,11.248-17.94
	c8.06-1.837,16.084,3.202,17.93,11.253C122.144-17.815,117.111-9.788,109.051-7.944z"/>
<path fill="#FFFFFF" d="M54.08,29.56c-7.039,1.614-14.06-2.79-15.67-9.825c-1.605-7.044,2.788-14.065,9.83-15.672
	c7.034-1.616,14.048,2.794,15.667,9.819C65.521,20.936,61.113,27.947,54.08,29.56z"/>
<path fill="#FFFFFF" d="M37.056-19.329c-3.26,2.085-7.597,1.129-9.679-2.129c-2.082-3.261-1.129-7.598,2.132-9.678
	c3.259-2.087,7.593-1.126,9.677,2.127C41.271-25.743,40.313-21.41,37.056-19.329z"/>
<path fill="#FFFFFF" d="M114.718-34.749c-8.479,5.103-19.491,2.366-24.604-6.106c-5.099-8.48-2.373-19.495,6.109-24.605
	c8.481-5.106,19.492-2.371,24.602,6.11C125.93-50.876,123.195-39.859,114.718-34.749z"/>
<path fill="#FFFFFF" d="M131.054-60.744c6.935,0.364,12.249,6.291,11.888,13.213c-0.372,6.934-6.292,12.259-13.221,11.884
	c-6.93-0.36-12.244-6.287-11.885-13.208C118.206-55.796,124.129-61.11,131.054-60.744z"/>
<path fill="#FFFFFF" d="M153.911-72.494c6.791-0.136,12.416,5.257,12.553,12.054c0.143,6.795-5.259,12.416-12.052,12.555
	c-6.8,0.137-12.418-5.261-12.557-12.055C141.716-66.734,147.116-72.357,153.911-72.494z"/>
<path fill="#FFFFFF" d="M132.853-67.483c3.566-1.584,7.748,0.024,9.329,3.594c1.59,3.567-0.023,7.745-3.594,9.328
	c-3.567,1.585-7.744-0.023-9.327-3.595C127.673-61.725,129.285-65.899,132.853-67.483z"/>
</svg>
