<?xml version="1.0" encoding="utf-8"?>
<!-- Generator: Adobe Illustrator 16.1.1, SVG Export Plug-In . SVG Version: 6.00 Build 0)  -->
<!DOCTYPE svg PUBLIC "-//W3C//DTD SVG 1.1//EN" "http://www.w3.org/Graphics/SVG/1.1/DTD/svg11.dtd">
<svg version="1.1" id="Wave" xmlns="http://www.w3.org/2000/svg" xmlns:xlink="http://www.w3.org/1999/xlink" x="0px" y="0px"
	 width="1280px" height="800px" viewBox="0 0 1280 800" enable-background="new 0 0 1280 800" xml:space="preserve">
<path fill="#FFFFFF" d="M-193.104-215.51c9.02,5.927,11.521,18.038,5.587,27.058c-5.932,9.02-18.046,11.52-27.064,5.589
	c-9.006-5.931-11.514-18.051-5.581-27.066C-214.231-218.943-202.118-221.446-193.104-215.51z"/>
<path fill="#FFFFFF" d="M-228.565-190.004c3.877,1.675,5.658,6.174,3.99,10.047c-1.679,3.872-6.174,5.663-10.049,3.987
	c-3.875-1.669-5.653-6.171-3.986-10.042C-236.939-189.891-232.438-191.674-228.565-190.004z"/>
<path fill="#FFFFFF" d="M-226.321-154.131c3.933,1.541,5.867,5.979,4.333,9.904c-1.545,3.928-5.977,5.872-9.906,4.33
	c-3.93-1.535-5.86-5.976-4.328-9.899C-234.687-153.73-230.249-155.667-226.321-154.131z"/>
<path fill="#FFFFFF" d="M-261.934-118.82c3.978,1.429,6.035,5.807,4.613,9.774c-1.432,3.973-5.807,6.04-9.778,4.61
	c-3.972-1.422-6.028-5.804-4.606-9.771C-270.283-118.183-265.903-120.244-261.934-118.82z"/>
<path fill="#FFFFFF" d="M-240.388-173.662c7.021,2.744,10.479,10.668,7.735,17.681c-2.759,7.013-10.669,10.479-17.685,7.727
	c-7.018-2.743-10.466-10.664-7.732-17.673C-255.317-172.952-247.399-176.412-240.388-173.662z"/>
<path fill="#FFFFFF" d="M-257.933-130.901c3.875,1.672,5.665,6.176,3.992,10.046c-1.677,3.873-6.173,5.663-10.053,3.984
	c-3.871-1.672-5.652-6.17-3.986-10.042C-266.305-130.791-261.805-132.573-257.933-130.901z"/>
<path fill="#FFFFFF" d="M-254.586-131.768c-2.063-1.443-2.563-4.296-1.118-6.36c1.447-2.064,4.3-2.563,6.365-1.12
	c2.063,1.453,2.56,4.304,1.117,6.366C-249.678-130.818-252.523-130.315-254.586-131.768z"/>
<path fill="#FFFFFF" d="M-225.884-155.383c-3.838-2.688-4.773-8.001-2.076-11.84c2.689-3.849,7.998-4.765,11.842-2.087
	c3.844,2.703,4.77,8.009,2.083,11.854C-216.744-153.609-222.041-152.684-225.884-155.383z"/>
<path fill="#FFFFFF" d="M205.291-215.488c-12.101,9.399-29.52,7.211-38.915-4.895c-9.396-12.102-7.203-29.521,4.897-38.925
	c12.094-9.383,29.521-7.196,38.918,4.899C219.584-242.303,217.392-224.878,205.291-215.488z"/>
<path fill="#FFFFFF" d="M357.114-77.178c2.132,21.353-13.458,40.387-34.81,42.509c-21.363,2.124-40.391-13.475-42.518-34.81
	c-2.115-21.363,13.473-40.39,34.823-42.521C335.968-114.115,354.997-98.534,357.114-77.178z"/>
<path fill="#FFFFFF" d="M311.156-137.806c3.688,16.07-6.354,32.074-22.413,35.75c-16.064,3.684-32.067-6.358-35.754-22.424
	c-3.678-16.063,6.362-32.067,22.421-35.746C291.479-163.904,307.484-153.868,311.156-137.806z"/>
<path fill="#FFFFFF" d="M300.532-178.185c2.33,10.183-4.036,20.334-14.22,22.681c-10.195,2.328-20.355-4.051-22.699-14.23
	c-2.322-10.196,4.054-20.352,14.238-22.687C288.045-194.75,298.199-188.383,300.532-178.185z"/>
<path fill="#FFFFFF" d="M330.861-125.953c0.977,4.252-1.686,8.493-5.936,9.468c-4.255,0.97-8.496-1.687-9.469-5.938
	c-0.977-4.249,1.688-8.485,5.934-9.464C325.651-132.864,329.887-130.201,330.861-125.953z"/>
<path fill="#FFFFFF" d="M237.185-216.571c1.614,7.039-2.795,14.054-9.824,15.67c-7.048,1.604-14.063-2.788-15.672-9.835
	c-1.618-7.035,2.792-14.045,9.816-15.667C228.561-228.012,235.57-223.611,237.185-216.571z"/>
<path fill="#FFFFFF" d="M-178.053-255.645c13.482-4.69,28.094,2.372,32.67,15.773c4.565,13.405-2.646,28.066-16.105,32.759
	c-13.461,4.688-28.097-2.377-32.664-15.785C-198.731-236.294-191.515-250.958-178.053-255.645z"/>
<path fill="#FFFFFF" d="M-25.378-327.138c5.641,4.393,6.649,12.528,2.257,18.167c-4.392,5.646-12.526,6.653-18.166,2.257
	c-5.643-4.392-6.655-12.525-2.258-18.168C-39.152-330.523-31.018-331.529-25.378-327.138z"/>
<path fill="#FFFFFF" d="M103.77-310.795c5.662,4.404,6.664,12.566,2.27,18.218c-4.41,5.655-12.572,6.673-18.223,2.262
	c-5.662-4.398-6.663-12.562-2.27-18.213C89.959-314.193,98.118-315.198,103.77-310.795z"/>
<path fill="#FFFFFF" d="M80.501-308.89c4.056,3.155,4.772,9.003,1.625,13.052c-3.16,4.051-9.007,4.778-13.058,1.619
	c-4.055-3.151-4.771-8.998-1.624-13.049C70.607-311.323,76.452-312.044,80.501-308.89z"/>
<path fill="#FFFFFF" d="M-44.674-315.191c3.466,2.699,4.084,7.7,1.389,11.158c-2.703,3.464-7.696,4.088-11.16,1.386
	c-3.466-2.694-4.077-7.689-1.387-11.152C-53.135-317.269-48.135-317.885-44.674-315.191z"/>
<path fill="#FFFFFF" d="M268.416-203.029c2.496,3.9,1.352,9.094-2.548,11.586c-3.904,2.49-9.098,1.352-11.588-2.554
	c-2.496-3.899-1.349-9.089,2.548-11.585C260.737-208.073,265.925-206.929,268.416-203.029z"/>
<path fill="#FFFFFF" d="M-24.643-299.187c7.462,6.142,8.544,17.177,2.397,24.646c-6.138,7.475-17.178,8.545-24.646,2.403
	c-7.472-6.147-8.544-17.182-2.401-24.651C-43.152-304.258-32.112-305.333-24.643-299.187z"/>
<path fill="#FFFFFF" d="M16.418-308.495c9.547,7.856,10.924,21.96,3.064,31.505c-7.852,9.551-21.955,10.928-31.502,3.071
	c-9.548-7.854-10.922-21.96-3.067-31.507C-7.236-314.975,6.873-316.346,16.418-308.495z"/>
<path fill="#FFFFFF" d="M-126.654-281.52c10.903,3.472,16.929,15.127,13.451,26.029c-3.465,10.907-15.125,16.93-26.027,13.449
	c-10.905-3.468-16.935-15.124-13.456-26.029C-149.217-278.975-137.557-284.99-126.654-281.52z"/>
<path fill="#FFFFFF" d="M-99.813-284.602c6.698,2.132,10.393,9.296,8.266,15.981c-2.139,6.699-9.3,10.401-15.99,8.264
	c-6.696-2.125-10.386-9.289-8.266-15.98C-113.665-283.041-106.505-286.732-99.813-284.602z"/>
<path fill="#FFFFFF" d="M-154.891-267.324c4.188,1.333,6.495,5.812,5.164,9.986c-1.336,4.188-5.807,6.499-9.988,5.163
	c-4.188-1.329-6.487-5.804-5.162-9.982C-163.549-266.348-159.07-268.655-154.891-267.324z"/>
<path fill="#FFFFFF" d="M-68.313-309.138c11.677,4.066,17.852,16.822,13.779,28.494c-4.063,11.678-16.816,17.851-28.491,13.786
	c-11.676-4.064-17.847-16.822-13.784-28.496C-92.748-307.03-79.984-313.198-68.313-309.138z"/>
<path fill="#FFFFFF" d="M-87.857-269.156c4.073-0.258,7.588,2.842,7.84,6.917c0.264,4.073-2.84,7.585-6.917,7.838
	c-4.071,0.257-7.584-2.839-7.837-6.916C-95.031-265.395-91.932-268.901-87.857-269.156z"/>
<path fill="#FFFFFF" d="M256.837-187.596c6.418,10.665,2.977,24.519-7.684,30.95c-10.668,6.414-24.522,2.983-30.951-7.687
	c-6.425-10.669-2.982-24.521,7.688-30.945C236.55-201.7,250.408-198.26,256.837-187.596z"/>
<path fill="#FFFFFF" d="M179.861-274.555c6.418,10.665,2.979,24.519-7.682,30.95c-10.668,6.414-24.524,2.983-30.953-7.687
	c-6.423-10.669-2.98-24.521,7.688-30.945C159.574-288.657,173.433-285.219,179.861-274.555z"/>
<path fill="#FFFFFF" d="M99.373-254.184c-10.179-8.776-11.309-24.131-2.528-34.305c8.78-10.172,24.137-11.304,34.313-2.523
	c10.157,8.772,11.297,24.136,2.521,34.308C124.899-246.535,109.539-245.406,99.373-254.184z"/>
<path fill="#FFFFFF" d="M67.583-265.185c-5.472-4.716-6.07-12.979-1.362-18.444c4.729-5.468,12.985-6.082,18.452-1.354
	c5.47,4.711,6.064,12.971,1.367,18.438C81.307-261.071,73.052-260.467,67.583-265.185z"/>
<path fill="#FFFFFF" d="M34.589-276.896c-11.487-4.794-16.918-17.995-12.137-29.489c4.798-11.486,17.992-16.928,29.49-12.137
	c11.494,4.795,16.926,17.994,12.133,29.49C59.288-277.544,46.083-272.11,34.589-276.896z"/>
<path fill="#FFFFFF" d="M-251.004-145.971c8.424,3.296,12.578,12.795,9.276,21.223c-3.299,8.428-12.801,12.579-21.229,9.281
	c-8.415-3.299-12.576-12.806-9.276-21.229C-268.931-145.119-259.43-149.274-251.004-145.971z"/>
<path fill="#FFFFFF" d="M-275.091-116.043c3.877,1.675,5.656,6.174,3.988,10.047c-1.679,3.872-6.174,5.663-10.049,3.987
	c-3.875-1.669-5.653-6.171-3.986-10.042C-283.465-115.93-278.964-117.713-275.091-116.043z"/>
<path fill="#FFFFFF" d="M-280.186-100.578c5.822,2.513,8.504,9.273,5.995,15.092c-2.521,5.815-9.272,8.505-15.095,5.985
	c-5.82-2.509-8.491-9.27-5.992-15.085C-292.761-100.412-286.002-103.092-280.186-100.578z"/>
<path fill="#FFFFFF" d="M-297.142-65.139c3.875,1.672,5.665,6.176,3.992,10.046c-1.677,3.873-6.173,5.663-10.053,3.986
	c-3.871-1.672-5.652-6.17-3.986-10.042C-305.514-65.028-301.014-66.812-297.142-65.139z"/>
<path fill="#FFFFFF" d="M-293.795-66.005c-2.063-1.441-2.563-4.296-1.118-6.358c1.447-2.066,4.3-2.563,6.365-1.12
	c2.063,1.453,2.56,4.302,1.117,6.364C-288.887-65.056-291.732-64.553-293.795-66.005z"/>
<path fill="#FFFFFF" d="M-274.897-95.697c-2.061-1.444-2.563-4.3-1.115-6.36c1.446-2.067,4.299-2.562,6.361-1.121
	c2.065,1.452,2.563,4.303,1.119,6.368C-269.987-94.744-272.833-94.247-274.897-95.697z"/>
<path fill="#FFFFFF" d="M182.383-155.604c3.426,14.935-5.902,29.807-20.839,33.228c-14.937,3.418-29.812-5.912-33.233-20.85
	c-3.412-14.92,5.917-29.805,20.849-33.229C164.092-179.867,178.969-170.534,182.383-155.604z"/>
<path fill="#FFFFFF" d="M257.083-66.043c4.379,19.097-7.551,38.109-26.633,42.479c-19.09,4.376-38.104-7.558-42.479-26.646
	c-4.371-19.083,7.559-38.102,26.637-42.472C233.701-97.052,252.719-85.127,257.083-66.043z"/>
<path fill="#FFFFFF" d="M235.571-109.183c1.646,7.195-2.853,14.368-10.048,16.026c-7.205,1.646-14.385-2.862-16.039-10.059
	c-1.643-7.205,2.862-14.379,10.063-16.029C226.746-120.889,233.923-116.389,235.571-109.183z"/>
<path fill="#FFFFFF" d="M140.48-186.964c1.493,6.528-2.588,13.036-9.116,14.54c-6.535,1.493-13.051-2.597-14.552-9.124
	c-1.49-6.536,2.599-13.045,9.127-14.542C132.474-197.584,138.984-193.502,140.48-186.964z"/>
<path fill="#FFFFFF" d="M207.082-142.99c1.612,7.037-2.795,14.054-9.824,15.67c-7.048,1.604-14.065-2.788-15.672-9.835
	c-1.618-7.035,2.792-14.047,9.814-15.667C198.458-154.432,205.468-150.031,207.082-142.99z"/>
<path fill="#FFFFFF" d="M-249.944-159.53c1.887-1.06,4.255-0.383,5.286,1.491c1.036,1.887,0.348,4.265-1.544,5.317
	c-1.883,1.053-4.251,0.379-5.287-1.499C-252.526-156.096-251.833-158.479-249.944-159.53z"/>
<path fill="#FFFFFF" d="M-202.098-88.902c6.826,0.359,12.067,6.188,11.704,13.016c-0.354,6.83-6.188,12.07-13.017,11.705
	c-6.826-0.359-12.07-6.188-11.706-13.018C-214.756-84.026-208.924-89.264-202.098-88.902z"/>
<path fill="#FFFFFF" d="M-186.508-104.911c6.935,0.364,12.249,6.291,11.888,13.215c-0.372,6.934-6.292,12.259-13.221,11.884
	c-6.932-0.36-12.244-6.287-11.887-13.208C-199.355-99.963-193.433-105.277-186.508-104.911z"/>
<path fill="#FFFFFF" d="M44.939-231.891c3.314,2.579,3.902,7.358,1.328,10.668c-2.583,3.312-7.362,3.906-10.671,1.323
	c-3.313-2.575-3.901-7.354-1.328-10.665C36.853-233.88,41.63-234.469,44.939-231.891z"/>
<path fill="#FFFFFF" d="M-211.439-61.781c4.194,0.223,7.413,3.808,7.19,7.992c-0.228,4.195-3.802,7.415-7.996,7.189
	c-4.192-0.218-7.404-3.803-7.188-7.99C-219.213-58.784-215.628-62.001-211.439-61.781z"/>
<path fill="#FFFFFF" d="M221.207-133.267c2.496,3.902,1.352,9.094-2.548,11.586c-3.904,2.492-9.098,1.352-11.588-2.552
	c-2.496-3.901-1.349-9.089,2.548-11.585C213.528-138.313,218.716-137.166,221.207-133.267z"/>
<path fill="#FFFFFF" d="M-71.18-213.273c8.734,3.021,13.373,12.558,10.35,21.299c-3.021,8.74-12.562,13.373-21.296,10.35
	c-8.745-3.024-13.376-12.563-10.354-21.301S-79.919-216.3-71.18-213.273z"/>
<path fill="#FFFFFF" d="M-33.354-217.185c10.142,6.081,13.437,19.225,7.354,29.358c-6.076,10.144-19.222,13.438-29.358,7.358
	c-10.14-6.079-13.432-19.225-7.354-29.363C-56.641-219.969-43.49-223.26-33.354-217.185z"/>
<path fill="#FFFFFF" d="M-157.304-161.932c10.933-0.512,20.209,7.934,20.719,18.864c0.521,10.933-7.933,20.208-18.862,20.715
	c-10.93,0.518-20.212-7.927-20.721-18.862C-176.686-152.146-168.233-161.419-157.304-161.932z"/>
<path fill="#FFFFFF" d="M-134.264-173.62c6.716-0.314,12.407,4.878,12.727,11.581c0.312,6.72-4.877,12.417-11.589,12.727
	c-6.71,0.32-12.4-4.874-12.726-11.578C-146.164-167.614-140.973-173.305-134.264-173.62z"/>
<path fill="#FFFFFF" d="M-165.65-119.661c6.791-0.136,12.416,5.259,12.553,12.056c0.145,6.795-5.259,12.416-12.052,12.555
	c-6.8,0.137-12.418-5.261-12.557-12.055C-177.846-113.901-172.445-119.524-165.65-119.661z"/>
<path fill="#FFFFFF" d="M-104.833-197.24c11.819-0.236,21.598,9.146,21.83,20.964c0.243,11.818-9.141,21.596-20.959,21.835
	c-11.818,0.236-21.596-9.147-21.834-20.965C-126.038-187.226-116.647-197.002-104.833-197.24z"/>
<path fill="#FFFFFF" d="M-120.917-155.429c3.564-1.584,7.748,0.024,9.329,3.594c1.59,3.567-0.023,7.745-3.596,9.328
	c-3.565,1.585-7.742-0.021-9.325-3.595C-126.097-149.67-124.484-153.845-120.917-155.429z"/>
<path fill="#FFFFFF" d="M-186.709-114.65c3.564-1.584,7.748,0.022,9.329,3.594c1.59,3.567-0.023,7.745-3.596,9.328
	c-3.565,1.585-7.742-0.023-9.325-3.595C-191.889-108.892-190.276-113.066-186.709-114.65z"/>
<path fill="#FFFFFF" d="M-180.409-134.749c3.566-1.584,7.748,0.024,9.329,3.596c1.59,3.565-0.023,7.743-3.594,9.326
	c-3.567,1.585-7.744-0.021-9.327-3.595C-185.589-128.99-183.977-133.165-180.409-134.749z"/>
<path fill="#FFFFFF" d="M209.628-117.833c6.418,10.665,2.977,24.521-7.684,30.95c-10.668,6.414-24.522,2.985-30.951-7.685
	c-6.425-10.669-2.982-24.521,7.688-30.947C189.341-131.938,203.199-128.497,209.628-117.833z"/>
<path fill="#FFFFFF" d="M128.758-179.145c6.418,10.665,2.977,24.519-7.682,30.95c-10.668,6.414-24.524,2.983-30.953-7.687
	c-6.423-10.669-2.982-24.521,7.688-30.947C108.471-193.249,122.329-189.809,128.758-179.145z"/>
<path fill="#FFFFFF" d="M63.515-179.568c-10.177-8.776-11.307-24.131-2.528-34.307c8.78-10.17,24.139-11.302,34.313-2.521
	c10.159,8.771,11.297,24.136,2.523,34.308C89.041-171.92,73.681-170.791,63.515-179.568z"/>
<path fill="#FFFFFF" d="M31.725-190.569c-5.47-4.718-6.07-12.979-1.362-18.444c4.729-5.468,12.985-6.082,18.452-1.354
	c5.472,4.711,6.066,12.971,1.367,18.438C45.448-186.456,37.193-185.852,31.725-190.569z"/>
<path fill="#FFFFFF" d="M-25.964-213.564c-4.322-1.666-6.476-6.527-4.81-10.845c1.67-4.32,6.529-6.477,10.85-4.807
	c4.32,1.665,6.469,6.526,4.809,10.844C-16.788-214.045-21.647-211.897-25.964-213.564z"/>
<path fill="#FFFFFF" d="M-1.903-190.754c-12.199-5.092-17.967-19.11-12.889-31.316c5.095-12.199,19.107-17.979,31.318-12.891
	c12.207,5.092,17.975,19.108,12.885,31.318C24.327-191.442,10.304-185.672-1.903-190.754z"/>
</svg>
