<?xml version="1.0" encoding="utf-8"?>
<!-- Generator: Adobe Illustrator 16.0.0, SVG Export Plug-In . SVG Version: 6.00 Build 0)  -->
<!DOCTYPE svg PUBLIC "-//W3C//DTD SVG 1.1//EN" "http://www.w3.org/Graphics/SVG/1.1/DTD/svg11.dtd">
<svg version="1.1" id="Layer_1" xmlns="http://www.w3.org/2000/svg" xmlns:xlink="http://www.w3.org/1999/xlink" x="0px" y="0px"
	 width="612px" height="792px" viewBox="0 0 612 792" enable-background="new 0 0 612 792" xml:space="preserve">
<polygon fill="#FFFFFF" stroke="#000000" stroke-miterlimit="10" points="130.049,227.593 135.292,194.3 110.838,171.107 
	144.122,165.806 158.624,135.382 173.951,165.398 207.367,169.789 183.556,193.641 189.707,226.778 159.664,211.504 "/>
<polygon fill="#FFFFFF" stroke="#000000" stroke-miterlimit="10" points="207.367,259.301 222.954,223.913 202.64,191.01 
	241.112,194.899 266.127,165.412 274.316,203.203 310.092,217.881 276.68,237.348 273.775,275.908 244.937,250.148 "/>
<polygon fill="#FFFFFF" stroke="#000000" stroke-miterlimit="10" points="187.772,129.22 198.366,88.47 170.803,56.641 
	212.832,54.124 234.585,18.074 249.968,57.268 290.975,66.817 258.452,93.558 262.043,135.509 226.561,112.841 "/>
<polygon fill="#FFFFFF" stroke="#000000" stroke-miterlimit="10" points="218.667,169.87 211.323,211.106 241.128,240.533 
	199.642,246.291 180.865,283.731 162.569,246.055 121.159,239.767 151.338,210.723 144.521,169.397 181.469,189.124 "/>
<polygon fill="#FFFFFF" stroke="#000000" stroke-miterlimit="10" points="181.144,129.22 215.093,139.266 242.615,116.995 
	243.552,152.387 273.238,171.68 239.867,183.508 230.691,217.703 209.131,189.62 173.774,191.46 193.82,162.277 "/>
<polygon fill="#FFFFFF" stroke="#000000" stroke-miterlimit="10" points="181.144,157.675 138.367,133.029 93.814,154.295 
	104.035,105.997 70.042,70.197 119.135,64.992 142.679,21.6 162.8,66.682 211.344,75.665 174.686,108.731 "/>
<polygon fill="#FFFFFF" stroke="#000000" stroke-miterlimit="10" points="145.515,175.424 123.01,237.205 161.146,290.769 
	95.434,288.457 56.277,341.278 38.169,278.068 -24.167,257.15 30.354,220.396 30.985,154.646 82.789,195.141 "/>
<polygon fill="#FFFFFF" stroke="#000000" stroke-miterlimit="10" points="237.366,293.447 259.794,298.634 276.781,283.099 
	278.779,306.032 298.804,317.387 277.61,326.374 272.999,348.927 257.902,331.548 235.028,334.132 246.891,314.404 "/>
<polygon fill="#FFFFFF" stroke="#000000" stroke-miterlimit="10" points="290.975,247.962 301.567,210.793 276.952,180.997 
	315.575,179.584 336.308,146.967 349.586,183.263 387.013,192.901 356.597,216.745 358.996,255.319 326.92,233.76 "/>
<polygon fill="#FFFFFF" stroke="#000000" stroke-miterlimit="10" points="263.306,175.2 274.632,156.632 265.757,136.775 
	286.917,141.81 303.059,127.233 304.81,148.912 323.661,159.76 303.584,168.125 299.093,189.405 284.933,172.896 "/>
<polygon fill="#FFFFFF" stroke="#000000" stroke-miterlimit="10" points="261.334,127.233 260.644,107.973 244.386,97.623 
	262.49,91.014 267.31,72.354 279.189,87.53 298.426,86.347 287.664,102.335 294.733,120.264 276.202,114.969 "/>
<polygon fill="#FFFFFF" stroke="#000000" stroke-miterlimit="10" points="202.64,140.602 188.087,117.564 160.859,116.492 
	178.272,95.532 170.877,69.306 196.192,79.39 218.85,64.252 217.083,91.444 238.48,108.316 212.073,115.038 "/>
<polygon fill="#FFFFFF" stroke="#000000" stroke-miterlimit="10" points="46.309,127.233 32.725,115.567 15.414,120.145 
	22.311,103.62 12.608,88.571 30.455,90.024 41.77,76.146 45.903,93.568 62.598,100.041 47.305,109.355 "/>
<polygon fill="#FFFFFF" stroke="#000000" stroke-miterlimit="10" points="79.642,64.252 73.396,54.035 61.438,53.389 69.225,44.291 
	66.144,32.718 77.203,37.313 87.257,30.807 86.305,42.744 95.6,50.296 83.952,53.08 "/>
<polygon fill="#FFFFFF" stroke="#000000" stroke-miterlimit="10" points="78.519,181.487 57.902,154.762 24.198,156.595 
	43.245,128.729 31.087,97.241 63.475,106.744 89.664,85.451 90.635,119.19 118.979,137.518 87.19,148.867 "/>
<polygon fill="#FFFFFF" stroke="#000000" stroke-miterlimit="10" points="147.122,356.862 147.588,336.764 131.296,324.986 
	150.555,319.219 156.722,300.084 168.158,316.618 188.261,316.571 176.071,332.556 182.328,351.661 163.358,345.007 "/>
<polygon fill="#FFFFFF" stroke="#000000" stroke-miterlimit="10" points="107.285,360.927 108.115,351.631 100.928,345.677 
	110.026,343.594 113.468,334.918 118.26,342.928 127.574,343.52 121.438,350.553 123.753,359.594 115.168,355.932 "/>
<polygon fill="#FFFFFF" stroke="#000000" stroke-miterlimit="10" points="0,356.862 -0.835,336.251 -18.287,325.254 1.057,318.091 
	6.123,298.095 18.913,314.279 39.495,312.917 28.056,330.083 35.711,349.237 15.852,343.662 "/>
</svg>
